<?xml version="1.0" standalone="no"?>
<!DOCTYPE svg PUBLIC "-//W3C//DTD SVG 1.1//EN" "http://www.w3.org/Graphics/SVG/1.1/DTD/svg11.dtd" >
<svg xmlns="http://www.w3.org/2000/svg">
<metadata></metadata>
<defs>
<font id="uni_sans_thinregular" horiz-adv-x="1034" >
<font-face units-per-em="2048" ascent="1548" descent="-500" />
<missing-glyph horiz-adv-x="614" />
<glyph unicode="&#xfb01;" horiz-adv-x="954" d="M160 0v1155q0 135 81 212.5t208 90.5v-45q-110 -9 -177 -76.5t-67 -181.5v-289h229v-45h-229v-821h-45zM678 1331q0 23 17 40.5t40 17.5t40.5 -17.5t17.5 -40.5t-17.5 -40t-40.5 -17t-40 17t-17 40zM711 0v1067h47v-1067h-47z" />
<glyph unicode="&#xfb02;" horiz-adv-x="991" d="M164 0v1155q0 135 81 212.5t208 90.5v-45q-110 -9 -177 -76.5t-67 -181.5v-289h229v-45h-229v-821h-45zM692 293v1157h45v-1157q0 -248 209 -256v-45q-123 11 -188.5 82t-65.5 219z" />
<glyph horiz-adv-x="0" />
<glyph horiz-adv-x="682" />
<glyph unicode=" "  horiz-adv-x="614" />
<glyph unicode="&#x09;" horiz-adv-x="614" />
<glyph unicode="&#xa0;" horiz-adv-x="614" />
<glyph unicode="!" horiz-adv-x="552" d="M186 61q0 26 19 45t45 19t44.5 -19t18.5 -45t-18.5 -44.5t-44.5 -18.5t-45 18.5t-19 44.5zM223 270v1182h51v-1182h-51z" />
<glyph unicode="&#x22;" horiz-adv-x="530" d="M160 1090v360h51l-25 -360h-26zM348 1090v360h51l-24 -360h-27z" />
<glyph unicode="#" horiz-adv-x="1464" d="M84 489l10 41h332l117 400h-377l12 43h379l141 479h47l-143 -479h412l139 479h51l-145 -479h334l-15 -43h-336l-114 -400h379l-13 -41h-379l-147 -489h-49l149 489h-409l-148 -489h-49l150 489h-328zM471 530h412l116 400h-411z" />
<glyph unicode="$" horiz-adv-x="1165" d="M90 227l47 21q66 -95 178.5 -148.5t239.5 -56.5v676q-53 11 -94 21.5t-91.5 28.5t-87.5 38t-74 50t-59.5 65.5t-35.5 83.5t-11 104q3 84 42 152t102.5 110.5t142.5 65t166 24.5v154h41v-154q139 -5 250.5 -60t173.5 -163l-47 -18q-52 89 -154 138t-223 54v-651 q79 -16 139.5 -34t126.5 -50.5t107.5 -74t66.5 -106t19 -145.5q-6 -82 -46.5 -149t-104 -110.5t-143 -68.5t-165.5 -28v-172h-41v170q-140 3 -265 61t-200 172zM154 1110q-5 -61 14.5 -111t54.5 -85t90.5 -63.5t112 -46.5t129.5 -34v643q-78 -2 -146 -20t-124 -53.5 t-91 -94.5t-40 -135zM596 43q100 4 184 37t144.5 103.5t74.5 168.5q3 51 -7 94.5t-28 75.5t-50 59t-63.5 45.5t-78 35t-85 27t-91.5 22.5v-668z" />
<glyph unicode="%" horiz-adv-x="1452" d="M59 1079q0 174 78 270.5t205 96.5q133 0 208 -97.5t75 -273.5q0 -169 -79 -268.5t-204 -99.5q-136 0 -209.5 95.5t-73.5 276.5zM119 1079q0 -168 53.5 -242.5t169.5 -74.5q114 0 169.5 76t55.5 237t-59 239.5t-168 78.5q-113 0 -167 -78t-54 -236zM170 -72l1008 1594 l41 -25l-1006 -1595q-9 5 -23.5 14t-19.5 12zM760 358q0 174 78 270.5t204 96.5q133 0 208 -97.5t75 -273.5q0 -169 -79 -268.5t-204 -99.5q-136 0 -209 95.5t-73 276.5zM815 358q0 -167 54 -242t171 -75q114 0 171 76t57 235q0 161 -60.5 239.5t-169.5 78.5 q-223 0 -223 -312z" />
<glyph unicode="&#x26;" horiz-adv-x="1243" d="M113 365q0 248 338 446q-85 101 -136 186t-51 164q0 132 95.5 212.5t228.5 80.5q116 0 201 -77t85 -193q0 -64 -24.5 -120t-71 -100t-93.5 -75.5t-112 -65.5l-47 -28l416 -457l127 201l35 -19l-129 -211l225 -256h-59l-189 211q-66 -89 -128.5 -146.5t-142 -91.5 t-169.5 -34q-170 0 -284.5 102.5t-114.5 270.5zM164 369q0 -153 97.5 -243.5t266.5 -90.5q116 0 215.5 73.5t176.5 184.5l-439 489q-317 -185 -317 -413zM315 1165q0 -131 181 -336q75 37 126 68.5t101.5 74.5t76 94t25.5 110q0 102 -68.5 167.5t-174.5 65.5 q-110 0 -188.5 -69.5t-78.5 -174.5z" />
<glyph unicode="'" horiz-adv-x="380" d="M158 1087v363h55l-16 -363h-39z" />
<glyph unicode="(" horiz-adv-x="532" d="M154 702q0 227 66.5 448.5t193.5 410.5l37 -29q-121 -177 -182.5 -391.5t-61.5 -442.5q0 -227 64.5 -443t189.5 -396l-39 -23q-132 190 -200 413t-68 453z" />
<glyph unicode=")" horiz-adv-x="501" d="M39 1511l33 21l-2 -2q1 0 2.5 1t3.5 2.5t4 2.5q129 -190 196.5 -421t67.5 -472q0 -494 -256 -868l-43 26q244 373 244 838q0 230 -63.5 453t-186.5 419z" />
<glyph unicode="*" horiz-adv-x="847" d="M88 1200q2 7 4 21t4 20l312 -104q0 49 -2.5 157t-2.5 158h41l-4 -317q87 27 148.5 48.5t100 36t52.5 19.5l13 -41l-301 -94l194 -266l-33 -23l-192 266q-30 -45 -98.5 -137t-94.5 -129l-32 27l202 262q-29 9 -311 96z" />
<glyph unicode="+" horiz-adv-x="1169" d="M90 674v47h473v463h45v-463h457v-47h-457v-465h-45v465h-473z" />
<glyph unicode="," horiz-adv-x="475" d="M104 -248l113 332h72l-139 -332h-46z" />
<glyph unicode="-" horiz-adv-x="735" d="M92 590v49h551v-49h-551z" />
<glyph unicode="." horiz-adv-x="411" d="M119 57q0 26 18.5 45t44.5 19t45 -19t19 -45t-19 -44.5t-45 -18.5t-44.5 18.5t-18.5 44.5z" />
<glyph unicode="/" horiz-adv-x="757" d="M66 -18l598 1499l36 -13q-226 -572 -392 -994t-199 -505q-35 9 -43 13z" />
<glyph unicode="0" horiz-adv-x="1230" d="M129 373v702q0 96 43.5 172t115 122t156 69.5t174.5 23.5q89 0 173.5 -24t156 -69.5t115 -121.5t43.5 -172v-702q0 -95 -43.5 -171t-115 -122t-156 -70t-173.5 -24t-174 24t-156.5 70t-115 122t-43.5 171zM180 373q0 -72 26.5 -130t69.5 -95.5t101 -63t118 -36.5t123 -11 q62 0 122 11t117.5 36.5t101 63t70 95.5t26.5 130v702q0 72 -26.5 130.5t-69.5 96t-101 63t-117.5 36t-122.5 10.5t-123 -10.5t-118 -36t-101 -63t-69.5 -96t-26.5 -130.5v-702z" />
<glyph unicode="1" horiz-adv-x="641" d="M70 1126l297 324h69v-1450h-49v1399l-285 -301q-8 6 -13.5 11t-8.5 7h2z" />
<glyph unicode="2" horiz-adv-x="1116" d="M86 47l698 725q76 75 118 156t42 155q0 135 -108.5 229.5t-284.5 100.5q-133 4 -233 -50.5t-156 -160.5l-45 21q60 124 165.5 181.5t270.5 59.5q192 -1 318 -111t126 -272q0 -83 -45 -174.5t-129 -173.5l-659 -682h835v-51h-890z" />
<glyph unicode="3" horiz-adv-x="1155" d="M90 209l43 27q73 -100 174 -146.5t240 -46.5q84 0 162 23t140.5 66t100 112t37.5 153q0 185 -103.5 276t-291.5 89h-139v49h139q151 0 240.5 71t89.5 218q0 76 -33 136t-88 96t-121.5 54.5t-138.5 18.5q-113 0 -205 -39.5t-146 -118.5l-40 21q118 184 395 184 q65 0 126 -13t116 -41.5t95.5 -69t64.5 -99.5t24 -129q0 -102 -44.5 -179.5t-158.5 -127.5q153 -56 211.5 -154.5t58.5 -243.5q-1 -96 -43.5 -173.5t-112 -126.5t-156 -75t-179.5 -26q-313 0 -457 215z" />
<glyph unicode="4" horiz-adv-x="1101" d="M43 469q37 46 340 418t459 563h71v-995h121v-47h-121v-408h-51v408h-786zM94 455h768l2 946z" />
<glyph unicode="5" horiz-adv-x="1185" d="M117 203l49 24q57 -86 166 -135t231 -49q83 0 162 27t142.5 75.5t102 122.5t38.5 160v84q0 114 -61 200.5t-158 129.5t-211 43q-116 0 -208.5 -21.5t-191.5 -72.5q-3 0 -11 -1.5t-11 -1.5v662h827v-47h-776v-547q188 81 371 78q91 -1 174.5 -28t152.5 -77.5t111 -132 t43 -182.5v-86q-1 -99 -44.5 -183t-113 -139t-157.5 -85.5t-181 -30.5q-142 0 -260 54t-186 159z" />
<glyph unicode="6" horiz-adv-x="1265" d="M143 373v698q0 93 43 169t115 122.5t161 71.5t185 24q144 0 260 -49t178 -147l-47 -25q-54 88 -157 130t-234 42q-88 0 -168 -21.5t-144 -62t-102 -107t-38 -149.5v-414q38 66 93.5 113t119 70.5t121 33t118.5 9.5q76 -1 147.5 -16.5t134.5 -47.5t110 -76.5t74.5 -108 t27.5 -138.5v-121q0 -93 -41.5 -168t-112 -122t-158 -72t-182.5 -25q-96 -1 -184.5 24t-160 71.5t-115 122.5t-44.5 169zM195 375q0 -83 38 -149.5t102 -107t144 -62t168 -21.5q117 0 215.5 36.5t163 115.5t64.5 188v117q0 109 -64.5 187.5t-163 115t-215.5 36.5 q-120 0 -220 -36t-166 -114.5t-66 -188.5v-117z" />
<glyph unicode="7" horiz-adv-x="976" d="M59 1401v49h859l28 -49l-766 -1401h-57l764 1401h-828z" />
<glyph unicode="8" horiz-adv-x="1185" d="M84 391q0 151 70 248.5t221 142.5q-82 27 -133.5 80.5t-70.5 112.5t-19 129q1 112 62 193.5t154 120t203 38.5h39q81 0 155 -22.5t134 -65.5t95.5 -111.5t35.5 -152.5q0 -50 -11 -95t-35 -88.5t-68.5 -79t-106.5 -57.5q288 -80 291 -393q-2 -96 -44 -175t-111 -130 t-155.5 -78.5t-179.5 -27.5h-39q-125 0 -233.5 46.5t-180 142t-73.5 222.5zM133 393q0 -72 26.5 -133.5t70 -103.5t100.5 -72t118 -43.5t123 -13.5h39q78 0 154 22.5t140.5 66t104.5 115.5t40 162q0 85 -24 150t-64 106t-98 67t-119 36t-134 10h-39q-438 0 -438 -369z M199 1104q0 -70 21.5 -124t56.5 -87t85 -53.5t100.5 -28.5t108.5 -8h39q58 0 109 8t100.5 28.5t85 53.5t57 87t21.5 124q0 76 -31 136.5t-84.5 96.5t-119 55t-138.5 19h-39q-99 0 -181 -31.5t-136.5 -103t-54.5 -172.5z" />
<glyph unicode="9" horiz-adv-x="1247" d="M106 956v111q0 93 41.5 168t112 122t158 72t182.5 25q97 1 185 -23t159.5 -70t115 -122t44.5 -172v-686q0 -93 -43 -169t-115 -122.5t-161 -71.5t-185 -24q-145 0 -257.5 51t-178.5 154l49 24q55 -89 157 -134.5t230 -45.5q89 0 168.5 21t144 61t102.5 105.5t38 148.5 v399q-37 -56 -83 -96t-89 -61.5t-96 -33.5t-93 -15t-92 -3q-76 1 -147.5 16.5t-134.5 47.5t-110 76.5t-74.5 108t-27.5 138.5zM158 958q0 -109 64 -188t162.5 -115.5t215.5 -36.5q89 0 169 21.5t144.5 62t103 107t38.5 149.5v107q0 83 -38.5 149.5t-103 107t-144.5 62 t-169 21.5q-117 0 -215.5 -36.5t-162.5 -115.5t-64 -188v-107z" />
<glyph unicode=":" horiz-adv-x="491" d="M178 117q0 26 19 44.5t45 18.5t44.5 -18.5t18.5 -44.5t-18.5 -45t-44.5 -19t-45 19t-19 45zM178 891q0 26 19 44.5t45 18.5t44.5 -18.5t18.5 -44.5t-18.5 -45t-44.5 -19t-45 19t-19 45z" />
<glyph unicode=";" horiz-adv-x="507" d="M133 -203l90 295h84l-123 -295h-51zM188 860q0 26 19 45t45 19t44.5 -19t18.5 -45t-18.5 -44.5t-44.5 -18.5t-45 18.5t-19 44.5z" />
<glyph unicode="&#x3c;" horiz-adv-x="911" d="M127 594v53l659 389v-53l-614 -362l614 -359v-51q-111 67 -329 191.5t-330 191.5z" />
<glyph unicode="=" horiz-adv-x="1093" d="M178 455v45h764v-45h-764zM178 737v45h764v-45h-764z" />
<glyph unicode="&#x3e;" horiz-adv-x="983" d="M188 211v47l623 363q-75 44 -292.5 170.5t-330.5 191.5v53q112 -68 333.5 -194.5t332.5 -194.5v-53z" />
<glyph unicode="?" horiz-adv-x="948" d="M68 1319q66 64 157 102.5t183 38.5q82 0 157.5 -25t136.5 -71.5t97 -121.5t35 -167q-1 -94 -36 -173t-94 -132.5t-134 -86.5t-158 -42q-3 -106 -6 -192.5t-4.5 -130l-2.5 -72.5h-37l-8 430q115 7 213 56.5t159.5 140t59.5 204.5q-2 108 -58 186t-140.5 114t-184.5 36 q-76 0 -160.5 -35t-146.5 -88zM326 49q0 23 16 39t39 16q22 0 38.5 -16t16.5 -39t-16.5 -38t-38.5 -15q-23 0 -39 15t-16 38z" />
<glyph unicode="@" horiz-adv-x="1536" d="M86 616q0 153 56 287.5t152 229.5t227.5 149.5t277.5 54.5q185 0 334 -71.5t236 -204t87 -301.5q0 -125 -43.5 -235.5t-109.5 -180t-142.5 -108t-144.5 -33.5q-129 8 -92 168q-125 -174 -297 -174q-112 0 -174 76t-62 188q0 102 31 200.5t85.5 178t139 128t182.5 48.5 q27 0 51.5 -4t56 -17.5t54.5 -35.5t41 -63.5t23 -96.5l10 -2l61 174h43l-180 -537l-12 -36t-9.5 -35.5t-6 -36t2 -30t11 -26.5t25 -15.5t40.5 -6.5q91 0 177 70.5t140 190t54 251.5q0 160 -86 284t-223.5 187t-298.5 63q-195 0 -350 -90.5t-239.5 -245t-84.5 -342.5 q0 -118 31.5 -220.5t87 -179t133 -131t168.5 -80t195 -22.5t210 37l13 -38q-111 -36 -221.5 -39.5t-207.5 23t-180.5 84t-143.5 138t-94 191t-34 237.5zM432 465q0 -100 56 -163.5t149 -63.5q59 0 116 31t102.5 83t80.5 113.5t57 128.5q17 50 23.5 103t0 105t-27 91.5 t-64 62.5t-104.5 19q-75 1 -140 -31.5t-109.5 -86t-77 -121.5t-47.5 -137.5t-15 -133.5z" />
<glyph unicode="A" horiz-adv-x="1267" d="M53 0l529 1464h96q91 -255 269 -744t261 -720h-55l-190 518h-670l-184 -518h-56zM311 569h635l-309 871h-12z" />
<glyph unicode="B" horiz-adv-x="1290" d="M190 0v1450h531q166 0 272.5 -93t106.5 -259q0 -96 -36.5 -173t-109.5 -120l-63 -35l72 -25q57 -24 99.5 -65.5t65 -91.5t32.5 -100q9 -45 9 -92v-9q-2 -109 -36.5 -186t-97 -120t-140 -62t-176.5 -19h-529zM242 49h479h13q176 1 278 79q106 82 106 261q0 354 -390 354 h-7h-479v-694zM242 793h479q150 0 240 76t90 227q0 147 -93 227t-237 80h-479v-610z" />
<glyph unicode="C" horiz-adv-x="1179" d="M129 397v660q0 96 44 175t117.5 128t164 75.5t188.5 26.5q142 0 265.5 -54t185.5 -155l-45 -32q-55 91 -169 141.5t-243 50.5q-86 0 -166.5 -22.5t-146 -65.5t-105 -112.5t-39.5 -155.5v-660q0 -86 39.5 -155t105 -111.5t146 -65t166.5 -22.5q130 0 242 46.5t170 135.5 q11 -8 45 -22q-62 -101 -187.5 -156t-269.5 -55q-77 0 -150 16t-138 49.5t-114 81t-77.5 114t-28.5 144.5z" />
<glyph unicode="D" horiz-adv-x="1243" d="M170 0v1450h489q98 0 180.5 -23t147.5 -68.5t102 -121.5t37 -176v-674q0 -99 -37 -174.5t-102 -121.5t-147.5 -68.5t-180.5 -22.5h-489zM221 51h438q88 0 162 19t131.5 58.5t90 105.5t32.5 153v674q0 88 -32.5 154.5t-90 106t-131 58.5t-162.5 19h-438v-1348z" />
<glyph unicode="E" horiz-adv-x="1171" d="M197 0v1450h862v-51h-811v-649h749v-56h-749v-643h811v-51h-862z" />
<glyph unicode="F" horiz-adv-x="1105" d="M184 0v1450h836v-51h-784v-676h712v-51h-712v-672h-52z" />
<glyph unicode="G" horiz-adv-x="1337" d="M125 406v649q0 96 43.5 175t115.5 128t162 75.5t187 26.5q142 0 263.5 -55t184.5 -156l-47 -30q-53 95 -162.5 142.5t-242.5 47.5q-87 0 -167 -22.5t-144.5 -65t-103 -111.5t-38.5 -155v-649q0 -88 39 -158.5t104 -114.5t145.5 -67t168.5 -23q87 0 168 23t146.5 67 t105 115t39.5 158v260h-445v49h496v-309q0 -80 -28.5 -148t-77.5 -116t-114.5 -82t-139 -50t-150.5 -16q-97 0 -187 26.5t-162 76t-115.5 130t-43.5 179.5z" />
<glyph unicode="H" horiz-adv-x="1409" d="M195 0v1450h51v-700h915v700h51v-1450h-51v698h-915v-698h-51z" />
<glyph unicode="I" horiz-adv-x="475" d="M199 0v1450h51v-1450h-51z" />
<glyph unicode="J" horiz-adv-x="1185" d="M43 283l51 16q29 -87 98 -148t148 -86.5t164 -25.5q82 0 158 22t138.5 64.5t100 111.5t37.5 156v1010h-483v47h534v-1057q0 -96 -41.5 -174.5t-111 -127.5t-155.5 -75t-179 -26q-103 0 -195 32t-163.5 100t-100.5 161z" />
<glyph unicode="K" horiz-adv-x="1173" d="M188 0v1450h52v-881q142 139 433.5 444.5t424.5 436.5h65l-669 -698q101 -108 213.5 -235t246 -279.5t209.5 -237.5h-59l-647 715l-217 -217v-498h-52z" />
<glyph unicode="L" horiz-adv-x="1021" d="M190 0v1450h52v-1399h725v-51h-777z" />
<glyph unicode="M" horiz-adv-x="1632" d="M190 0v1450h109l518 -1174q84 189 258 587.5t258 586.5h109v-1450h-51v1413h-19l-520 -1184h-70l-522 1170l-18 -2v-1397h-52z" />
<glyph unicode="N" horiz-adv-x="1411" d="M195 0v1450h79l863 -1401v1401h51v-1450h-88l-850 1384l-2 -1384h-53z" />
<glyph unicode="O" horiz-adv-x="1396" d="M158 401v650q0 98 46 178t122.5 129t171.5 75.5t198 26.5q82 0 160 -16t147 -50t121 -81.5t82.5 -115t30.5 -146.5v-650q0 -98 -46 -178t-123.5 -130t-173 -76.5t-198.5 -26.5t-198 26.5t-171.5 76.5t-122.5 130t-46 178zM209 401q0 -116 71.5 -199.5t179.5 -122 t236 -38.5q94 0 180 23t155.5 66t111.5 113.5t43 157.5v650q0 92 -42 163t-113 113t-156.5 63t-180.5 21q-95 -1 -179.5 -22.5t-154 -64t-110.5 -113t-41 -160.5v-650z" />
<glyph unicode="P" horiz-adv-x="1261" d="M199 0v1450h512q107 -1 193.5 -40t140 -102t82 -139.5t28.5 -158.5q0 -81 -28.5 -156.5t-81.5 -137.5t-139 -99.5t-193 -38.5h-463v-578h-51zM250 629h461q96 0 173 33t124 88t71.5 122.5t24.5 139.5q0 73 -25 141.5t-72.5 124.5t-124 90t-171.5 35h-461v-774z" />
<glyph unicode="Q" horiz-adv-x="1398" d="M160 403v650q0 98 46 178t122.5 129t171.5 75.5t198 26.5q81 0 158.5 -16t147 -50t121 -81.5t82 -115t30.5 -146.5v-650q0 -90 -28 -148.5t-89 -121.5l109 -129l-39 -27l-107 125q-162 -110 -385 -110q-103 0 -198 26.5t-171.5 76.5t-122.5 130t-46 178zM211 403 q-1 -85 40.5 -155.5t110.5 -114.5t155.5 -68t180.5 -24q198 0 357 102l-127 160l39 29l120 -158q99 80 99 229v650q0 87 -41.5 157.5t-111.5 113.5t-155.5 66t-179.5 23q-95 -1 -179.5 -22.5t-154.5 -64t-111.5 -113t-41.5 -160.5v-650z" />
<glyph unicode="R" horiz-adv-x="1277" d="M197 0v1436h512q442 0 450 -394q0 -110 -32 -188t-93.5 -122.5t-140.5 -64.5t-182 -20h-78l489 -647h-59l-488 647h-329v-647h-49zM246 692h465q204 0 301.5 80.5t97.5 267.5q0 96 -29.5 165.5t-84 109.5t-124.5 58q-63 16 -143 16h-18h-465v-697z" />
<glyph unicode="S" horiz-adv-x="1218" d="M135 227l47 21q69 -99 185.5 -152t248.5 -53q77 0 148 19t130.5 55.5t99 97t50.5 137.5q1 14 1 28q0 38 -8 71q-11 45 -30.5 77.5t-55 60t-68.5 45t-85 34.5t-89.5 26.5t-96.5 22.5q-54 11 -95 21.5t-93.5 28t-90 37.5t-76 50.5t-62 66t-37.5 83.5q-12 42 -11 91v15 q2 70 29.5 128.5t72 99.5t103.5 69t125.5 41.5t136.5 13.5q148 0 267 -55t184 -168l-47 -18q-55 94 -165 143t-239 49q-80 0 -150 -17.5t-128.5 -52.5t-95 -94.5t-41.5 -138.5q-1 -12 -1 -23q0 -49 18 -91q22 -52 59 -87t95.5 -63.5t118.5 -46.5t136 -33q57 -11 102.5 -22.5 t98.5 -30t92.5 -40.5t77.5 -53.5t61 -69t35 -88.5q9 -38 9 -81q0 -14 -1 -29q-8 -112 -80.5 -195t-179 -123t-228.5 -40q-143 0 -271 58t-206 175z" />
<glyph unicode="T" horiz-adv-x="1122" d="M55 1399v51h1018v-51h-483v-1399h-51v1399h-484z" />
<glyph unicode="U" horiz-adv-x="1400" d="M190 408v1042h52v-1042q0 -89 39 -161t103.5 -116.5t145 -68t168.5 -23.5q87 0 168 23.5t146.5 68t105 116.5t39.5 161v1042h51v-1042q0 -100 -43.5 -181t-116.5 -132t-163 -78t-187 -27t-187 27t-162 78t-115.5 132t-43.5 181z" />
<glyph unicode="V" horiz-adv-x="1243" d="M35 1450h57l522 -1438h13q368 1038 508 1440h55l-516 -1462h-109q-87 244 -265 730t-265 730z" />
<glyph unicode="W" horiz-adv-x="1892" d="M45 1450h55l412 -1425h10l389 1208h64l391 -1213h12l406 1430h55l-422 -1454h-94l-379 1188q-74 -236 -215.5 -675t-165.5 -513h-94q-72 252 -214.5 736.5t-209.5 717.5z" />
<glyph unicode="X" horiz-adv-x="1206" d="M88 0l477 723l-475 727h57l449 -680q133 202 234 356.5t144 220.5t68 103h60l-477 -727q92 -131 259 -390.5t216 -332.5h-60l-444 688l-444 -688h-64z" />
<glyph unicode="Y" horiz-adv-x="1167" d="M55 1450h62l461 -817l475 817h63l-514 -875v-575h-51v575z" />
<glyph unicode="Z" horiz-adv-x="1120" d="M55 25l932 1380h-891v45h942l19 -27l-932 -1378h903v-45h-952z" />
<glyph unicode="[" horiz-adv-x="481" d="M174 -246v1784h238v-43h-189v-1696h189v-45h-238z" />
<glyph unicode="\" horiz-adv-x="741" d="M16 1518l39 14l633 -1577l-45 -14z" />
<glyph unicode="]" horiz-adv-x="430" d="M49 -207h184v1696h-184v49h238v-1796h-238v51z" />
<glyph unicode="^" horiz-adv-x="1116" d="M143 926l361 524h57q217 -319 373 -524h-55l-347 489l-333 -489h-56z" />
<glyph unicode="_" horiz-adv-x="1024" d="M35 -43h954v-45h-954v45z" />
<glyph unicode="`" horiz-adv-x="430" d="M80 1450h80l123 -211h-52z" />
<glyph unicode="a" d="M127 315q1 107 56 183.5t138.5 111.5t184.5 35q164 0 311 -65v194q0 66 -26 116t-71.5 79.5t-101 44t-120.5 14.5q-86 0 -147.5 -20.5t-123.5 -75.5l-26 29q104 107 299 110h11q141 -1 243 -75q106 -78 106 -222v-737q-174 -55 -376 -55h-21q-143 2 -239.5 93.5 t-96.5 239.5zM172 315q0 -138 82.5 -215.5t214.5 -79.5h22q146 0 295 37l31 11v471q-158 65 -315 65q-66 0 -124 -17t-104.5 -51t-73.5 -90.5t-28 -130.5z" />
<glyph unicode="b" horiz-adv-x="1026" d="M156 27v1423h45v-455q174 80 323 80h5q91 1 172 -33q83 -34 137.5 -107t54.5 -169v-465q0 -74 -31 -135.5t-83 -101t-116 -61t-133 -23.5q-223 0 -374 47zM201 63q117 -40 329 -40q124 0 220.5 78.5t95.5 195.5v469q1 120 -94.5 191t-225.5 73q-139 0 -305 -76l-20 -12 v-879z" />
<glyph unicode="c" horiz-adv-x="905" d="M133 295v465q0 75 31.5 135t84 97.5t117 57t134.5 19.5q98 0 181 -34.5t132 -102.5l-35 -23q-83 115 -278 115q-85 0 -156 -27t-118.5 -87.5t-47.5 -145.5v-469q0 -87 47.5 -148.5t118.5 -88.5t156 -27q96 0 178 39t119 112q11 -4 23.5 -10.5t19.5 -9.5 q-44 -84 -137.5 -130t-202.5 -46q-70 0 -134.5 19.5t-117 57t-84 97.5t-31.5 135z" />
<glyph unicode="d" horiz-adv-x="1046" d="M152 291v473q0 99 54 172q55 72 137 106q80 33 172 33h5q176 0 324 -67v442h47v-1415q-170 -53 -377 -53q-72 2 -134 19.5t-114.5 52.5t-83 96t-30.5 141zM199 291q-1 -127 90.5 -193.5t224.5 -66.5q193 0 330 45v878q-171 74 -326 74q-134 -2 -227 -69t-92 -193v-475z " />
<glyph unicode="e" horiz-adv-x="1005" d="M137 301v461q0 99 55 171t136.5 105t177.5 33q95 0 176 -33t135.5 -105t54.5 -171v-273h-688v-188q-1 -128 92.5 -195t229.5 -67q92 0 169 32.5t118 96.5q11 -4 22 -11.5t19 -11.5q-44 -76 -133 -114.5t-195 -38.5q-96 0 -177.5 33t-136.5 105t-55 171zM184 532h643v230 v4q0 64 -27.5 115.5t-73.5 82.5t-102 47.5t-118 16.5q-135 0 -229 -68t-93 -194v-234z" />
<glyph unicode="f" horiz-adv-x="536" d="M164 0v1155q0 135 81 212.5t208 90.5v-45q-110 -9 -177 -76.5t-67 -181.5v-289h229v-45h-229v-821h-45z" />
<glyph unicode="g" horiz-adv-x="1026" d="M143 307v457q0 96 53 167t132.5 104t171.5 34q151 0 370 -74v-1042q0 -99 -53.5 -168.5t-133 -100t-173.5 -30.5q-188 0 -301 98l31 31q56 -40 128 -63t144 -23q61 0 116 15t100.5 45t72 80t26.5 114v129q-164 -80 -319 -80h-5q-91 0 -171 33q-81 34 -135 106t-54 168z M188 307q-1 -122 92 -191.5t224 -72.5q78 1 142 19t161 57l20 14v825q-66 27 -155.5 46.5t-171.5 19.5q-129 0 -221 -68.5t-91 -189.5v-459z" />
<glyph unicode="h" horiz-adv-x="1081" d="M176 0v1450h45v-459q152 70 322 70h13q62 0 121 -18q65 -20 117 -57.5t83.5 -98t31.5 -133.5v-754h-45v754q0 64 -27.5 115t-73 82t-101.5 47.5t-117 17.5q-151 0 -324 -70v-946h-45z" />
<glyph unicode="i" horiz-adv-x="440" d="M166 1331q0 23 17 40.5t40 17.5t40.5 -17.5t17.5 -40.5t-17.5 -40t-40.5 -17t-40 17t-17 40zM199 0v1067h47v-1067h-47z" />
<glyph unicode="j" horiz-adv-x="448" d="M-29 -313q111 9 171.5 76.5t60.5 191.5v1114h45v-1114q0 -141 -74.5 -221.5t-202.5 -91.5v45zM168 1352q0 23 17 40t40 17t40.5 -17t17.5 -40t-17.5 -40.5t-40.5 -17.5t-40 17.5t-17 40.5z" />
<glyph unicode="k" horiz-adv-x="966" d="M174 0v1450h45v-1026l610 637h56l-449 -477l453 -584h-51l-435 551l-184 -184v-367h-45z" />
<glyph unicode="l" horiz-adv-x="475" d="M166 293v1157h45v-1157q0 -248 209 -256v-45q-123 11 -188.5 82t-65.5 219z" />
<glyph unicode="m" horiz-adv-x="1683" d="M180 0v991q121 80 314 80q245 0 342 -168q59 94 132 127.5t175 36.5h20q87 1 161 -31q82 -36 131.5 -112.5t49.5 -180.5v-743h-47v739q0 94 -46.5 159.5t-115 93.5t-149.5 28q-75 0 -139 -24.5t-106.5 -77t-43.5 -125.5v-793h-45v793q-3 108 -102 170.5t-232 62.5 q-68 0 -136 -18.5t-116 -49.5v-958h-47z" />
<glyph unicode="n" horiz-adv-x="1089" d="M178 0v1010q177 63 373 63q69 -2 131.5 -20.5t114 -54.5t82 -96t30.5 -138v-764h-45v764q0 86 -47.5 147t-116.5 88t-149 27q-88 0 -179 -15t-149 -40v-971h-45z" />
<glyph unicode="o" horiz-adv-x="1030" d="M147 297v469q0 75 31.5 135.5t84.5 97.5t117.5 57t135.5 21q70 -1 134.5 -21t117 -57t84 -97.5t31.5 -135.5v-469q0 -75 -31.5 -135.5t-84 -97.5t-117 -57t-134.5 -21q-71 1 -135.5 21t-117.5 57t-84.5 97.5t-31.5 135.5zM193 297q0 -67 28 -119.5t75 -83.5t103 -47 t117 -16q60 0 115.5 16t102.5 47t75.5 83.5t28.5 119.5v469q0 67 -28.5 119.5t-75.5 83t-102.5 46t-115.5 15.5q-48 0 -93.5 -9.5t-87.5 -30t-73.5 -51t-50 -75t-18.5 -98.5v-469z" />
<glyph unicode="p" d="M154 -393v1423q151 47 374 47q69 -2 133 -23.5t116 -61t83 -101t31 -135.5v-463q0 -96 -54.5 -168.5t-137.5 -106.5q-81 -34 -172 -34h-5q-152 0 -323 79v-456h-45zM199 117l20 -13q164 -75 305 -75q130 2 225.5 73t94.5 191v467q1 117 -95.5 195.5t-220.5 78.5 q-210 0 -329 -41v-876z" />
<glyph unicode="q" d="M141 293v463q0 74 31 135.5t83 101t116 61t133 23.5q224 0 375 -47v-1423h-45v456q-171 -79 -324 -79h-5q-91 0 -172 34q-83 34 -137.5 106.5t-54.5 168.5zM188 293q-1 -120 94.5 -191t225.5 -73q141 0 305 75l21 13v876q-119 41 -330 41q-124 0 -220.5 -78.5 t-95.5 -195.5v-467z" />
<glyph unicode="r" horiz-adv-x="628" d="M162 0v762q0 120 75 200t193 103q34 6 59 6l78 -4v-43q-8 0 -40.5 1t-55.5 0t-41 -5q-95 -24 -159 -91t-64 -167v-762h-45z" />
<glyph unicode="s" horiz-adv-x="864" d="M92 164l37 26q127 -157 312 -157h14q44 1 90 15.5t88 42t68.5 74.5t25.5 105q0 197 -274 252q-55 10 -97 21t-89.5 32.5t-78.5 49.5t-52 71.5t-21 98.5q0 130 97 202t230 72q77 0 151.5 -26.5t123.5 -73.5q-5 -5 -15 -16t-14 -15q-43 42 -111 66t-137 24q-73 0 -134 -24 t-103 -78.5t-45 -130.5q0 -36 10.5 -65.5t26 -50.5t40.5 -38.5t48 -28t54.5 -19.5t54 -14t53.5 -11q5 -1 8.5 -1.5t7.5 -1.5q62 -11 113.5 -31t97.5 -53.5t72.5 -87.5t27.5 -123q0 -127 -94.5 -203t-222.5 -79h-13q-100 0 -190 43q-96 46 -160 133z" />
<glyph unicode="t" horiz-adv-x="563" d="M172 307v1143h45v-389h229v-45h-229v-709q0 -65 28.5 -118.5t73 -84t92.5 -47t93 -16.5v-43q-135 0 -233.5 86t-98.5 223z" />
<glyph unicode="u" horiz-adv-x="1058" d="M166 295v768h45v-768q0 -83 49 -145t118.5 -90.5t145.5 -28.5q84 0 176 16.5t152 42.5v973h45v-1012q-183 -65 -373 -65q-69 2 -132 22t-114 57.5t-81.5 97t-30.5 132.5z" />
<glyph unicode="v" horiz-adv-x="956" d="M61 1061h52l368 -1030l369 1030h49q-61 -177 -189.5 -530.5t-189.5 -530.5h-78q-313 860 -381 1061z" />
<glyph unicode="w" horiz-adv-x="1458" d="M63 1061h56l299 -1032h6l264 1032h80l268 -1030h6l299 1030h56l-310 -1061h-96l-262 1014h-4l-256 -1014h-96z" />
<glyph unicode="x" horiz-adv-x="923" d="M82 0l346 530l-346 531h57l320 -498l319 498h56l-345 -531q61 -92 178 -274.5t164 -255.5h-53l-319 498l-322 -498h-55z" />
<glyph unicode="y" horiz-adv-x="1062" d="M162 297v764h47v-764q-1 -122 92.5 -191.5t224.5 -72.5q54 1 107 12.5t88.5 24.5t105.5 41l21 14v936h45v-1108q0 -75 -30.5 -133.5t-82.5 -94t-115 -53.5t-133 -18q-188 0 -301 98l33 35q67 -49 126.5 -68.5t144.5 -19.5q77 0 146 26t118 85.5t49 140.5v121 q-168 -82 -318 -82h-5q-92 0 -172 33q-82 34 -136.5 106t-54.5 168z" />
<glyph unicode="z" horiz-adv-x="882" d="M55 43l684 977h-649v41h686q5 -7 21 -35l-691 -983h685v-43h-707z" />
<glyph unicode="{" horiz-adv-x="559" d="M109 621v36q145 37 145 347v296q0 46 2.5 76t11.5 62.5t26.5 51t48.5 30.5t75 12h47v-43h-45q-29 0 -50 -4.5t-34 -18t-20 -25t-10.5 -39t-4 -46t-0.5 -58.5v-299q1 -155 -39.5 -247t-91.5 -113q21 -9 40.5 -28t41 -57t34.5 -108t13 -163v-301q0 -92 26 -133.5t107 -41.5 h33v-43h-35q-101 0 -139.5 54.5t-38.5 161.5v296q0 150 -31.5 237.5t-111.5 107.5z" />
<glyph unicode="|" horiz-adv-x="471" d="M184 -358v1917h103v-1917h-103zM199 -344h73v1888h-73v-1888zM213 -330h45v1860h-45v-1860z" />
<glyph unicode="}" horiz-adv-x="555" d="M68 -193h30q79 0 107 45t28 130v297q0 272 132 366q-51 21 -92 113t-40 246v294q0 45 -1 66.5t-7 51t-18.5 42t-35.5 22t-58 9.5h-45v41h47q97 0 130.5 -57t33.5 -173v-296q0 -310 145 -347v-36q-143 -37 -143 -345v-294q0 -218 -179 -218h-34v43z" />
<glyph unicode="~" horiz-adv-x="1077" d="M166 580q34 58 89 95.5t126 37.5q44 0 91 -22.5t82 -49.5t81 -49.5t88 -22.5q60 0 104 32.5t84 92.5l21 -24q-33 -63 -87.5 -104.5t-121.5 -41.5q-53 0 -116.5 36t-123.5 72t-104 36q-111 0 -191 -115q-4 4 -12 14.5t-10 12.5z" />
<glyph unicode="&#xa1;" horiz-adv-x="569" d="M215 1004q0 26 19 44.5t45 18.5t44.5 -18.5t18.5 -44.5t-18.5 -45t-44.5 -19t-45 19t-19 45zM250 -420v1172h55v-1172h-55z" />
<glyph unicode="&#xa2;" horiz-adv-x="942" d="M137 303v457q0 90 50 160.5t127 107.5t167 41v186h43v-186q101 -6 171.5 -39t121.5 -98l-33 -25q-40 53 -111.5 87.5t-148.5 31.5v-989q86 3 168.5 45.5t110.5 105.5l39 -18q-39 -77 -124 -123t-194 -55v-185h-43v185q-146 16 -245 97t-99 214zM182 303 q-1 -112 83.5 -178.5t215.5 -85.5v985q-123 -5 -211.5 -74.5t-87.5 -187.5v-459z" />
<glyph unicode="&#xa3;" horiz-adv-x="913" d="M76 0v43h213v698h-213v41h213v291q0 54 10.5 105.5t38 103t68.5 90t107.5 62.5t150.5 24q69 0 122.5 -18t106.5 -60l-31 -34q-85 69 -203 69q-67 0 -122 -20t-91.5 -53t-62 -77t-36.5 -91t-11 -95v-297h338v-41h-338v-698h502v-43h-762z" />
<glyph unicode="&#xa4;" horiz-adv-x="1148" d="M106 725q0 188 123 322l-106 106l27 33l106 -113q158 125 326 125q164 0 319 -121l105 109l30 -25l-110 -114q131 -143 131 -322q0 -180 -127 -319l117 -113q-8 -6 -31 -29l-113 111q-162 -129 -321 -129q-164 0 -324 125l-106 -109l-29 27l110 110q-127 139 -127 326z M147 723q0 -180 127.5 -306t303.5 -126q178 0 306 126t128 306q0 120 -59 221t-158.5 158t-216.5 57q-115 0 -214 -57t-158 -158t-59 -221z" />
<glyph unicode="&#xa5;" horiz-adv-x="1003" d="M-27 1450h60l450 -840l463 840h60l-471 -852h313l-10 -47h-332v-152h342q0 -4 -1 -6t-1 -6v2l-6 -35h-334v-354h-47v354h-338l6 45h332v152h-334q0 3 0.5 6.5t3 14.5t4.5 26h299q-62 113 -141.5 261t-176 328t-141.5 263z" />
<glyph unicode="&#xa6;" horiz-adv-x="436" d="M195 -260v709h49v-709h-49zM195 764v682h49v-682h-49z" />
<glyph unicode="&#xa7;" horiz-adv-x="1005" d="M141 -66l47 21q48 -87 131 -128.5t168 -43.5q57 -1 105 10t92 37t69 76t25 121q0 46 -20 86.5t-47 68.5t-74.5 58.5t-81.5 47t-91.5 43t-82.5 38.5q-103 54 -161 116.5t-58 155.5q0 85 67.5 153.5t178.5 116.5q-99 59 -148 118.5t-49 135.5q0 133 101.5 213t238.5 80 q87 0 170 -36t119 -111l-41 -23q-70 123 -248 123q-71 0 -137 -28.5t-110 -86t-44 -131.5q0 -49 19.5 -87.5t67 -72.5t80 -51.5t103.5 -50.5q14 -7 21 -10q45 -21 75.5 -36.5t71.5 -40t68.5 -49t53 -55.5t38 -68t12.5 -79q0 -80 -58.5 -153.5t-149.5 -124.5 q84 -49 130 -116.5t46 -129.5q0 -67 -20 -120t-53 -87t-79 -56.5t-95 -32t-104 -9.5q-109 0 -206 52.5t-140 145.5zM213 641q0 -35 12.5 -66.5t28.5 -52t44 -42.5t44.5 -32t44.5 -26l229 -113q78 41 140.5 108.5t62.5 141.5q0 79 -56 142t-128 102l-168 82 q-44 -15 -83.5 -35t-80.5 -50t-65.5 -71.5t-24.5 -87.5z" />
<glyph unicode="&#xa8;" horiz-adv-x="614" d="M57 1403q0 20 14.5 34.5t34.5 14.5t35 -14.5t15 -34.5t-15 -34.5t-35 -14.5t-34.5 14.5t-14.5 34.5zM426 1403q0 20 14.5 34.5t34.5 14.5t34.5 -14.5t14.5 -34.5t-14.5 -34.5t-34.5 -14.5t-34.5 14.5t-14.5 34.5z" />
<glyph unicode="&#xa9;" horiz-adv-x="1628" d="M96 725q0 196 98 363.5t265.5 265.5t363.5 98t363.5 -98t265.5 -265.5t98 -363.5t-98 -363.5t-265.5 -265.5t-363.5 -98t-363.5 98t-265.5 265.5t-98 363.5zM143 725q0 -187 90.5 -343t246.5 -246.5t343 -90.5t343 90.5t246.5 246.5t90.5 343t-90.5 343t-246.5 246.5 t-343 90.5t-343 -90.5t-246.5 -246.5t-90.5 -343zM457 571v310q0 99 54.5 171t135.5 105t176 33q98 0 181.5 -34.5t132.5 -102.5l-35 -23q-83 115 -279 115q-85 0 -155.5 -27t-118 -87.5t-47.5 -145.5v-314q0 -87 47.5 -148.5t118 -88.5t155.5 -27q96 0 178 39.5t119 112.5 q11 -4 23 -11t20 -10q-44 -84 -137.5 -130t-202.5 -46q-95 0 -176 33t-135.5 105t-54.5 171z" />
<glyph unicode="&#xaa;" horiz-adv-x="677" d="M78 981q1 57 22 97.5t58 62.5t79 31.5t93 9.5q101 0 190 -37v104q0 75 -57.5 113.5t-140.5 38.5q-92 0 -172 -64l-31 27q93 80 207 80q97 0 167 -50t70 -143v-456q-136 -42 -264 -39q-94 2 -157.5 64.5t-63.5 160.5zM121 981q0 -83 51.5 -132.5t130.5 -51.5q104 0 217 22 v287q-109 37 -194 37q-203 0 -205 -162z" />
<glyph unicode="&#xab;" horiz-adv-x="784" d="M115 604l250 371q21 -14 30 -23q4 -4 6 -4l-233 -344q62 -91 133 -199t96 -145l-32 -22zM369 604l249 371q24 -16 31 -23q4 -4 6 -4l-237 -344q185 -273 235 -344l-35 -22z" />
<glyph unicode="&#xac;" horiz-adv-x="1132" d="M94 739v43h907v-399h-43v356h-864z" />
<glyph unicode="&#xad;" horiz-adv-x="681" d="M106 528v47h467v-47h-467z" />
<glyph unicode="&#xae;" horiz-adv-x="1607" d="M82 725q0 196 98 363.5t265.5 265.5t363.5 98t363.5 -98t265.5 -265.5t98 -363.5t-98 -363.5t-265.5 -265.5t-363.5 -98t-363.5 98t-265.5 265.5t-98 363.5zM131 725q0 -139 53.5 -264.5t144 -216t216 -144t264.5 -53.5t264.5 53.5t216 144t144 216t53.5 264.5 t-53.5 264.5t-144 216t-216 144t-264.5 53.5t-264.5 -53.5t-216 -144t-144 -216t-53.5 -264.5zM563 324v815h279q126 0 197 -65t71 -163q0 -102 -69.5 -164.5t-176.5 -70.5l252 -352h-45l-256 348h-211v-348h-41zM604 709h176q46 0 83 4t76.5 16.5t66.5 34t44 59t17 88.5 q0 95 -68.5 142t-162.5 47h-232v-391z" />
<glyph unicode="&#xaf;" horiz-adv-x="563" d="M25 1401v49h485v-49h-485z" />
<glyph unicode="&#xb0;" horiz-adv-x="698" d="M129 1253q0 86 61.5 146.5t147.5 60.5t147.5 -60.5t61.5 -146.5q0 -88 -61.5 -149.5t-147.5 -61.5t-147.5 61.5t-61.5 149.5zM172 1251q0 -72 48.5 -121t117.5 -49t117.5 49t48.5 121t-48.5 121t-117.5 49t-117.5 -49t-48.5 -121z" />
<glyph unicode="&#xb1;" horiz-adv-x="1132" d="M152 815v43h385v367h43v-367h399v-43h-399v-373h-43v373h-385zM154 229v41h821v-41h-821z" />
<glyph unicode="&#xb2;" horiz-adv-x="712" d="M72 649l401 410q58 58 82 111t4 114q-31 68 -90.5 102.5t-130.5 34.5q-61 0 -119 -26.5t-92 -75.5l-29 12h2l-6 4q81 125 244 125q86 0 156.5 -39.5t101.5 -115.5l-2 2q30 -77 0.5 -149.5t-90.5 -123.5l-371 -379h479v-39h-528l-2 5z" />
<glyph unicode="&#xb3;" horiz-adv-x="706" d="M88 754l39 14q30 -52 88 -81t121 -32q59 -4 116.5 16.5t98.5 68t41 110.5q0 99 -60 146t-155 42h-68v35h68q95 0 141 43q43 43 42 106t-40 109q-64 70 -170 70q-60 0 -116.5 -24t-88.5 -68q-16 8 -28 20q49 64 129.5 92t163.5 11.5t139 -74.5q48 -48 49.5 -129 t-49.5 -135q-15 -15 -53 -35q71 -23 104 -81t33 -128q0 -76 -45.5 -132.5t-113 -81t-142.5 -20.5q-76 5 -144 40.5t-100 97.5z" />
<glyph unicode="&#xb4;" horiz-adv-x="450" d="M152 1206l112 244h80l-147 -244h-45z" />
<glyph unicode="&#xb5;" horiz-adv-x="1028" d="M156 -432v1493h47v-672q0 -63 13 -120t42 -111t86.5 -86.5t136.5 -32.5q158 0 258.5 113.5t100.5 320.5v588h49l6 -1061h-45v281q-21 -76 -61 -132.5t-91.5 -87.5t-105.5 -46t-111 -15q-61 0 -112.5 15t-100 61.5t-69.5 120.5l2 -629h-45z" />
<glyph unicode="&#xb6;" horiz-adv-x="1128" d="M74 1018q0 81 29.5 157t85.5 138.5t147 100.5t203 38h434v-1683h-43v1646h-336v-1646h-45v837q-112 0 -204 35t-150 93.5t-89.5 131.5t-31.5 152z" />
<glyph unicode="&#xb7;" horiz-adv-x="532" d="M186 651q0 32 24 56t56 24t56 -24t24 -56t-24 -56t-56 -24t-56 24t-24 56z" />
<glyph unicode="&#xb8;" horiz-adv-x="499" d="M100 -313l4 24q45 -18 113 -18q83 0 121.5 47.5t6 95t-121.5 47.5l-76 -8l89 129h36l-61 -94q126 13 171.5 -53t-6.5 -135t-159 -64q-67 3 -117 29z" />
<glyph unicode="&#xb9;" horiz-adv-x="577" d="M145 1249l177 201h55v-836h-43v793l-158 -184z" />
<glyph unicode="&#xba;" horiz-adv-x="745" d="M88 973v262q0 70 42 121.5t104 75.5t133 24t133 -24t103.5 -75.5t41.5 -121.5v-262q0 -70 -41.5 -121.5t-103.5 -75.5t-133 -24t-133 24t-104 75.5t-42 121.5zM129 979q0 -66 37 -110t88.5 -61t112.5 -17t112 17t88 61t37 110v250q0 66 -37 110t-88 61t-112 17 t-112.5 -17t-88.5 -61t-37 -110v-250z" />
<glyph unicode="&#xbb;" horiz-adv-x="788" d="M145 260l238 344q-226 329 -236 344l35 23l250 -367l-250 -371q-21 14 -30 23q-4 4 -7 4zM395 260l238 344q-226 329 -236 344l35 23l250 -367l-250 -371z" />
<glyph unicode="&#xbc;" horiz-adv-x="1368" d="M119 1249l176 201h55v-836h-43v793l-157 -184zM166 -4l899 1474l14 -8l19 -12l-901 -1473zM666 254l469 592h51v-594h82v-35h-82v-217h-39v217h-457zM709 250l438 2v547z" />
<glyph unicode="&#xbd;" horiz-adv-x="1548" d="M137 1249l176 201h56v-836h-43v793l-158 -184zM211 -4l899 1474l14 -8l19 -12l-901 -1473zM831 33l402 409q58 58 82 111.5t4 114.5q-31 68 -90.5 102.5t-130.5 34.5q-61 0 -117 -27t-90 -76l-33 13h2l-6 4q81 125 244 125q86 0 156.5 -40t101.5 -116l-2 2 q30 -77 0.5 -149t-90.5 -123l-371 -379h479v-39h-528l-2 4z" />
<glyph unicode="&#xbe;" horiz-adv-x="1492" d="M92 772l39 14q30 -52 87.5 -80.5t121.5 -31.5q93 -7 174.5 47t81.5 147q0 99 -60 146.5t-155 42.5h-68v35h68q95 0 141 43q43 43 42 106t-40 109q-63 69 -170 69q-60 0 -115.5 -24t-88.5 -68q-16 8 -29 21q49 64 129.5 92t163.5 11t139 -75q48 -48 49.5 -129t-49.5 -135 q-15 -15 -53 -35q71 -23 104 -81t33 -128q0 -113 -91.5 -176t-209.5 -57q-77 5 -144.5 40t-99.5 97zM326 -2l897 1472l12 -8l18 -12q-151 -247 -449.5 -735t-449.5 -735zM745 254l469 592h52v-594h82v-35h-82v-217h-39v217h-457zM788 250l439 2v547z" />
<glyph unicode="&#xbf;" horiz-adv-x="948" d="M92 4q1 94 34 170t91 126.5t133 80.5t164 39q4 111 6 191.5t2.5 130t1.5 71.5h37l12 -430q-116 -7 -213.5 -53t-159 -132t-59.5 -196q1 -81 34 -146t87 -105t121 -60.5t141 -20.5q76 0 159.5 34t145.5 87l31 -31q-66 -64 -157 -102.5t-183 -38.5q-82 0 -158 25t-137 71.5 t-97.5 121.5t-35.5 167zM483 993q0 26 17.5 44t42.5 18q26 0 44.5 -18t18.5 -44t-18.5 -44.5t-44.5 -18.5q-25 0 -42.5 18.5t-17.5 44.5z" />
<glyph unicode="&#xc0;" horiz-adv-x="1267" d="M53 0l529 1464h96q91 -255 269 -744t261 -720h-55l-190 518h-670l-184 -518h-56zM311 569h635l-309 871h-12zM469 1763h80l123 -211h-51z" />
<glyph unicode="&#xc1;" horiz-adv-x="1267" d="M53 0l529 1464h96q91 -255 269 -744t261 -720h-55l-190 518h-670l-184 -518h-56zM311 569h635l-309 871h-12zM588 1546l112 244h80l-147 -244h-45z" />
<glyph unicode="&#xc2;" horiz-adv-x="1267" d="M53 0l529 1464h96q91 -255 269 -744t261 -720h-55l-190 518h-670l-184 -518h-56zM311 569h635l-309 871h-12zM408 1518l180 208h76l180 -208h-47l-172 182l-168 -182h-49z" />
<glyph unicode="&#xc3;" horiz-adv-x="1267" d="M53 0l529 1464h96q91 -255 269 -744t261 -720h-55l-190 518h-670l-184 -518h-56zM311 569h635l-309 871h-12zM432 1593q13 39 44.5 60.5t68.5 21.5q31 0 87 -27.5t87 -27.5q50 0 78 43l28 -10q-16 -32 -46.5 -57t-57.5 -25q-31 0 -93 30.5t-93 30.5q-47 0 -76 -51z" />
<glyph unicode="&#xc4;" horiz-adv-x="1267" d="M53 0l529 1464h96q91 -255 269 -744t261 -720h-55l-190 518h-670l-184 -518h-56zM311 569h635l-309 871h-12zM395 1595q0 20 14.5 35t34.5 15t35 -15t15 -35t-15 -34.5t-35 -14.5t-34.5 14.5t-14.5 34.5zM764 1595q0 20 14.5 35t34.5 15t34.5 -15t14.5 -35t-14.5 -34.5 t-34.5 -14.5t-34.5 14.5t-14.5 34.5z" />
<glyph unicode="&#xc5;" horiz-adv-x="1267" d="M53 0l529 1464h96q91 -255 269 -744t261 -720h-55l-190 518h-670l-184 -518h-56zM311 569h635l-309 871h-12zM469 1665q0 75 46 117.5t114 42.5q67 0 110 -48.5t43 -113.5q0 -62 -45.5 -110t-107.5 -48q-67 0 -113.5 44.5t-46.5 115.5zM516 1663q0 -47 32.5 -81t78.5 -34 t79 35t33 82t-33 82t-79 35q-48 0 -79.5 -32.5t-31.5 -86.5z" />
<glyph unicode="&#xc6;" horiz-adv-x="1531" d="M2 0l719 1450h743v-49h-622v-672h559v-49h-559v-635h622v-45h-669v518h-473q-73 -145 -132 -261t-87 -170.5t-44 -86.5h-57zM344 565h451v842l-41 -2z" />
<glyph unicode="&#xc7;" horiz-adv-x="1179" d="M129 397v660q0 96 44 175t117.5 128t164 75.5t188.5 26.5q142 0 265.5 -54t185.5 -155l-45 -32q-55 91 -169 141.5t-243 50.5q-86 0 -166.5 -22.5t-146 -65.5t-105 -112.5t-39.5 -155.5v-660q0 -86 39.5 -155t105 -111.5t146 -65t166.5 -22.5q130 0 242 46.5t170 135.5 q11 -8 45 -22q-62 -101 -187.5 -156t-269.5 -55h-21l-30 -51q125 12 170 -55q34 -51 4 -111q-32 -65 -112 -83q-28 -6 -60 -5q-69 3 -117 28l6 29q45 -18 111 -18q83 0 121.5 45.5t6 91t-121.5 45.5l-76 -4l62 90q-88 7 -168 36.5t-144 78.5t-101.5 123.5t-37.5 164.5z" />
<glyph unicode="&#xc8;" horiz-adv-x="1171" d="M197 0v1450h862v-51h-811v-649h749v-56h-749v-643h811v-51h-862zM469 1743h80l123 -211h-51z" />
<glyph unicode="&#xc9;" horiz-adv-x="1171" d="M197 0v1450h862v-51h-811v-649h749v-56h-749v-643h811v-51h-862zM588 1540l112 244h80l-147 -244h-45z" />
<glyph unicode="&#xca;" horiz-adv-x="1171" d="M197 0v1450h862v-51h-811v-649h749v-56h-749v-643h811v-51h-862zM426 1534l180 209h76l180 -209h-49l-170 180l-166 -180h-51z" />
<glyph unicode="&#xcb;" horiz-adv-x="1171" d="M197 0v1450h862v-51h-811v-649h749v-56h-749v-643h811v-51h-862zM403 1597q0 20 15 35t35 15t34.5 -15t14.5 -35t-14.5 -34.5t-34.5 -14.5t-35 14.5t-15 34.5zM772 1597q0 20 14.5 35t34.5 15t34.5 -15t14.5 -35t-14.5 -34.5t-34.5 -14.5t-34.5 14.5t-14.5 34.5z" />
<glyph unicode="&#xcc;" horiz-adv-x="475" d="M63 1757h80l123 -211h-51zM199 0v1450h51v-1450h-51z" />
<glyph unicode="&#xcd;" horiz-adv-x="475" d="M180 1544l113 244h80l-148 -244h-45zM199 0v1450h51v-1450h-51z" />
<glyph unicode="&#xce;" horiz-adv-x="475" d="M6 1530l180 209h76l180 -209h-51l-168 178l-164 -178h-53zM199 0v1450h51v-1450h-51z" />
<glyph unicode="&#xcf;" horiz-adv-x="475" d="M-8 1649q0 20 14.5 34.5t34.5 14.5t34.5 -14.5t14.5 -34.5t-14.5 -35t-34.5 -15t-34.5 15t-14.5 35zM199 0v1450h51v-1450h-51zM360 1649q0 20 15 34.5t35 14.5t34.5 -14.5t14.5 -34.5t-14.5 -35t-34.5 -15t-35 15t-15 35z" />
<glyph unicode="&#xd0;" horiz-adv-x="1255" d="M53 696v45h129v709h449q97 0 186.5 -26t162 -75.5t116 -129.5t43.5 -179v-632q0 -98 -43.5 -177.5t-116 -129t-162 -75.5t-186.5 -26h-449v696h-129zM233 51h398q87 0 167.5 22.5t145.5 65.5t104 112.5t39 156.5v632q0 70 -25.5 130t-69.5 101.5t-102.5 70.5t-124 43 t-134.5 14h-398v-658h256v-45h-256v-645z" />
<glyph unicode="&#xd1;" horiz-adv-x="1411" d="M195 0v1450h79l863 -1401v1401h51v-1450h-88l-850 1384l-2 -1384h-53zM471 1559q14 42 50 66t77 24q35 0 99.5 -32t99.5 -32q56 0 88 49l33 -10q-18 -36 -53 -64t-66 -28q-36 0 -105.5 33.5t-105.5 33.5q-52 0 -86 -55z" />
<glyph unicode="&#xd2;" horiz-adv-x="1396" d="M158 401v650q0 98 46 178t122.5 129t171.5 75.5t198 26.5q82 0 160 -16t147 -50t121 -81.5t82.5 -115t30.5 -146.5v-650q0 -98 -46 -178t-123.5 -130t-173 -76.5t-198.5 -26.5t-198 26.5t-171.5 76.5t-122.5 130t-46 178zM209 401q0 -116 71.5 -199.5t179.5 -122 t236 -38.5q94 0 180 23t155.5 66t111.5 113.5t43 157.5v650q0 92 -42 163t-113 113t-156.5 63t-180.5 21q-95 -1 -179.5 -22.5t-154 -64t-110.5 -113t-41 -160.5v-650zM555 1749h80l123 -211h-51z" />
<glyph unicode="&#xd3;" horiz-adv-x="1396" d="M158 401v650q0 98 46 178t122.5 129t171.5 75.5t198 26.5q82 0 160 -16t147 -50t121 -81.5t82.5 -115t30.5 -146.5v-650q0 -98 -46 -178t-123.5 -130t-173 -76.5t-198.5 -26.5t-198 26.5t-171.5 76.5t-122.5 130t-46 178zM209 401q0 -116 71.5 -199.5t179.5 -122 t236 -38.5q94 0 180 23t155.5 66t111.5 113.5t43 157.5v650q0 92 -42 163t-113 113t-156.5 63t-180.5 21q-95 -1 -179.5 -22.5t-154 -64t-110.5 -113t-41 -160.5v-650zM659 1546l113 244h80l-147 -244h-46z" />
<glyph unicode="&#xd4;" horiz-adv-x="1396" d="M158 401v650q0 98 46 178t122.5 129t171.5 75.5t198 26.5q82 0 160 -16t147 -50t121 -81.5t82.5 -115t30.5 -146.5v-650q0 -98 -46 -178t-123.5 -130t-173 -76.5t-198.5 -26.5t-198 26.5t-171.5 76.5t-122.5 130t-46 178zM209 401q0 -116 71.5 -199.5t179.5 -122 t236 -38.5q94 0 180 23t155.5 66t111.5 113.5t43 157.5v650q0 92 -42 163t-113 113t-156.5 63t-180.5 21q-95 -1 -179.5 -22.5t-154 -64t-110.5 -113t-41 -160.5v-650zM477 1534l185 180h75l183 -180h-48l-174 158l-170 -158h-51z" />
<glyph unicode="&#xd5;" horiz-adv-x="1396" d="M158 401v650q0 98 46 178t122.5 129t171.5 75.5t198 26.5q82 0 160 -16t147 -50t121 -81.5t82.5 -115t30.5 -146.5v-650q0 -98 -46 -178t-123.5 -130t-173 -76.5t-198.5 -26.5t-198 26.5t-171.5 76.5t-122.5 130t-46 178zM209 401q0 -116 71.5 -199.5t179.5 -122 t236 -38.5q94 0 180 23t155.5 66t111.5 113.5t43 157.5v650q0 92 -42 163t-113 113t-156.5 63t-180.5 21q-95 -1 -179.5 -22.5t-154 -64t-110.5 -113t-41 -160.5v-650zM494 1577q13 37 46 57.5t70 20.5q33 0 92.5 -28t92.5 -28q51 0 79 43l31 -10q-15 -31 -47 -54.5 t-61 -23.5q-34 0 -98 29t-97 29q-50 0 -80 -47z" />
<glyph unicode="&#xd6;" horiz-adv-x="1396" d="M158 401v650q0 98 46 178t122.5 129t171.5 75.5t198 26.5q82 0 160 -16t147 -50t121 -81.5t82.5 -115t30.5 -146.5v-650q0 -98 -46 -178t-123.5 -130t-173 -76.5t-198.5 -26.5t-198 26.5t-171.5 76.5t-122.5 130t-46 178zM209 401q0 -116 71.5 -199.5t179.5 -122 t236 -38.5q94 0 180 23t155.5 66t111.5 113.5t43 157.5v650q0 92 -42 163t-113 113t-156.5 63t-180.5 21q-95 -1 -179.5 -22.5t-154 -64t-110.5 -113t-41 -160.5v-650zM465 1589q0 20 14.5 34.5t34.5 14.5t34.5 -14.5t14.5 -34.5t-14.5 -34.5t-34.5 -14.5t-34.5 14.5 t-14.5 34.5zM834 1589q0 20 14.5 34.5t34.5 14.5t34.5 -14.5t14.5 -34.5t-14.5 -34.5t-34.5 -14.5t-34.5 14.5t-14.5 34.5z" />
<glyph unicode="&#xd7;" horiz-adv-x="1120" d="M186 1026l35 33l334 -334l326 326l34 -33l-327 -326l321 -321l-32 -35l-322 321l-330 -329l-32 34l327 328z" />
<glyph unicode="&#xd8;" horiz-adv-x="1396" d="M158 408v636q0 98 46 178t122.5 129.5t171.5 76t198 26.5q138 0 252 -43q11 25 31.5 75.5t28.5 69.5q28 -8 39 -14l-60 -145q114 -59 182 -149t68 -204v-636q0 -79 -30.5 -147t-82.5 -116t-121 -82t-147 -50.5t-160 -16.5q-98 0 -245 43q-9 -25 -31.5 -78.5t-30.5 -73.5 l-29 9q-6 0 -10 2l60 155q-117 59 -184.5 148t-67.5 207zM207 408q0 -186 223 -312l500 1274q-45 17 -91.5 25.5t-69 9t-75.5 0.5q-95 -1 -180 -23t-154.5 -64t-111 -113t-41.5 -161v-636zM469 84q139 -39 227 -39q93 0 179.5 23t157 67t113.5 115t44 158v636 q0 185 -221 310z" />
<glyph unicode="&#xd9;" horiz-adv-x="1400" d="M190 408v1042h52v-1042q0 -89 39 -161t103.5 -116.5t145 -68t168.5 -23.5q87 0 168 23.5t146.5 68t105 116.5t39.5 161v1042h51v-1042q0 -100 -43.5 -181t-116.5 -132t-163 -78t-187 -27t-187 27t-162 78t-115.5 132t-43.5 181zM561 1751h80l123 -211h-51z" />
<glyph unicode="&#xda;" horiz-adv-x="1400" d="M190 408v1042h52v-1042q0 -89 39 -161t103.5 -116.5t145 -68t168.5 -23.5q87 0 168 23.5t146.5 68t105 116.5t39.5 161v1042h51v-1042q0 -100 -43.5 -181t-116.5 -132t-163 -78t-187 -27t-187 27t-162 78t-115.5 132t-43.5 181zM633 1542l112 244h80l-147 -244h-45z" />
<glyph unicode="&#xdb;" horiz-adv-x="1400" d="M190 408v1042h52v-1042q0 -89 39 -161t103.5 -116.5t145 -68t168.5 -23.5q87 0 168 23.5t146.5 68t105 116.5t39.5 161v1042h51v-1042q0 -100 -43.5 -181t-116.5 -132t-163 -78t-187 -27t-187 27t-162 78t-115.5 132t-43.5 181zM481 1542l181 209h75l181 -209h-48 l-172 182l-168 -182h-49z" />
<glyph unicode="&#xdc;" horiz-adv-x="1400" d="M190 408v1042h52v-1042q0 -89 39 -161t103.5 -116.5t145 -68t168.5 -23.5q87 0 168 23.5t146.5 68t105 116.5t39.5 161v1042h51v-1042q0 -100 -43.5 -181t-116.5 -132t-163 -78t-187 -27t-187 27t-162 78t-115.5 132t-43.5 181zM463 1587q0 20 14.5 34.5t34.5 14.5 t34.5 -14.5t14.5 -34.5t-14.5 -34.5t-34.5 -14.5t-34.5 14.5t-14.5 34.5zM831 1587q0 20 15 34.5t35 14.5t34.5 -14.5t14.5 -34.5t-14.5 -34.5t-34.5 -14.5t-35 14.5t-15 34.5z" />
<glyph unicode="&#xdd;" horiz-adv-x="1167" d="M55 1450h62l461 -817l475 817h63l-514 -875v-575h-51v575zM537 1522l112 243h80l-147 -243h-45z" />
<glyph unicode="&#xde;" horiz-adv-x="1073" d="M172 0v1450h51v-309q150 20 228 20q259 0 397.5 -107.5t138.5 -305.5q0 -90 -32 -161.5t-85.5 -117t-127 -75.5t-151.5 -42t-165 -12h-84q8 49 8 51h70q77 0 145 8.5t138 33t120 63t81.5 103t31.5 149.5q0 86 -31.5 152t-80.5 104.5t-117 62.5t-131.5 32.5t-133.5 8.5 q-121 0 -219 -18v-1090h-51z" />
<glyph unicode="&#xdf;" horiz-adv-x="1157" d="M160 0v1120q0 110 62 193.5t157 124.5t203 41q109 0 203.5 -37.5t157.5 -118.5t63 -190q0 -50 -9.5 -94.5t-32 -90.5t-65.5 -83t-104 -60q81 -25 137 -65t86 -92t42.5 -106t12.5 -118q-2 -99 -46 -181t-115 -135t-160 -81.5t-183 -26.5q-103 3 -211 49q0 6 1 21t1 32 q118 -46 207 -49q85 -2 166 23.5t145 72t103 119t39 158.5q0 176 -110 264t-289 86h-238v45h238q143 0 238 81.5t95 230.5q0 78 -32.5 137.5t-87 93.5t-118 51t-134.5 17q-70 0 -134.5 -19t-119 -55.5t-87 -98t-32.5 -139.5v-1120h-49z" />
<glyph unicode="&#xe0;" d="M127 315q1 107 56 183.5t138.5 111.5t184.5 35q164 0 311 -65v194q0 66 -26 116t-71.5 79.5t-101 44t-120.5 14.5q-86 0 -147.5 -20.5t-123.5 -75.5l-26 29q104 107 299 110q149 3 254.5 -74.5t105.5 -222.5v-737q-183 -58 -397 -55q-143 2 -239.5 93.5t-96.5 239.5z M172 315q0 -138 82.5 -215.5t214.5 -79.5q157 -3 317 37l31 11v471q-158 65 -315 65q-66 0 -124 -17t-104.5 -51t-73.5 -90.5t-28 -130.5zM365 1350h79l119 -211h-47z" />
<glyph unicode="&#xe1;" d="M127 315q1 107 56 183.5t138.5 111.5t184.5 35q164 0 311 -65v194q0 66 -26 116t-71.5 79.5t-101 44t-120.5 14.5q-86 0 -147.5 -20.5t-123.5 -75.5l-26 29q104 107 299 110q149 3 254.5 -74.5t105.5 -222.5v-737q-183 -58 -397 -55q-143 2 -239.5 93.5t-96.5 239.5z M172 315q0 -138 82.5 -215.5t214.5 -79.5q157 -3 317 37l31 11v471q-158 65 -315 65q-66 0 -124 -17t-104.5 -51t-73.5 -90.5t-28 -130.5zM483 1133l109 237h78l-144 -237h-43z" />
<glyph unicode="&#xe2;" d="M127 315q1 107 56 183.5t138.5 111.5t184.5 35q164 0 311 -65v194q0 66 -26 116t-71.5 79.5t-101 44t-120.5 14.5q-86 0 -147.5 -20.5t-123.5 -75.5l-26 29q104 107 299 110q149 3 254.5 -74.5t105.5 -222.5v-737q-183 -58 -397 -55q-143 2 -239.5 93.5t-96.5 239.5z M172 315q0 -138 82.5 -215.5t214.5 -79.5q157 -3 317 37l31 11v471q-158 65 -315 65q-66 0 -124 -17t-104.5 -51t-73.5 -90.5t-28 -130.5zM303 1157l180 209h76l180 -209h-47l-172 182l-168 -182h-49z" />
<glyph unicode="&#xe3;" d="M127 315q1 107 56 183.5t138.5 111.5t184.5 35q164 0 311 -65v194q0 66 -26 116t-71.5 79.5t-101 44t-120.5 14.5q-86 0 -147.5 -20.5t-123.5 -75.5l-26 29q104 107 299 110q149 3 254.5 -74.5t105.5 -222.5v-737q-183 -58 -397 -55q-143 2 -239.5 93.5t-96.5 239.5z M172 315q0 -138 82.5 -215.5t214.5 -79.5q157 -3 317 37l31 11v471q-158 65 -315 65q-66 0 -124 -17t-104.5 -51t-73.5 -90.5t-28 -130.5zM334 1190q13 35 42.5 54.5t63.5 19.5q28 0 82 -25t84 -25q48 0 72 39l27 -10q-12 -28 -42.5 -51t-56.5 -23q-30 0 -87 28t-87 28 q-46 0 -72 -45z" />
<glyph unicode="&#xe4;" d="M127 315q1 107 56 183.5t138.5 111.5t184.5 35q164 0 311 -65v194q0 66 -26 116t-71.5 79.5t-101 44t-120.5 14.5q-86 0 -147.5 -20.5t-123.5 -75.5l-26 29q104 107 299 110q149 3 254.5 -74.5t105.5 -222.5v-737q-183 -58 -397 -55q-143 2 -239.5 93.5t-96.5 239.5z M172 315q0 -138 82.5 -215.5t214.5 -79.5q157 -3 317 37l31 11v471q-158 65 -315 65q-66 0 -124 -17t-104.5 -51t-73.5 -90.5t-28 -130.5zM297 1231q0 20 14.5 34.5t34.5 14.5t34.5 -14.5t14.5 -34.5t-14.5 -34.5t-34.5 -14.5t-34.5 14.5t-14.5 34.5zM666 1231 q0 20 14.5 34.5t34.5 14.5t34.5 -14.5t14.5 -34.5t-14.5 -34.5t-34.5 -14.5t-34.5 14.5t-14.5 34.5z" />
<glyph unicode="&#xe5;" d="M127 315q1 107 56 183.5t138.5 111.5t184.5 35q164 0 311 -65v194q0 66 -26 116t-71.5 79.5t-101 44t-120.5 14.5q-86 0 -147.5 -20.5t-123.5 -75.5l-26 29q104 107 299 110q149 3 254.5 -74.5t105.5 -222.5v-737q-183 -58 -397 -55q-143 2 -239.5 93.5t-96.5 239.5z M172 315q0 -138 82.5 -215.5t214.5 -79.5q157 -3 317 37l31 11v471q-158 65 -315 65q-66 0 -124 -17t-104.5 -51t-73.5 -90.5t-28 -130.5zM377 1298q0 72 43 112t108 40q63 0 104.5 -46t41.5 -108q0 -58 -43.5 -103.5t-102.5 -45.5q-63 0 -107 42t-44 109zM422 1296 q0 -45 30 -76.5t74 -31.5t75.5 33.5t31.5 76.5q0 45 -31.5 79t-75.5 34q-46 0 -75 -31t-29 -84z" />
<glyph unicode="&#xe6;" horiz-adv-x="1683" d="M125 328q1 85 32.5 149.5t86 101t120.5 54.5t142 18q164 0 311 -65v184q-1 63 -29.5 112t-74.5 78.5t-102 44.5t-117 15q-151 0 -265 -100l-30 32q113 113 299 113q110 0 204.5 -48t139.5 -140q46 93 139.5 136.5t202.5 43.5q95 0 176 -32.5t135.5 -105t54.5 -174.5v-251 h-686v-183q-1 -87 45.5 -148t117 -87.5t157.5 -26.5q91 0 167 32t117 97q11 -4 23 -11t20 -11q-44 -76 -132.5 -115t-194.5 -39q-97 0 -183.5 39t-140.5 113q-78 -78 -185.5 -121t-211.5 -41q-145 2 -241.5 91.5t-96.5 244.5zM174 328q0 -138 81.5 -214.5t213.5 -78.5 q87 -2 194.5 41.5t174.5 113.5q-21 58 -21 121v228q-163 67 -315 67q-68 0 -124 -14.5t-103 -45.5t-73.5 -86.5t-27.5 -131.5zM864 537h641v213q0 64 -27.5 115.5t-73.5 82.5t-102 47.5t-118 16.5q-135 0 -228 -68t-92 -194v-213z" />
<glyph unicode="&#xe7;" horiz-adv-x="888" d="M117 295v465q0 99 54.5 171t135.5 105t176 33q98 0 181.5 -34.5t132.5 -102.5l-35 -23q-83 115 -279 115q-85 0 -155.5 -27t-118 -87.5t-47.5 -145.5v-469q0 -87 47.5 -148.5t118 -88.5t155.5 -27q96 0 178 39t119 112q11 -4 23.5 -10.5t19.5 -9.5q-44 -82 -134.5 -128 t-196.5 -48l-39 -60q126 13 171.5 -53t-6.5 -135t-159 -64q-67 3 -117 29l4 25q48 -19 113 -19q83 0 121.5 47.5t6 95.5t-121.5 48l-76 -9l66 97q-140 8 -239 88t-99 219z" />
<glyph unicode="&#xe8;" horiz-adv-x="1005" d="M137 301v461q0 99 55 171t136.5 105t177.5 33q95 0 176 -33t135.5 -105t54.5 -171v-273h-688v-188q-1 -128 92.5 -195t229.5 -67q92 0 169 32.5t118 96.5q11 -4 22 -11.5t19 -11.5q-44 -76 -133 -114.5t-195 -38.5q-96 0 -177.5 33t-136.5 105t-55 171zM184 532h643v230 v4q0 64 -27.5 115.5t-73.5 82.5t-102 47.5t-118 16.5q-135 0 -229 -68t-93 -194v-234zM352 1364h80l123 -211h-51z" />
<glyph unicode="&#xe9;" horiz-adv-x="1005" d="M137 301v461q0 99 55 171t136.5 105t177.5 33q95 0 176 -33t135.5 -105t54.5 -171v-273h-688v-188q-1 -128 92.5 -195t229.5 -67q92 0 169 32.5t118 96.5q11 -4 22 -11.5t19 -11.5q-44 -76 -133 -114.5t-195 -38.5q-96 0 -177.5 33t-136.5 105t-55 171zM184 532h643v230 v4q0 64 -27.5 115.5t-73.5 82.5t-102 47.5t-118 16.5q-135 0 -229 -68t-93 -194v-234zM465 1141l113 243h79l-147 -243h-45z" />
<glyph unicode="&#xea;" horiz-adv-x="1005" d="M137 301v461q0 99 55 171t136.5 105t177.5 33q95 0 176 -33t135.5 -105t54.5 -171v-273h-688v-188q-1 -128 92.5 -195t229.5 -67q92 0 169 32.5t118 96.5q11 -4 22 -11.5t19 -11.5q-44 -76 -133 -114.5t-195 -38.5q-96 0 -177.5 33t-136.5 105t-55 171zM184 532h643v230 v4q0 64 -27.5 115.5t-73.5 82.5t-102 47.5t-118 16.5q-135 0 -229 -68t-93 -194v-234zM293 1126l180 209h76l180 -209h-47l-172 183l-168 -183h-49z" />
<glyph unicode="&#xeb;" horiz-adv-x="1005" d="M137 301v461q0 99 55 171t136.5 105t177.5 33q95 0 176 -33t135.5 -105t54.5 -171v-273h-688v-188q-1 -128 92.5 -195t229.5 -67q92 0 169 32.5t118 96.5q11 -4 22 -11.5t19 -11.5q-44 -76 -133 -114.5t-195 -38.5q-96 0 -177.5 33t-136.5 105t-55 171zM184 532h643v230 v4q0 64 -27.5 115.5t-73.5 82.5t-102 47.5t-118 16.5q-135 0 -229 -68t-93 -194v-234zM283 1204q0 20 14.5 34.5t34.5 14.5t34.5 -14.5t14.5 -34.5t-14.5 -34.5t-34.5 -14.5t-34.5 14.5t-14.5 34.5zM651 1204q0 20 14.5 34.5t34.5 14.5t35 -14.5t15 -34.5t-15 -34.5 t-35 -14.5t-34.5 14.5t-14.5 34.5z" />
<glyph unicode="&#xec;" horiz-adv-x="452" d="M59 1434h80l123 -211h-51zM197 0v1061h51v-1061h-51z" />
<glyph unicode="&#xed;" horiz-adv-x="452" d="M197 0v1061h53v-1061h-53zM199 1194l112 244h80l-147 -244h-45z" />
<glyph unicode="&#xee;" horiz-adv-x="491" d="M66 1219l157 196h68l155 -196h-40l-154 167q-5 -6 -141 -167h-45zM215 0v1061h51v-1061h-51z" />
<glyph unicode="&#xef;" horiz-adv-x="489" d="M66 1321q0 21 14 36t37 15q19 0 34 -15.5t15 -35.5q0 -21 -15 -36t-34 -15q-23 0 -37 14.5t-14 36.5zM219 0v1059h47v-1059h-47zM332 1321q0 21 14 36t35 15t36 -15t15 -36q0 -22 -14.5 -36.5t-36.5 -14.5t-35.5 14.5t-13.5 36.5z" />
<glyph unicode="&#xf0;" horiz-adv-x="1064" d="M162 285v354q0 96 53.5 169.5t135.5 109t175 34.5q157 0 320 -78v265q0 93 -62.5 157t-165.5 97q-8 -30 -27.5 -91t-23.5 -75q-31 9 -32 10l51 162q-213 31 -326 -90l-33 30q65 68 167 94.5t206 8.5q7 23 24 71t19 54l35 -11l-45 -120q114 -34 185 -111t71 -186v-1104 q-209 -64 -371 -64q-92 1 -171.5 36.5t-132 108.5t-52.5 169zM209 285q0 -126 91 -195.5t220 -69.5q87 0 176.5 16t149.5 42v747q-175 76 -324 76q-60 -1 -115 -17t-100 -47t-71.5 -81.5t-26.5 -114.5v-356z" />
<glyph unicode="&#xf1;" horiz-adv-x="1089" d="M178 0v1014q177 63 373 63q69 -2 131.5 -20.5t114 -54.5t82 -96t30.5 -138v-768h-45v768q0 86 -47.5 147t-116.5 88t-149 27q-88 0 -179 -15t-149 -40v-975h-45zM340 1202q13 38 46 59t71 21q33 0 92 -27.5t92 -27.5q52 0 80 43l31 -10q-15 -31 -47.5 -55.5t-61.5 -24.5 q-34 0 -97.5 29.5t-96.5 29.5q-50 0 -80 -49z" />
<glyph unicode="&#xf2;" horiz-adv-x="1030" d="M147 297v469q0 75 31.5 135.5t84.5 97.5t117.5 57t135.5 21q70 -1 134.5 -21t117 -57t84 -97.5t31.5 -135.5v-469q0 -75 -31.5 -135.5t-84 -97.5t-117 -57t-134.5 -21q-71 1 -135.5 21t-117.5 57t-84.5 97.5t-31.5 135.5zM193 297q0 -67 28 -119.5t75 -83.5t103 -47 t117 -16q60 0 115.5 16t102.5 47t75.5 83.5t28.5 119.5v469q0 67 -28.5 119.5t-75.5 83t-102.5 46t-115.5 15.5q-48 0 -93.5 -9.5t-87.5 -30t-73.5 -51t-50 -75t-18.5 -98.5v-469zM373 1376h80l122 -211h-51z" />
<glyph unicode="&#xf3;" horiz-adv-x="1030" d="M147 297v469q0 75 31.5 135.5t84.5 97.5t117.5 57t135.5 21q70 -1 134.5 -21t117 -57t84 -97.5t31.5 -135.5v-469q0 -75 -31.5 -135.5t-84 -97.5t-117 -57t-134.5 -21q-71 1 -135.5 21t-117.5 57t-84.5 97.5t-31.5 135.5zM193 297q0 -67 28 -119.5t75 -83.5t103 -47 t117 -16q60 0 115.5 16t102.5 47t75.5 83.5t28.5 119.5v469q0 67 -28.5 119.5t-75.5 83t-102.5 46t-115.5 15.5q-48 0 -93.5 -9.5t-87.5 -30t-73.5 -51t-50 -75t-18.5 -98.5v-469zM483 1153l113 244h80l-148 -244h-45z" />
<glyph unicode="&#xf4;" horiz-adv-x="1030" d="M147 297v469q0 75 31.5 135.5t84.5 97.5t117.5 57t135.5 21q70 -1 134.5 -21t117 -57t84 -97.5t31.5 -135.5v-469q0 -75 -31.5 -135.5t-84 -97.5t-117 -57t-134.5 -21q-71 1 -135.5 21t-117.5 57t-84.5 97.5t-31.5 135.5zM193 297q0 -67 28 -119.5t75 -83.5t103 -47 t117 -16q60 0 115.5 16t102.5 47t75.5 83.5t28.5 119.5v469q0 67 -28.5 119.5t-75.5 83t-102.5 46t-115.5 15.5q-48 0 -93.5 -9.5t-87.5 -30t-73.5 -51t-50 -75t-18.5 -98.5v-469zM301 1149l178 190h76l180 -190h-47l-172 166l-166 -166h-49z" />
<glyph unicode="&#xf5;" horiz-adv-x="1030" d="M147 297v469q0 75 31.5 135.5t84.5 97.5t117.5 57t135.5 21q70 -1 134.5 -21t117 -57t84 -97.5t31.5 -135.5v-469q0 -75 -31.5 -135.5t-84 -97.5t-117 -57t-134.5 -21q-71 1 -135.5 21t-117.5 57t-84.5 97.5t-31.5 135.5zM193 297q0 -67 28 -119.5t75 -83.5t103 -47 t117 -16q60 0 115.5 16t102.5 47t75.5 83.5t28.5 119.5v469q0 67 -28.5 119.5t-75.5 83t-102.5 46t-115.5 15.5q-48 0 -93.5 -9.5t-87.5 -30t-73.5 -51t-50 -75t-18.5 -98.5v-469zM311 1225q13 39 45 60.5t68 21.5q30 0 87 -28t87 -28q50 0 78 43l26 -10q-14 -31 -44 -54.5 t-58 -23.5q-32 0 -92 29t-92 29q-46 0 -76 -52z" />
<glyph unicode="&#xf6;" horiz-adv-x="1030" d="M147 297v469q0 75 31.5 135.5t84.5 97.5t117.5 57t135.5 21q70 -1 134.5 -21t117 -57t84 -97.5t31.5 -135.5v-469q0 -75 -31.5 -135.5t-84 -97.5t-117 -57t-134.5 -21q-71 1 -135.5 21t-117.5 57t-84.5 97.5t-31.5 135.5zM193 297q0 -67 28 -119.5t75 -83.5t103 -47 t117 -16q60 0 115.5 16t102.5 47t75.5 83.5t28.5 119.5v469q0 67 -28.5 119.5t-75.5 83t-102.5 46t-115.5 15.5q-48 0 -93.5 -9.5t-87.5 -30t-73.5 -51t-50 -75t-18.5 -98.5v-469zM285 1237q0 20 14.5 34.5t34.5 14.5t34.5 -14.5t14.5 -34.5t-14.5 -34.5t-34.5 -14.5 t-34.5 14.5t-14.5 34.5zM653 1237q0 20 14.5 34.5t34.5 14.5t35 -14.5t15 -34.5t-15 -34.5t-35 -14.5t-34.5 14.5t-14.5 34.5z" />
<glyph unicode="&#xf7;" horiz-adv-x="1081" d="M113 655v50h858v-50h-858zM487 356q0 27 17.5 43.5t44.5 18.5q26 0 43.5 -18t17.5 -44t-17.5 -43.5t-43.5 -17.5t-44 17.5t-18 43.5zM487 981q0 27 17.5 43t44.5 18q26 0 43.5 -17.5t17.5 -43.5t-17.5 -43.5t-43.5 -17.5t-44 17.5t-18 43.5z" />
<glyph unicode="&#xf8;" horiz-adv-x="1019" d="M147 297v467q0 75 31.5 135.5t84.5 97.5t117.5 57t135.5 21q81 -3 172 -35q43 113 60 154q9 -5 24.5 -7t18.5 -3l-64 -156q156 -98 156 -264v-467q0 -75 -31.5 -135.5t-84 -97.5t-117 -57t-134.5 -21q-97 4 -178 32q-7 -19 -29 -68t-30 -69l-37 13l61 141 q-156 101 -156 262zM193 297q0 -121 124 -223l353 927q-100 27 -154 27q-48 0 -93.5 -9.5t-87.5 -30t-73.5 -51t-50 -75t-18.5 -98.5v-467zM356 59q95 -28 160 -28q60 0 115.5 16t102.5 47t75.5 83.5t28.5 119.5v467q0 122 -129 223z" />
<glyph unicode="&#xf9;" horiz-adv-x="1058" d="M166 295v768h45v-768q0 -83 49 -145t118.5 -90.5t145.5 -28.5q84 0 176 16.5t152 42.5v973h45v-1012q-183 -65 -373 -65q-69 2 -132 22t-114 57.5t-81.5 97t-30.5 132.5zM383 1366h80l119 -211h-47z" />
<glyph unicode="&#xfa;" horiz-adv-x="1058" d="M166 295v768h45v-768q0 -83 49 -145t118.5 -90.5t145.5 -28.5q84 0 176 16.5t152 42.5v973h45v-1012q-183 -65 -373 -65q-69 2 -132 22t-114 57.5t-81.5 97t-30.5 132.5zM477 1147l113 244h80l-148 -244h-45z" />
<glyph unicode="&#xfb;" horiz-adv-x="1058" d="M166 295v768h45v-768q0 -83 49 -145t118.5 -90.5t145.5 -28.5q84 0 176 16.5t152 42.5v973h45v-1012q-183 -65 -373 -65q-69 2 -132 22t-114 57.5t-81.5 97t-30.5 132.5zM311 1153l181 209h75l181 -209h-48l-172 182l-168 -182h-49z" />
<glyph unicode="&#xfc;" horiz-adv-x="1058" d="M166 295v768h45v-768q0 -83 49 -145t118.5 -90.5t145.5 -28.5q84 0 176 16.5t152 42.5v973h45v-1012q-183 -65 -373 -65q-69 2 -132 22t-114 57.5t-81.5 97t-30.5 132.5zM299 1262q0 20 14.5 34.5t34.5 14.5t34.5 -14.5t14.5 -34.5t-14.5 -35t-34.5 -15t-34.5 15 t-14.5 35zM668 1262q0 20 14.5 34.5t34.5 14.5t34.5 -14.5t14.5 -34.5t-14.5 -35t-34.5 -15t-34.5 15t-14.5 35z" />
<glyph unicode="&#xfd;" horiz-adv-x="1062" d="M162 297v764h47v-764q-1 -122 92.5 -191.5t224.5 -72.5q54 1 107 12.5t88.5 24.5t105.5 41l21 14v936h45v-1108q0 -75 -30.5 -133.5t-82.5 -94t-115 -53.5t-133 -18q-188 0 -301 98l33 35q67 -49 126.5 -68.5t144.5 -19.5q77 0 146 26t118 85.5t49 140.5v121 q-168 -82 -318 -82q-95 -1 -177 33t-136.5 106t-54.5 168zM471 1147l113 244h80l-148 -244h-45z" />
<glyph unicode="&#xfe;" horiz-adv-x="1056" d="M174 -367v1815h47v-414q179 45 330 45q69 -1 133 -22t115.5 -59t82.5 -99t31 -135v-469q0 -97 -54 -171t-137 -109.5t-177 -34.5q-183 4 -324 69v-416h-47zM221 98q93 -40 166.5 -55.5t161.5 -15.5q131 2 224.5 71t92.5 193v473q1 128 -90.5 197t-224.5 69 q-196 0 -330 -47v-885z" />
<glyph unicode="&#xff;" horiz-adv-x="1062" d="M162 297v764h47v-764q-1 -122 92.5 -191.5t224.5 -72.5q54 1 107 12.5t88.5 24.5t105.5 41l21 14v936h45v-1108q0 -75 -30.5 -133.5t-82.5 -94t-115 -53.5t-133 -18q-188 0 -301 98l33 35q67 -49 126.5 -68.5t144.5 -19.5q77 0 146 26t118 85.5t49 140.5v121 q-168 -82 -318 -82q-95 -1 -177 33t-136.5 106t-54.5 168zM297 1274q0 20 14.5 34.5t34.5 14.5t34.5 -14.5t14.5 -34.5t-14.5 -34.5t-34.5 -14.5t-34.5 14.5t-14.5 34.5zM666 1274q0 20 14.5 34.5t34.5 14.5t34.5 -14.5t14.5 -34.5t-14.5 -34.5t-34.5 -14.5t-34.5 14.5 t-14.5 34.5z" />
<glyph unicode="&#x152;" horiz-adv-x="1886" d="M139 420v618q0 79 30 146.5t81.5 115.5t119.5 82.5t145.5 51.5t158.5 18q68 0 156.5 -27t162.5 -77v102h797v-47h-748v-655h684v-50h-684v-649h748v-49h-797v90q-201 -105 -329 -102q-100 2 -193.5 32.5t-167.5 84.5t-119 136.5t-45 178.5zM190 420q0 -71 27 -132.5 t74 -106.5t108.5 -77.5t132 -48.5t144.5 -16q128 0 317 100v1174q-174 91 -317 88q-75 0 -144.5 -13.5t-132 -42.5t-109 -71t-73.5 -102.5t-27 -133.5v-618z" />
<glyph unicode="&#x153;" horiz-adv-x="1701" d="M147 297v469q0 75 31.5 135.5t84.5 97.5t117.5 57t135.5 21q114 -2 209.5 -52t134.5 -142q40 90 135 139t209 49q70 0 134.5 -19.5t117 -57t84 -97.5t31.5 -135v-273h-688v-192v-10q2 -62 29.5 -111t73 -78t101 -44t117.5 -15q92 0 169 32.5t118 96.5q11 -4 22 -11.5 t19 -11.5q-44 -76 -133 -114.5t-195 -38.5q-115 0 -209.5 48.5t-134.5 139.5q-39 -92 -134.5 -142t-209.5 -52q-71 1 -135.5 21t-117.5 57t-84.5 97.5t-31.5 135.5zM193 297q0 -67 28 -119.5t75 -83.5t103 -47t117 -16q121 0 215.5 61t104.5 178v523q-7 80 -57.5 135.5 t-118 78.5t-144.5 23q-48 0 -93.5 -9.5t-87.5 -30t-73.5 -51t-50 -75t-18.5 -98.5v-469zM883 532h643v234q0 85 -48 146t-119 88.5t-155 27.5t-154 -26t-117 -84.5t-50 -139.5v-12v-234z" />
<glyph unicode="&#x178;" horiz-adv-x="1167" d="M55 1450h62l461 -817l475 817h63l-514 -875v-575h-51v575zM344 1589q0 20 14.5 34.5t34.5 14.5t34.5 -14.5t14.5 -34.5t-14.5 -34.5t-34.5 -14.5t-34.5 14.5t-14.5 34.5zM713 1589q0 20 14.5 34.5t34.5 14.5t34.5 -14.5t14.5 -34.5t-14.5 -34.5t-34.5 -14.5t-34.5 14.5 t-14.5 34.5z" />
<glyph unicode="&#x2c6;" horiz-adv-x="573" d="M61 1241l181 209h75l181 -209h-47l-172 182l-168 -182h-50z" />
<glyph unicode="&#x2dc;" horiz-adv-x="555" d="M53 1370q14 38 49.5 59t75.5 21q34 0 96.5 -27.5t96.5 -27.5q54 0 86 43l30 -11q-15 -31 -49.5 -55t-64.5 -24q-35 0 -102.5 29.5t-102.5 29.5q-50 0 -84 -49z" />
<glyph unicode="&#x2000;" horiz-adv-x="912" />
<glyph unicode="&#x2001;" horiz-adv-x="1825" />
<glyph unicode="&#x2002;" horiz-adv-x="912" />
<glyph unicode="&#x2003;" horiz-adv-x="1825" />
<glyph unicode="&#x2004;" horiz-adv-x="608" />
<glyph unicode="&#x2005;" horiz-adv-x="456" />
<glyph unicode="&#x2006;" horiz-adv-x="304" />
<glyph unicode="&#x2007;" horiz-adv-x="304" />
<glyph unicode="&#x2008;" horiz-adv-x="228" />
<glyph unicode="&#x2009;" horiz-adv-x="365" />
<glyph unicode="&#x200a;" horiz-adv-x="101" />
<glyph unicode="&#x2010;" horiz-adv-x="735" d="M92 590v49h551v-49h-551z" />
<glyph unicode="&#x2011;" horiz-adv-x="735" d="M92 590v49h551v-49h-551z" />
<glyph unicode="&#x2012;" horiz-adv-x="735" d="M92 590v49h551v-49h-551z" />
<glyph unicode="&#x2013;" horiz-adv-x="1024" d="M74 590v47h880v-47h-880z" />
<glyph unicode="&#x2014;" horiz-adv-x="1884" d="M31 561v105h1822v-105h-1822zM45 575h1794v76h-1794v-76zM59 590h1766v47h-1766v-47z" />
<glyph unicode="&#x2018;" horiz-adv-x="425" d="M141 1090l113 360h51l-92 -360h-72z" />
<glyph unicode="&#x2019;" horiz-adv-x="466" d="M152 1087l98 363h76l-129 -363h-45z" />
<glyph unicode="&#x201a;" horiz-adv-x="485" d="M109 -248l106 316h78l-137 -316h-47z" />
<glyph unicode="&#x201c;" horiz-adv-x="663" d="M147 1090q22 68 63.5 188t59.5 174h47l-96 -362h-74zM375 1090q22 68 63.5 188t59.5 174h47l-96 -362h-74z" />
<glyph unicode="&#x201d;" horiz-adv-x="727" d="M172 1075l80 375h72q-17 -57 -53 -184t-56 -191h-43zM401 1075l80 375h72q-17 -57 -53 -184t-56 -191h-43z" />
<glyph unicode="&#x201e;" horiz-adv-x="749" d="M119 -248l106 318h76l-135 -318h-47zM377 -248l106 318h84l-143 -318h-47z" />
<glyph unicode="&#x2022;" horiz-adv-x="739" d="M162 725q0 77 55 131.5t131 54.5q77 0 132 -55t55 -131t-55 -131t-132 -55q-76 0 -131 54.5t-55 131.5z" />
<glyph unicode="&#x2026;" horiz-adv-x="1374" d="M209 59q0 26 18.5 45t44.5 19t45 -19t19 -45t-19 -44.5t-45 -18.5t-44.5 18.5t-18.5 44.5zM606 61q0 26 19 45t45 19t44.5 -19t18.5 -45t-18.5 -44.5t-44.5 -18.5t-45 18.5t-19 44.5zM1014 66q0 26 18.5 44.5t44.5 18.5t45 -18.5t19 -44.5t-19 -45t-45 -19t-44.5 19 t-18.5 45z" />
<glyph unicode="&#x202f;" horiz-adv-x="365" />
<glyph unicode="&#x2039;" horiz-adv-x="538" d="M115 604l250 371q1 -1 19 -10t22 -13q3 -3 -234 -348q149 -220 236 -344l-43 -22z" />
<glyph unicode="&#x203a;" horiz-adv-x="557" d="M150 948l40 23l250 -367l-250 -371q-1 0 -17.5 9.5t-20.5 13.5q-3 3 233 348q-212 308 -235 344z" />
<glyph unicode="&#x205f;" horiz-adv-x="456" />
<glyph unicode="&#x20ac;" horiz-adv-x="1179" d="M68 580l8 43h117v168h-117l10 45h107v217q0 98 40.5 177.5t107 129.5t149.5 77t172 27q128 0 241 -55.5t176 -157.5l-43 -24q-53 91 -157.5 140.5t-216.5 49.5q-81 0 -155 -22.5t-134 -66t-95.5 -114.5t-35.5 -161v-217h555l-11 -45h-544v-168h561l-10 -43h-551v-185 q0 -87 35 -157.5t94 -114t132 -67t152 -23.5q118 0 220 48.5t165 141.5l39 -24q-63 -102 -178 -157.5t-246 -55.5q-70 0 -136 16t-125.5 50t-104 81.5t-70.5 115t-26 146.5v185h-125z" />
<glyph unicode="&#x2122;" horiz-adv-x="1683" d="M59 1419v31h570v-31h-267v-698h-36v698h-267zM797 721v729h65l285 -612q93 205 157.5 343t91 192.5t36.5 76.5h65v-729h-37l2 706h-6l-285 -612h-49l-282 606h-9v-700h-34z" />
<glyph unicode="&#x25fc;" horiz-adv-x="1064" d="M0 0v1065h1065v-1065h-1065z" />
</font>
</defs>
</svg>
