<?xml version="1.0" standalone="no"?>
<!DOCTYPE svg PUBLIC "-//W3C//DTD SVG 1.1//EN" "http://www.w3.org/Graphics/SVG/1.1/DTD/svg11.dtd" >
<svg xmlns="http://www.w3.org/2000/svg">
<metadata></metadata>
<defs>
<font id="uni_sans_thin_italicitalic" horiz-adv-x="1034" >
<font-face units-per-em="2048" ascent="1548" descent="-500" />
<missing-glyph horiz-adv-x="577" />
<glyph unicode="&#xfb01;" horiz-adv-x="954" d="M53 -307q43 36 63 84.5t29 111.5l177 1260q21 139 119.5 224t213.5 85l-6 -39q-107 0 -186 -75.5t-96 -194.5l-33 -238h229l-6 -43h-229l-138 -979q-20 -141 -116 -223zM711 0l149 1067h47l-149 -1067h-47zM870 1376q3 23 23 40.5t43 17.5t37.5 -17.5t11.5 -40.5 t-22.5 -40t-42.5 -17t-38 17t-12 40z" />
<glyph unicode="&#xfb02;" horiz-adv-x="991" d="M57 -307q74 63 93 196l176 1260q21 139 119.5 224t213.5 85l-6 -39q-107 0 -186 -75.5t-96 -194.5l-33 -238h229l-6 -43h-229l-137 -979q-20 -140 -117 -223zM733 293l162 1157h45l-162 -1157q-37 -248 172 -256l-6 -45q-122 11 -177 82t-34 219z" />
<glyph horiz-adv-x="0" />
<glyph horiz-adv-x="682" />
<glyph unicode=" "  horiz-adv-x="577" />
<glyph unicode="&#x09;" horiz-adv-x="577" />
<glyph unicode="&#xa0;" horiz-adv-x="577" />
<glyph unicode="!" horiz-adv-x="552" d="M195 61q3 26 24 45t47 19t42.5 -19t13.5 -45q-4 -26 -26 -44.5t-48 -18.5t-41.5 18.5t-11.5 44.5zM260 270l166 1182h51l-166 -1182h-51z" />
<glyph unicode="&#x22;" horiz-adv-x="530" d="M311 1090l51 360h52l-76 -360h-27zM500 1090l51 360h51l-76 -360h-26z" />
<glyph unicode="#" horiz-adv-x="1464" d="M152 489l16 41h332l172 400h-377l18 43h379l209 479h47l-211 -479h412l207 479h51l-213 -479h334l-21 -43h-336l-170 -400h379l-18 -41h-379l-215 -489h-49l217 489h-410l-215 -489h-49l217 489h-327zM545 530h411l172 400h-411z" />
<glyph unicode="$" horiz-adv-x="1165" d="M121 227l51 21q52 -96 156.5 -149t230.5 -56l96 676q-74 16 -127.5 32t-115.5 47.5t-97.5 70.5t-53.5 101t-3 140q20 112 98 193t182 119t222 40l20 154h41l-20 -154q138 -5 242 -60t151 -163l-51 -18q-38 89 -133.5 138t-216.5 54l-91 -651q37 -8 68 -15.5t66 -18 t63.5 -23t58 -28t52 -34t43 -40.5t33.5 -48.5t20.5 -57t7 -67.5t-9.5 -78q-24 -108 -103 -189.5t-184 -122t-223 -44.5l-25 -172h-41l25 170q-140 3 -256 61t-176 172zM302 1037.5q-1 -32.5 12 -61.5t29.5 -52.5t44 -43.5t56 -36t66 -30t73.5 -24t79 -20l90 643 q-78 -2 -148.5 -20t-131.5 -53.5t-104 -94.5t-59 -135q-6 -40 -7 -72.5zM600 43q102 4 190.5 37t160 103.5t98.5 168.5q8 36 8.5 68.5t-6 59t-17 49.5t-28.5 42t-37 34.5t-45.5 29t-51 24t-57 20t-59.5 17t-62 15.5z" />
<glyph unicode="%" horiz-adv-x="1452" d="M160 -72l1231 1594l36 -25l-1228 -1595zM211 1079q24 174 115.5 270.5t218.5 96.5q132 0 193 -97.5t36 -273.5q-23 -169 -116 -268.5t-218 -99.5q-136 0 -195.5 95.5t-33.5 276.5zM270 1079q-25 -167 18.5 -242t160.5 -75q113 0 179 76t89 237q23 162 -25 240t-157 78 q-113 0 -178 -78t-87 -236zM809 358q24 174 115.5 270.5t218.5 96.5q133 0 194.5 -97.5t36.5 -273.5q-24 -169 -116.5 -268.5t-217.5 -99.5q-136 0 -196 95.5t-35 276.5zM864 358q-23 -167 20.5 -242t159.5 -75q114 0 182 76t91 235q23 161 -27 239.5t-160 78.5 q-113 0 -178.5 -78t-87.5 -234z" />
<glyph unicode="&#x26;" horiz-adv-x="1243" d="M164 365q34 248 399 446q-70 98 -109 184.5t-28 165.5q20 132 126 212.5t239 80.5q116 0 191 -77t58 -193q-10 -64 -42.5 -120t-85 -100t-104 -75.5t-120.5 -65.5l-51 -28l352 -457l154 201l33 -19l-158 -211l188 -256h-59l-158 211q-121 -136 -234 -204t-245 -68 q-170 0 -270 102.5t-76 270.5zM215 369q-22 -153 63 -243.5t254 -90.5q116 0 226 73.5t203 184.5l-371 489q-342 -184 -375 -413zM477 1165q-18 -129 133 -336q80 37 135.5 68.5t112.5 74.5t90 94t41 110q15 102 -45 167.5t-166 65.5q-110 0 -198 -69.5t-103 -174.5z" />
<glyph unicode="'" horiz-adv-x="380" d="M309 1087l51 363h56l-68 -363h-39z" />
<glyph unicode="(" horiz-adv-x="532" d="M252 702q31 227 128.5 448t252.5 411l33 -29q-146 -177 -238 -391t-125 -443q-31 -226 3 -442.5t134 -396.5l-43 -23q-105 190 -141.5 413t-3.5 453z" />
<glyph unicode=")" horiz-adv-x="501" d="M16 -199q148 187 239 401t122 437q33 228 0.5 452t-127.5 420l37 21l-4 -2l12 6q102 -190 137 -421t2 -472q-35 -237 -130 -459t-249 -409z" />
<glyph unicode="*" horiz-adv-x="847" d="M256 1200q13 40 14 41l297 -104q36 291 39 315h41l-49 -317q91 27 156 48.5t104.5 36t56.5 19.5l7 -41l-316 -94l158 -266l-37 -23l-154 266q-39 -47 -121 -140t-110 -126l-29 27l240 262q-42 13 -92.5 29t-111.5 36.5t-93 30.5z" />
<glyph unicode="+" horiz-adv-x="1169" d="M184 674l6 47h474l65 463h45l-65 -463h456l-6 -47h-457l-65 -465h-45l65 465h-473z" />
<glyph unicode="," horiz-adv-x="475" d="M68 -248l159 332h72l-186 -332h-45z" />
<glyph unicode="-" horiz-adv-x="735" d="M174 590l6 49h551l-6 -49h-551z" />
<glyph unicode="." horiz-adv-x="411" d="M125 57q5 26 26.5 45t47.5 19t42 -19t11 -45q-3 -26 -24.5 -44.5t-47.5 -18.5t-42 18.5t-13 44.5z" />
<glyph unicode="/" horiz-adv-x="757" d="M61 -18l809 1499l35 -13q-787 -1470 -803 -1499q-33 9 -41 13z" />
<glyph unicode="0" horiz-adv-x="1230" d="M180 373l99 702q14 96 68.5 172t132 122t165.5 69.5t178 23.5q89 0 170 -24t146 -69.5t97.5 -121.5t18.5 -172l-98 -702q-13 -95 -67 -171t-132 -122t-165.5 -70t-176.5 -24t-171 24t-147 70t-98 122t-20 171zM231 373q-13 -89 17.5 -156.5t91 -105t132 -56t151.5 -18.5 q79 0 155.5 18.5t147 56t119 105t61.5 156.5l98 702q10 72 -8 130.5t-56 96t-92.5 63t-112.5 36t-120 10.5q-63 0 -124.5 -10.5t-123 -36t-110 -63t-83 -96t-44.5 -130.5z" />
<glyph unicode="1" horiz-adv-x="641" d="M227 1126l342 324h70l-203 -1450h-49l195 1399l-326 -301q-6 5 -10.5 9.5t-9.5 8.5h2z" />
<glyph unicode="2" horiz-adv-x="1116" d="M92 47l799 725q88 75 141 156t64 155q19 135 -76.5 229.5t-271.5 100.5q-132 4 -239.5 -50.5t-178.5 -160.5l-43 21q78 124 192 181.5t279 59.5q192 -1 302.5 -111t88.5 -272q-12 -83 -70.5 -174t-152.5 -174l-756 -682h836l-7 -51h-890z" />
<glyph unicode="3" horiz-adv-x="1155" d="M119 209l47 27q58 -100 152 -146.5t233 -46.5q84 0 165.5 23t150 66t116 112t59.5 153q26 185 -65 276t-279 89h-139l6 49h140q151 0 250 71t120 218q10 76 -14.5 136t-74.5 96t-113.5 54.5t-135.5 18.5q-113 0 -210 -39.5t-162 -118.5l-39 21q143 184 422 184 q65 0 124.5 -13t110 -41.5t85.5 -69t50.5 -99.5t5.5 -129q-13 -102 -68.5 -179.5t-176.5 -127.5q99 -38 153 -100t63.5 -135.5t-1.5 -162.5q-16 -96 -69.5 -173.5t-130 -126.5t-166.5 -75t-183 -26q-313 0 -426 215z" />
<glyph unicode="4" horiz-adv-x="1101" d="M109 469q57 60 405 425.5t530 555.5h72l-139 -995h121l-8 -47h-121l-56 -408h-51l56 408h-787zM158 455h768l135 946z" />
<glyph unicode="5" horiz-adv-x="1185" d="M143 203l54 24q45 -86 147 -135t223 -49q112 0 219 45.5t186 135.5t95 204l12 84q16 114 -33.5 200.5t-140.5 129.5t-205 43q-116 0 -211 -21.5t-200 -72.5q-3 0 -11.5 -1.5t-11.5 -1.5l92 662h828l-6 -47h-777q-4 -27 -7 -44v-3l-70 -500q200 81 383 78q89 -1 169 -28 t141.5 -77.5t92.5 -132t18 -182.5l-12 -86q-13 -79 -51 -149.5t-93 -122.5t-123 -90t-142 -57t-148 -19q-142 0 -253 54t-165 159z" />
<glyph unicode="6" horiz-adv-x="1265" d="M195 373l98 698q13 93 67 169t132.5 122.5t171 71.5t188.5 24q144 0 252.5 -49t157.5 -147l-52 -25q-41 88 -138 130t-228 42q-120 0 -225 -36t-182 -115t-93 -189l-59 -414q47 66 110 113t129.5 70.5t125.5 33t120 9.5q76 -1 145 -16.5t127.5 -47.5t99 -76.5t59 -108 t7.5 -138.5l-16 -121q-13 -93 -65 -168t-128.5 -122t-167.5 -72t-186 -25q-97 -1 -182.5 24t-150 71.5t-97 122.5t-20.5 169zM246 375q-10 -67 7 -123t54.5 -95.5t91.5 -67.5t118 -41t134 -13q117 0 220.5 36.5t179 115.5t90.5 188l16 117q12 82 -15.5 148t-84 107 t-131.5 62.5t-162 21.5q-120 0 -225.5 -36t-183 -114.5t-93.5 -188.5z" />
<glyph unicode="7" horiz-adv-x="976" d="M123 0l960 1401h-827l6 49h858l23 -49l-963 -1401h-57z" />
<glyph unicode="8" horiz-adv-x="1185" d="M137 391q22 151 106 248.5t240 142.5q-114 40 -153.5 126.5t-24.5 195.5q17 112 89.5 193.5t171 120t208.5 38.5h39q81 0 152 -22.5t125 -65.5t80 -111.5t14 -152.5q-14 -106 -77 -192t-189 -128q278 -80 235 -393q-21 -127 -106 -222.5t-200 -142t-241 -46.5h-39 q-125 0 -227 46.5t-160.5 142t-42.5 222.5zM186 393q-13 -90 17 -162t88.5 -115.5t131 -66t150.5 -22.5h39q78 0 157 22.5t149.5 66t120.5 115.5t63 162q12 85 -2.5 150t-48.5 106t-88 67t-113.5 36t-132.5 10h-39q-440 0 -492 -369zM352 1104q-10 -70 4.5 -124t45 -87 t77.5 -53.5t97 -28.5t108 -8h39q58 0 110 8t104.5 28.5t92 53.5t68.5 87t39 124q11 76 -11.5 136.5t-71 96.5t-111.5 55t-136 19h-39q-99 0 -185.5 -31.5t-151 -103t-79.5 -172.5z" />
<glyph unicode="9" horiz-adv-x="1247" d="M190 199l54 24q41 -89 136.5 -134.5t223.5 -45.5q120 0 225.5 35t183 113.5t93.5 187.5l55 399q-56 -69 -118 -113.5t-128 -64t-117 -25.5t-118 -6q-96 1 -179.5 26t-147 71.5t-95 121.5t-18.5 168l16 111q13 93 65 168t128.5 122t167.5 72t186 25q77 1 147 -13.5 t130 -46t101.5 -76.5t61.5 -109.5t10 -141.5l-96 -686q-13 -93 -67 -169t-132.5 -122.5t-171 -71.5t-188.5 -24q-145 0 -251 51t-157 154zM291 958q-9 -66 7.5 -122t53 -96t88.5 -67.5t114.5 -41t131.5 -13.5q120 0 226 36t183.5 115.5t92.5 188.5l16 107q11 83 -18 149.5 t-87.5 107t-136 62t-165.5 21.5q-117 0 -220.5 -36.5t-179 -115.5t-90.5 -188z" />
<glyph unicode=":" horiz-adv-x="491" d="M195 117q3 26 24 44.5t47 18.5t42.5 -18.5t13.5 -44.5q-5 -26 -26.5 -45t-47.5 -19t-42 19t-11 45zM303 891q3 26 24.5 44.5t47.5 18.5t42 -18.5t13 -44.5q-5 -26 -26.5 -45t-47.5 -19t-42 19t-11 45z" />
<glyph unicode=";" horiz-adv-x="507" d="M104 -203l132 295h83l-163 -295h-52zM309 860q3 26 24.5 45t47.5 19t42 -19t13 -45q-4 -26 -26 -44.5t-48 -18.5t-41.5 18.5t-11.5 44.5z" />
<glyph unicode="&#x3c;" horiz-adv-x="911" d="M209 594l8 53l715 389l-8 -53l-666 -362l563 -359l-6 -51q-103 67 -303 191.5t-303 191.5z" />
<glyph unicode="=" horiz-adv-x="1093" d="M242 455l6 45h764l-6 -45h-764zM281 737l6 45h764l-7 -45h-763z" />
<glyph unicode="&#x3e;" horiz-adv-x="983" d="M217 211l6 47l674 363q-57 36 -261 166t-310 196l8 53q105 -70 308.5 -197.5t301.5 -191.5l-8 -53z" />
<glyph unicode="?" horiz-adv-x="948" d="M252 1319q75 64 171.5 102.5t188.5 38.5q65 0 125 -15.5t110 -47.5t84.5 -76.5t48.5 -108t3 -137.5q-13 -94 -59 -173t-113 -132.5t-146.5 -86.5t-164.5 -42q-23 -137 -43 -250.5t-25 -144.5h-37l54 430q116 7 221 56.5t178.5 140t87.5 204.5q14 108 -31.5 186t-125 114 t-179.5 36q-75 0 -164.5 -35t-159.5 -88zM332 49q3 23 21.5 39t41.5 16q22 0 36 -16t11 -39t-22 -38t-41 -15q-23 0 -36.5 15t-10.5 38z" />
<glyph unicode="@" horiz-adv-x="1536" d="M172 616q28 204 146.5 370t294.5 258.5t372 92.5q185 0 324.5 -71.5t208 -203.5t45.5 -302q-14 -101 -55.5 -193t-97.5 -158.5t-120.5 -115t-129 -71.5t-118.5 -19q-126 8 -67 168q-151 -174 -322 -174q-112 0 -163 76t-35 188q15 102 59.5 200.5t110.5 178t157 128 t189 48.5q27 0 51 -4t53 -17.5t49 -35.5t32 -63.5t9 -96.5l11 -2l86 174h43l-256 -537q-44 -94 -44 -130q-2 -56 70 -56q91 0 186.5 70.5t166.5 190t90 251.5q16 121 -20 223t-111 169t-179.5 104.5t-224.5 37.5q-147 0 -280.5 -53t-233.5 -144t-167 -215.5t-87 -265.5 q-18 -121 0 -221t61.5 -178t114.5 -131.5t157.5 -80t191.5 -23t216 37.5l7 -38q-116 -36 -227 -39.5t-204 23t-168.5 84t-124 138t-67 191t-0.5 237.5zM496 465q-14 -100 33.5 -163.5t140.5 -63.5q59 0 120.5 31t113.5 83t95.5 113.5t75.5 128.5q24 50 38 103t14.5 105 t-14.5 91.5t-55 62.5t-102 19q-92 1 -175.5 -48.5t-140.5 -127.5t-94.5 -165t-49.5 -169z" />
<glyph unicode="A" horiz-adv-x="1267" d="M53 0l733 1464h97q57 -269 169 -764.5t156 -699.5h-55l-119 518h-669l-256 -518h-56zM391 569h635l-188 871h-13z" />
<glyph unicode="B" horiz-adv-x="1290" d="M190 0l203 1450h531q166 0 260 -93q74 -74 74 -194q0 -31 -5 -65q-31 -209 -186 -293l-70 -35l70 -25q103 -47 138 -147q24 -67 23 -139q0 -35 -5 -72q-17 -109 -62 -186t-114 -120t-149 -62t-179 -19h-529zM248 49h479h13q174 1 288 79q118 82 143 261q6 42 6 79 q0 125 -70 191q-89 84 -273 84h-9h-479zM352 793h479q149 0 250 76t123 227q4 30 4 57q0 106 -64 170q-82 80 -226 80h-480z" />
<glyph unicode="C" horiz-adv-x="1179" d="M184 397l92 660q18 127 107.5 221.5t211 139t253.5 44.5q142 0 257.5 -54t164.5 -155l-51 -32q-41 91 -148 141.5t-237 50.5q-117 0 -223.5 -38t-186.5 -121t-96 -197l-92 -660q-4 -26 -4 -51q0 -56 20 -104q30 -69 89.5 -111.5t136.5 -65t163 -22.5q130 0 249.5 47 t188.5 135q5 -4 41 -22q-75 -101 -208 -156t-277 -55q-77 0 -147.5 16t-131 49.5t-103 81t-61.5 113.5q-12 42 -12 89q0 27 4 56z" />
<glyph unicode="D" horiz-adv-x="1243" d="M170 0l203 1450h489q98 0 177.5 -23t138 -68.5t84.5 -121.5q17 -49 17 -109q0 -32 -5 -67l-94 -674q-14 -99 -61.5 -174.5t-119 -121.5t-157 -68.5t-183.5 -22.5h-489zM227 51h439q88 0 164.5 19t139.5 58.5t104.5 105.5t53.5 153l95 674q4 31 4 59q0 37 -7 69 q-13 57 -45.5 95.5t-82 65t-109 38t-129.5 11.5h-438z" />
<glyph unicode="E" horiz-adv-x="1171" d="M197 0l202 1450h863l-9 -51h-811l-90 -649h750l-8 -56h-750l-90 -643h811l-6 -51h-862z" />
<glyph unicode="F" horiz-adv-x="1105" d="M184 0l203 1450h836l-9 -51h-784l-94 -676h713l-7 -51h-712l-94 -672h-52z" />
<glyph unicode="G" horiz-adv-x="1337" d="M180 406l92 649q13 96 68 175t134 128t173 75.5t191 26.5q141 0 255 -55t162 -156l-51 -30q-39 95 -142.5 142.5t-236.5 47.5q-87 0 -170 -22.5t-153 -65t-118 -111.5t-60 -155l-93 -649q-4 -26 -4 -50q0 -59 21 -108q29 -71 88 -115t136 -67t165 -23q87 0 171 23t156 67 t121.5 115t61.5 158l37 260h-445l9 49h495l-45 -309q-14 -99 -69 -179.5t-134.5 -130t-173 -76t-190.5 -26.5q-77 0 -148 16t-131.5 50t-102.5 82t-61 116q-12 43 -12 91q0 28 4 57z" />
<glyph unicode="H" horiz-adv-x="1409" d="M195 0l202 1450h52l-99 -700h916l98 700h51l-203 -1450h-51l96 698h-915l-96 -698h-51z" />
<glyph unicode="I" horiz-adv-x="475" d="M199 0l202 1450h52l-203 -1450h-51z" />
<glyph unicode="J" horiz-adv-x="1185" d="M82 283l53 16q13 -66 50.5 -117.5t90 -82t111.5 -45.5t121 -15q82 0 161 22t147.5 64.5t115.5 111.5t59 156l144 1010h-484l6 47h535l-150 -1057q-18 -127 -102.5 -221t-199 -138t-240.5 -44q-158 0 -276 77t-142 216z" />
<glyph unicode="K" horiz-adv-x="1173" d="M188 0l203 1450h51l-123 -881q157 135 491 440.5t490 440.5h66l-768 -698q86 -109 180 -234t210 -282t175 -236h-59l-547 715l-248 -217l-69 -498h-52z" />
<glyph unicode="L" horiz-adv-x="1021" d="M190 0l203 1450h51l-196 -1399h725l-6 -51h-777z" />
<glyph unicode="M" horiz-adv-x="1632" d="M190 0l203 1450h109l352 -1174q111 188 341.5 586.5t340.5 587.5h109l-203 -1450h-51l196 1413h-18l-686 -1184h-70l-358 1170l-19 -2l-194 -1397h-52z" />
<glyph unicode="N" horiz-adv-x="1411" d="M195 0l202 1450h80l666 -1401l196 1401h52l-203 -1450h-88l-656 1384l-196 -1384h-53z" />
<glyph unicode="O" horiz-adv-x="1396" d="M213 401l92 650q13 98 70 178t141 129t183 75.5t202 26.5t194.5 -26.5t161.5 -75.5t105 -129q26 -58 26 -126q0 -25 -4 -52l-92 -650q-14 -98 -71.5 -178t-141.5 -130t-183 -76.5t-202 -26.5t-194.5 26.5t-161.5 76.5t-104 130q-25 57 -25 123q0 27 4 55zM264 401 q-4 -26 -4 -50q0 -59 22 -108q32 -70 95 -113t146 -66t177 -23t183 23t165 66t128 113t65 158l92 650q4 26 4 51q1 61 -23 112q-32 71 -97.5 113t-148 63t-177.5 21q-95 -1 -182.5 -22.5t-163 -64t-126 -113t-63.5 -160.5z" />
<glyph unicode="P" horiz-adv-x="1261" d="M199 0l202 1450h512q107 -1 188 -40t125 -102q45 -64 63 -140q11 -47 11 -97q0 -30 -4 -61q-12 -81 -51 -156.5t-101 -137.5t-153 -99.5t-198 -38.5h-463l-80 -578h-51zM338 629h461q96 0 177.5 33t136 88t88.5 122.5t44 139.5q3 30 3 60q0 28 -2 54q-6 56 -33 105.5 t-66 87.5t-101.5 60.5t-138.5 23.5h-461z" />
<glyph unicode="Q" horiz-adv-x="1398" d="M215 403l92 650q13 98 70 178t141 129t183 75.5t202 26.5t194 -26.5t160.5 -75.5t104.5 -129q26 -58 26 -126q0 -25 -4 -52l-92 -650q-13 -91 -48.5 -149t-104.5 -121l90 -129l-43 -27l-88 125q-179 -110 -402 -110q-103 0 -194.5 26.5t-161.5 76.5t-104 130 q-25 57 -25 123q0 27 4 55zM266 403q-4 -25 -4 -48q0 -58 22 -107q32 -71 95 -115t146 -68t177 -24q201 0 371 102l-104 160l43 29l98 -158q112 80 131 229l92 650q3 24 3 46q0 60 -23 111q-32 71 -95.5 114t-146 66t-176.5 23q-95 -1 -182.5 -22.5t-163.5 -64t-127 -113 t-64 -160.5z" />
<glyph unicode="R" horiz-adv-x="1277" d="M197 0l200 1436h512q98 0 173.5 -20.5t131.5 -65.5q56 -44 80 -122q16 -50 16 -114q0 -34 -5 -72q-16 -110 -59 -188t-111 -122.5t-149.5 -64.5t-184.5 -20h-78l399 -647h-59l-397 647h-330l-90 -647h-49zM342 692h465q204 0 312.5 80.5t135.5 267.5q6 40 6 75 q0 51 -12 91q-20 70 -69 109.5t-117 57.5q-61 16 -140 16h-18h-465z" />
<glyph unicode="S" horiz-adv-x="1218" d="M166 227l51 21q54 -99 163 -152t241 -53q77 0 150.5 19t138.5 55.5t114 97t70 137.5q8 38 8.5 71.5t-7.5 61t-19 51t-31.5 42.5t-39.5 34.5t-49 29t-54.5 23.5t-61 20t-62.5 16.5t-65 15.5q-76 16 -130 31.5t-118.5 47t-101.5 70.5t-56 102q-11 35 -11 75q0 32 7 67 q15 87 65 156t122 110.5t156 63.5t173 22q148 0 259 -55t161 -168l-51 -18q-41 94 -144.5 143t-232.5 49q-108 0 -200 -29.5t-164 -99.5t-93 -174q-7 -45 -7 -77q0 -33 14 -61q14 -30 31.5 -53t47 -44t60 -36.5t70.5 -29t78 -24t83 -19.5q38 -8 69.5 -15.5t68 -18t66 -22.5 t60.5 -27.5t54 -34t44.5 -41t35 -49.5t21.5 -58t8 -68.5t-9 -79.5q-24 -112 -108.5 -195t-196.5 -123t-234 -40q-143 0 -263 58t-181 175z" />
<glyph unicode="T" horiz-adv-x="1122" d="M250 1399l8 51h1018l-8 -51h-484l-194 -1399h-51l194 1399h-483z" />
<glyph unicode="U" horiz-adv-x="1400" d="M246 408l147 1042h51l-147 -1042q-4 -26 -3 -51q0 -59 20 -110q29 -72 87.5 -116.5t135.5 -68t165 -23.5q87 0 171 23.5t156 68t121.5 116.5t61.5 161l148 1042h51l-147 -1042q-14 -100 -69 -181t-134.5 -132t-173.5 -78t-191 -27t-183 27t-151.5 78t-97.5 132 q-22 56 -22 122q0 29 4 59z" />
<glyph unicode="V" horiz-adv-x="1243" d="M238 1450h57l319 -1438h13q489 987 710 1440h56l-721 -1462h-109q-53 244 -162.5 730.5t-162.5 729.5z" />
<glyph unicode="W" horiz-adv-x="1892" d="M248 1450h55l211 -1425h10l559 1208h64l221 -1213h12l607 1430h55l-627 -1454h-94l-211 1188q-100 -221 -287 -622.5t-262 -565.5h-94q-40 275 -116.5 775.5t-102.5 678.5z" />
<glyph unicode="X" horiz-adv-x="1206" d="M88 0l578 723l-373 727h57l352 -680q164 205 285.5 357t175.5 220t82 103h60l-580 -727q71 -128 199 -380t176 -343h-60l-348 688l-540 -688h-64z" />
<glyph unicode="Y" horiz-adv-x="1167" d="M258 1450h61l347 -817l589 817h64l-637 -875l-80 -575h-51l80 575z" />
<glyph unicode="Z" horiz-adv-x="1120" d="M57 25l1127 1380h-891l6 45h942l14 -27l-1124 -1378h903l-6 -45h-952z" />
<glyph unicode="[" horiz-adv-x="481" d="M139 -246l250 1784h238l-6 -43h-189l-237 -1696h188l-6 -45h-238z" />
<glyph unicode="\" horiz-adv-x="741" d="M229 1518l41 14l410 -1577l-47 -14z" />
<glyph unicode="]" horiz-adv-x="430" d="M12 -258l6 51h185l239 1696h-184l6 49h238l-252 -1796h-238z" />
<glyph unicode="^" horiz-adv-x="1116" d="M272 926l435 524h57q168 -311 299 -524h-55l-277 489l-403 -489h-56z" />
<glyph unicode="_" horiz-adv-x="1024" d="M20 -88l9 45h954l-8 -45h-955z" />
<glyph unicode="`" horiz-adv-x="430" d="M283 1450h79l95 -211h-51z" />
<glyph unicode="a" d="M164 291l67 473q12 86 54 149.5t104.5 99t133 52t149.5 16.5q177 0 329 -69l-139 -1012h-43l15 127q-141 -141 -363 -141q-67 0 -125 18t-104 54q-44 35 -66 95q-15 41 -15 90q0 23 3 48zM207 291q-4 -25 -3 -48q0 -40 10 -73q18 -52 57 -82.5t90.5 -45.5t113.5 -15 q98 0 197.5 39t163.5 106l6 8l112 799q-122 61 -278 61q-72 0 -137 -15t-122 -45.5t-95 -85.5t-48 -128z" />
<glyph unicode="b" horiz-adv-x="1026" d="M158 27l200 1423h45l-63 -455q183 80 334 80h5q91 1 167 -33q78 -34 122 -108q34 -55 34 -123q0 -22 -3 -45l-65 -465q-21 -145 -141.5 -231.5t-266.5 -89.5q-222 0 -368 47zM209 63q110 -40 323 -40q80 0 157 34t132.5 98t65.5 142l65 469q3 22 3 42q1 91 -69 149 q-86 71 -216 73q-139 0 -316 -76l-22 -12z" />
<glyph unicode="c" horiz-adv-x="905" d="M174 295l66 465q21 146 141 227.5t268 81.5q98 0 176.5 -34.5t116.5 -102.5l-37 -23q-66 115 -262 115q-85 0 -159.5 -27t-130.5 -87.5t-68 -145.5l-66 -469q-3 -22 -3 -42q0 -61 29 -107q39 -62 106.5 -88.5t152.5 -26.5q96 0 183 39t134 112q9 -4 20.5 -10t20.5 -10 q-57 -84 -156 -130t-208 -46q-70 0 -132 19.5t-109 57t-70 97.5q-16 42 -16 91q0 21 3 44z" />
<glyph unicode="d" horiz-adv-x="1046" d="M190 291l68 473q14 99 78 172q65 72 152 106q84 33 176 33h6q175 0 315 -67l62 442h47l-199 -1415q-179 -53 -385 -53q-71 2 -131 19.5t-108 52.5t-70 96q-15 41 -15 90q0 24 4 51zM238 291q-3 -22 -4 -43q0 -39 13 -73q19 -51 60 -82t94.5 -46.5t116.5 -15.5 q192 0 336 45l123 878q-160 74 -315 74q-86 -1 -160.5 -28.5t-130 -88t-66.5 -145.5z" />
<glyph unicode="e" horiz-adv-x="1005" d="M176 297l64 446q11 80 51.5 144t98 103.5t125 60t138.5 20.5q70 0 130.5 -19.5t107.5 -57.5t69 -100q15 -42 14 -91q0 -25 -3 -51q-15 -105 -78.5 -180.5t-149.5 -109.5t-184 -34q-173 0 -313 70l-29 -203q-3 -22 -3 -42q0 -43 14 -77q22 -52 65.5 -82t97.5 -44.5 t115 -14.5q89 0 170.5 31.5t132.5 95.5l33 -21q-60 -72 -152 -111.5t-190 -39.5q-71 0 -132.5 19.5t-109.5 56.5q-48 36 -70 96q-16 42 -15 90q0 22 3 45zM252 541q87 -40 153.5 -56t159.5 -16q66 0 125 16.5t109.5 49.5t85 88.5t45.5 128.5q3 24 3 47q-1 99 -69 159 q-84 74 -217 74q-86 0 -162.5 -30.5t-133.5 -97.5t-70 -159z" />
<glyph unicode="f" horiz-adv-x="536" d="M55 -307q43 36 63 84.5t29 111.5l177 1260q21 139 119.5 224t213.5 85l-6 -39q-107 0 -186 -75.5t-96 -194.5l-33 -238h229l-6 -43h-229l-137 -979q-20 -140 -117 -223z" />
<glyph unicode="g" horiz-adv-x="1026" d="M172 -248l37 31q50 -40 119 -63t141 -23q130 0 231 64.5t119 189.5l19 129q-175 -80 -330 -80h-5q-92 0 -167 33q-77 34 -120 106q-33 54 -33 123q0 22 3 45l64 457q21 142 137.5 222.5t261.5 82.5q153 0 361 -74l-148 -1042q-14 -99 -77 -168.5t-146.5 -100 t-177.5 -30.5q-188 0 -289 98zM231 307q-3 -21 -3 -41q0 -57 28 -102q37 -61 103 -90t149 -31q79 1 146 19t169 57l23 14l115 825q-61 27 -148.5 46.5t-169.5 19.5t-156 -28t-127.5 -88.5t-64.5 -141.5z" />
<glyph unicode="h" horiz-adv-x="1081" d="M176 0l203 1450h45l-64 -459q160 70 330 70h13q63 0 119 -18q62 -20 110 -57q48 -38 70 -98q16 -42 15 -90q0 -21 -3 -44l-105 -754h-45l105 754q3 20 3 38q0 41 -14 77q-20 51 -62 82t-95.5 47.5t-114.5 17.5q-149 0 -334 -70l-131 -946h-45z" />
<glyph unicode="i" horiz-adv-x="440" d="M199 0l149 1067h47l-149 -1067h-47zM356 1360q3 23 23 40t43 17q24 0 38 -17q12 -14 12 -32q0 -4 -1 -8q-3 -23 -22.5 -40t-42.5 -17t-38 17q-12 14 -12 32v8z" />
<glyph unicode="j" horiz-adv-x="448" d="M-78 -358l6 45q111 9 180.5 76.5t86.5 191.5l157 1114h45l-157 -1114q-20 -141 -105 -221.5t-213 -91.5zM356 1352q3 23 23 40t43 17t38 -17q12 -14 12 -32q0 -4 -1 -8q-3 -23 -22.5 -40.5t-42.5 -17.5t-38 18q-12 14 -12 32v8z" />
<glyph unicode="k" horiz-adv-x="966" d="M174 0l203 1450h45l-143 -1026l698 637h55l-514 -477l371 -584h-51l-359 551l-209 -184l-51 -367h-45z" />
<glyph unicode="l" horiz-adv-x="475" d="M207 293l162 1157h45l-162 -1157q-6 -37 -6 -69q0 -180 178 -187l-6 -45q-122 11 -177 82q-40 51 -40 143q0 35 6 76z" />
<glyph unicode="m" horiz-adv-x="1683" d="M180 0l139 991q129 80 324 80q245 0 318 -168q73 94 150.5 127.5t180.5 36.5h20q88 1 156 -31q76 -36 116 -112q30 -57 30 -129q0 -25 -4 -52l-105 -743h-47l103 739q4 25 4 48q-1 43 -13 79q-18 56 -59 88.5t-93 49t-112 16.5q-75 0 -142 -24.5t-116.5 -77t-60.5 -125.5 l-111 -793h-45l111 793q1 12 1 23q1 92 -79 148q-90 62 -223 62q-147 0 -263 -68l-133 -958h-47z" />
<glyph unicode="n" horiz-adv-x="1089" d="M178 0l141 1010q186 63 381 63q69 -2 129 -20.5t107 -54.5t69 -96q15 -40 15 -88q0 -24 -4 -50l-107 -764h-45l107 764q3 20 3 39q0 61 -30 108q-39 61 -104.5 88t-145.5 27q-88 0 -181.5 -15t-154.5 -40l-135 -971h-45z" />
<glyph unicode="o" horiz-adv-x="1030" d="M188 297l66 469q14 99 79 171t151 105.5t182 34.5q149 -1 246 -83q80 -68 80 -180q0 -23 -3 -48l-65 -469q-14 -99 -78.5 -171t-150.5 -105.5t-181 -34.5q-150 2 -248 84q-81 68 -81 179q0 23 3 48zM233 297q-3 -22 -3 -42q0 -41 14 -77q21 -52 64 -83.5t97 -47.5 t115 -16q82 0 156 26.5t132 89t71 150.5l65 469q3 22 3 42q0 42 -14 78q-21 52 -64 82.5t-96.5 46t-113.5 15.5q-61 0 -119 -15.5t-109 -46t-86.5 -83t-45.5 -119.5z" />
<glyph unicode="p" d="M98 -393l199 1423q159 47 381 47q69 -2 130 -23.5t107 -61t68 -100.5q15 -43 15 -91q0 -22 -3 -45l-63 -463q-21 -143 -144 -227q-119 -82 -263 -82h-7q-153 0 -311 79l-64 -456h-45zM215 117l18 -13q153 -75 293 -75q84 1 160.5 31t132 91t66.5 142l65 467q3 20 3 39 q0 92 -71 157q-86 78 -210 78q-210 0 -334 -41z" />
<glyph unicode="q" d="M182 293l64 463q21 145 141 231.5t266 89.5q225 0 369 -47l-199 -1423h-45l64 456q-183 -79 -336 -79h-5q-91 0 -167 34q-78 34 -122 106q-33 56 -33 124q0 22 3 45zM229 293q-3 -22 -3 -42q0 -90 70 -149q85 -71 214 -73q143 0 317 75l23 13l123 876q-115 41 -326 41 q-80 0 -156.5 -34t-131 -98t-64.5 -142z" />
<glyph unicode="r" horiz-adv-x="628" d="M162 0l106 762q17 120 104 200t208 103q34 6 59 6l78 -4l-6 -43q-8 0 -41 1t-57 0t-42 -5q-98 -24 -171.5 -91.5t-86.5 -166.5l-106 -762h-45z" />
<glyph unicode="s" horiz-adv-x="864" d="M115 164l41 26q104 -157 289 -157h14q44 1 92 15.5t94 42t79 74.5t40 105q2 18 2 35q0 168 -242 217q-53 10 -93.5 21t-85.5 32.5t-72 49.5q-27 27 -41 71q-9 28 -10 61q0 18 3 38q19 130 126.5 202t240.5 72q77 0 147.5 -26.5t112.5 -73.5q-12 -10 -33 -31 q-38 42 -102 66t-133 24q-73 0 -137.5 -24t-114.5 -78.5t-64 -130.5q-2 -16 -2 -30q0 -23 5 -45q8 -34 28.5 -56t44.5 -38t58 -27t60.5 -17.5t60.5 -13.5q11 -2 16 -3q47 -9 87 -22.5t78.5 -37.5t63 -55.5t36.5 -77.5q8 -29 7 -62q0 -19 -2 -40q-12 -85 -67.5 -150 t-131 -97.5t-157.5 -34.5h-13q-100 0 -184 43q-88 46 -141 133z" />
<glyph unicode="t" horiz-adv-x="563" d="M215 307l160 1143h45l-55 -389h229l-6 -45h-230l-98 -709q-3 -21 -3 -41q0 -42 14 -78q21 -54 61 -84t85.5 -46.5t90.5 -16.5l-6 -43q-87 0 -156.5 37t-106.5 109q-27 53 -27 117q0 22 3 46z" />
<glyph unicode="u" horiz-adv-x="1058" d="M207 295l106 768h45l-106 -768q-3 -19 -3 -37q0 -42 15 -78q21 -52 62.5 -83.5t93.5 -48.5t108 -17q84 0 178 16.5t158 42.5l135 973h45l-141 -1012q-192 -65 -381 -65q-69 2 -129.5 22t-106.5 58q-46 36 -68 96q-15 41 -14 88q0 22 3 45z" />
<glyph unicode="v" horiz-adv-x="956" d="M209 1061h51l225 -1030l512 1030h50q-86 -177 -263.5 -530.5t-263.5 -530.5h-78q-171 759 -233 1061z" />
<glyph unicode="w" horiz-adv-x="1458" d="M211 1061h55l154 -1032h6l410 1032h79l125 -1030h7l442 1030h55l-457 -1061h-96l-121 1014h-4l-397 -1014h-96z" />
<glyph unicode="x" horiz-adv-x="923" d="M82 0l420 530l-273 531h58l250 -498l389 498h55l-418 -531q37 -72 128.5 -254.5t139.5 -275.5h-53l-250 498l-391 -498h-55z" />
<glyph unicode="y" horiz-adv-x="1062" d="M195 -248l38 35q60 -49 117 -68.5t142 -19.5q77 0 149.5 26t129.5 85.5t69 140.5l16 121q-179 -82 -328 -82h-5q-92 0 -167 33q-78 34 -122 106q-34 55 -34 123q0 22 3 45l106 764h47l-106 -764q-4 -23 -4 -43q0 -92 69 -148q84 -70 215 -73q54 1 108.5 12.5t92.5 24.5 t111 41l22 14l131 936h45l-155 -1108q-10 -75 -49 -133.5t-95.5 -94t-122 -53.5t-135.5 -18q-187 0 -288 98z" />
<glyph unicode="z" horiz-adv-x="882" d="M59 43l822 977h-650l7 41h686q4 -7 16 -35l-829 -983h684l-4 -43h-707z" />
<glyph unicode="{" horiz-adv-x="559" d="M195 621l6 36q147 37 192 347l43 296q6 46 12.5 76t20.5 62.5t34 51t53 30.5t77 12h47l-6 -43h-45q-35 0 -59.5 -9t-38.5 -21.5t-24 -40.5t-14 -51t-10 -69l-43 -299q-21 -155 -74.5 -247.5t-107.5 -112.5q16 -7 29.5 -19.5t29 -38.5t22.5 -64.5t9.5 -97t-10.5 -136.5 l-43 -301q-12 -93 8 -134t100 -41h33l-6 -43h-35q-101 0 -131.5 54.5t-15.5 161.5l41 296q13 93 12 164.5t-27 119t-79 61.5z" />
<glyph unicode="|" horiz-adv-x="471" d="M133 -358l268 1917h103l-268 -1917h-103zM150 -344h73l264 1888h-73zM166 -330h45l260 1860h-45z" />
<glyph unicode="}" horiz-adv-x="555" d="M33 -236l6 43h31q79 0 113 45t46 130l43 297q38 273 183 366q-49 20 -77 112.5t-5 246.5l43 294q8 60 9.5 102.5t-22.5 65.5t-81 23h-46l5 41h47q67 0 100.5 -28.5t37 -80t-4.5 -121.5l-43 -296q-10 -83 -9 -154.5t28 -125t79 -67.5l-6 -36q-149 -37 -193 -345l-41 -294 q-30 -218 -208 -218h-35z" />
<glyph unicode="~" horiz-adv-x="1077" d="M246 580q97 133 233 133q44 0 88.5 -22.5t76 -49.5t74.5 -49.5t85 -22.5q60 0 108 32.5t97 92.5l16 -24q-41 -63 -101.5 -104.5t-127.5 -41.5q-42 0 -88.5 22.5t-80.5 49.5t-77 49.5t-78 22.5q-110 0 -207 -115q-3 4 -9.5 14.5t-8.5 12.5z" />
<glyph unicode="&#xa1;" horiz-adv-x="569" d="M190 -420l164 1172h56l-164 -1172h-56zM354 1004q4 26 26 44.5t48 18.5t41.5 -18.5t11.5 -44.5q-3 -26 -24 -45t-47 -19t-42.5 19t-13.5 45z" />
<glyph unicode="&#xa2;" horiz-adv-x="942" d="M178 303l66 457q13 90 72.5 160.5t141.5 107.5t173 41l26 186h43l-26 -186q99 -6 165 -39t107 -98l-35 -25q-34 53 -100 87.5t-143 31.5l-140 -989q87 3 175 46t124 105l37 -18q-50 -77 -140.5 -123t-201.5 -55l-26 -185h-43l26 185q-144 16 -232 97t-69 214zM223 303 q-18 -111 58 -178t204 -86l140 985q-80 -3 -151 -32.5t-123 -90t-62 -139.5z" />
<glyph unicode="&#xa3;" horiz-adv-x="913" d="M76 0l4 43h213l98 698h-213l6 41h213l41 291q10 69 37.5 132.5t76.5 122.5t130.5 94.5t185.5 35.5q131 0 217 -78l-34 -34q-75 69 -193 69q-83 0 -152 -30t-113.5 -80t-71 -107.5t-34.5 -118.5l-43 -297h338l-6 -41h-338l-98 -698h502l-4 -43h-762z" />
<glyph unicode="&#xa4;" horiz-adv-x="1148" d="M162 289l127 110q-108 140 -82 326q26 185 168 322l-90 106l30 33l91 -113q177 125 344 125q164 0 301 -121l120 109l27 -25l-127 -114q111 -141 86 -322t-172 -319l102 -113q-13 -7 -34 -29l-99 111q-180 -129 -340 -129q-161 0 -305 125l-123 -109zM248 723 q-16 -119 28 -218.5t134.5 -156.5t205.5 -57q179 0 325 126t171 306q17 120 -28 221t-136.5 158t-208.5 57q-176 0 -320.5 -126.5t-170.5 -309.5z" />
<glyph unicode="&#xa5;" horiz-adv-x="1003" d="M170 354l12 45h332l21 152h-334q1 3 2 6.5t5 14t9 26.5h299q-92 224 -340 852h60l331 -840l582 840h59l-590 -852h314l-19 -47h-331l-21 -152h342q-1 -4 -2 -6t-2 -6v2l-10 -35h-334l-49 -354h-47l49 354h-338z" />
<glyph unicode="&#xa6;" horiz-adv-x="436" d="M158 -260l98 709h49l-98 -709h-49zM301 764l96 682h49l-96 -682h-49z" />
<glyph unicode="&#xa7;" horiz-adv-x="1005" d="M131 -66l49 21q36 -87 114 -128.5t163 -43.5q56 -1 105.5 10t96.5 37t79 76t42 121q6 46 -8 86.5t-37 68.5t-66.5 58.5t-75.5 47t-85 42.5t-76 39q-96 54 -145 116.5t-37 155.5q13 85 90.5 153.5t194.5 116.5q-90 59 -131 118.5t-31 135.5q13 89 72.5 157.5t141 102 t169.5 33.5q40 0 79 -8t77 -24.5t67.5 -46t42.5 -68.5l-43 -23q-53 123 -231 123q-71 0 -140.5 -28.5t-122 -86t-63.5 -131.5q-5 -40 6 -74.5t32.5 -59.5t55 -49t68 -42.5t77.5 -39.5q3 -1 5 -2l5 -2.5l5 -2.5q51 -25 84.5 -44t76.5 -51t66.5 -63t37.5 -75.5t7 -94.5 q-10 -80 -79.5 -153.5t-168.5 -124.5q77 -49 114 -116.5t28 -129.5q-12 -83 -50 -144.5t-93.5 -95.5t-117.5 -49.5t-132 -15.5q-109 0 -198.5 52.5t-119.5 145.5zM301 641q-5 -35 4 -66.5t21.5 -52t38 -43t39.5 -32t40 -25.5l215 -113q84 41 155.5 108.5t82.5 141.5 q11 79 -36 142t-113 102l-158 82q-46 -15 -88.5 -35t-88 -50t-76 -71.5t-36.5 -87.5z" />
<glyph unicode="&#xa8;" horiz-adv-x="614" d="M254 1403q3 20 19 34.5t36 14.5t33 -14.5t10 -34.5t-20 -34.5t-37 -14.5t-32 14.5t-9 34.5zM623 1403q3 20 19 34.5t36 14.5t33 -14.5t10 -34.5t-20 -34.5t-37 -14.5t-32 14.5t-9 34.5z" />
<glyph unicode="&#xa9;" horiz-adv-x="1628" d="M197 725q28 196 149.5 363.5t302.5 265.5t377 98t350 -98t228.5 -265.5t46.5 -363.5q-27 -196 -148.5 -363.5t-303.5 -265.5t-378 -98t-349.5 98t-227.5 265.5t-47 363.5zM244 725q-26 -187 42.5 -343t212 -246.5t330.5 -90.5t356 90.5t281 246.5t138 343q20 140 -16 266 t-113.5 216.5t-196 144t-258.5 53.5q-187 0 -356 -90.5t-281.5 -247t-138.5 -342.5zM537 571l43 310q21 146 141 227.5t268 81.5q98 0 176.5 -34.5t118.5 -102.5l-39 -23q-66 115 -262 115q-85 0 -159.5 -27t-130.5 -87.5t-68 -145.5l-43 -314q-13 -87 26 -148.5t106 -88.5 t152 -27q96 0 183.5 39.5t134.5 112.5q9 -4 20.5 -10.5t20.5 -10.5q-57 -84 -157 -130t-210 -46q-95 0 -171 33t-120 105t-30 171z" />
<glyph unicode="&#xaa;" horiz-adv-x="677" d="M215 981q9 57 36 97.5t67 62.5t83.5 31.5t94.5 9.5q100 0 184 -37l14 104q11 75 -40.5 113.5t-135.5 38.5q-93 0 -182 -64l-27 27q107 80 219 80q97 0 159.5 -50t49.5 -143l-63 -456q-142 -42 -271 -39q-93 2 -147 64.5t-41 160.5zM258 981q-12 -83 32.5 -132.5 t123.5 -51.5q106 0 221 22l39 287q-102 37 -189 37q-202 0 -227 -162z" />
<glyph unicode="&#xab;" horiz-adv-x="784" d="M199 604l301 371q15 -10 28 -23q4 -4 7 -4l-283 -344q50 -91 105.5 -199.5t74.5 -144.5l-35 -22zM453 604l301 371q15 -10 28 -23q4 -4 6 -4l-286 -344q28 -53 92.5 -172t93.5 -172l-37 -22z" />
<glyph unicode="&#xac;" horiz-adv-x="1132" d="M197 739l6 43h907l-55 -399h-43l49 356h-864z" />
<glyph unicode="&#xad;" horiz-adv-x="681" d="M180 528l6 47h467l-6 -47h-467z" />
<glyph unicode="&#xae;" horiz-adv-x="1607" d="M182 725q28 196 149.5 363.5t303 265.5t377.5 98t350 -98t228 -265.5t46 -363.5q-27 -196 -148.5 -363.5t-303 -265.5t-377.5 -98q-147 0 -273.5 58t-210 155.5t-122.5 232t-19 281.5zM231 725q-20 -139 16 -264.5t114 -216t196.5 -144t257.5 -53.5q185 0 353.5 90 t280.5 246t138 342t-42 342t-211 246t-328 90q-139 0 -272.5 -53.5t-237 -144t-174.5 -216t-91 -264.5zM608 324l115 815h278q126 0 188 -65t48 -163q-15 -102 -93 -164.5t-186 -70.5l203 -352h-45l-207 348h-211l-49 -348h-41zM702 709h177q46 0 83.5 4t79 16.5t71 34 t52 59t29.5 88.5q9 65 -20.5 109t-77.5 62t-107 18h-231z" />
<glyph unicode="&#xaf;" horiz-adv-x="563" d="M221 1401l6 49h486l-6 -49h-486z" />
<glyph unicode="&#xb0;" horiz-adv-x="698" d="M305 1253q10 86 80.5 146.5t157.5 60.5q86 0 138.5 -60.5t41.5 -146.5q-12 -87 -82.5 -149t-157.5 -62q-86 0 -138 61.5t-40 149.5zM346 1251q-9 -72 32.5 -121t110.5 -49t124.5 49t64.5 121q10 72 -31 121t-110 49t-125 -49t-66 -121z" />
<glyph unicode="&#xb1;" horiz-adv-x="1132" d="M184 229l6 41h822l-6 -41h-822zM264 815l6 43h385l54 367h43l-54 -367h400l-6 -43h-400l-51 -373h-43l51 373h-385z" />
<glyph unicode="&#xb2;" horiz-adv-x="712" d="M162 649l459 410q66 58 97.5 111t20.5 114q-22 68 -76.5 102.5t-125.5 34.5q-61 0 -123 -26.5t-103 -75.5l-26 12h2l-6 4q99 125 262 125q86 0 150 -39.5t85 -115.5l-2 2q20 -77 -20 -149.5t-109 -123.5l-424 -379h479l-4 -39h-528l-2 5z" />
<glyph unicode="&#xb3;" horiz-adv-x="706" d="M193 754l40 14q23 -52 77 -81t116 -32q93 -7 182.5 47.5t102.5 147.5q13 99 -40.5 146t-148.5 42h-67l4 35h67q97 0 148 43q50 40 58.5 106t-25.5 109q-55 70 -160 70q-60 0 -119.5 -24t-99.5 -68q-23 15 -25 20q58 64 142.5 92t165 11.5t128.5 -74.5q41 -46 30.5 -129.5 t-67.5 -134.5q-17 -15 -59 -35q68 -23 93 -81t16 -128q-16 -113 -117 -176.5t-217 -57.5q-76 5 -139 40.5t-86 97.5z" />
<glyph unicode="&#xb4;" horiz-adv-x="450" d="M319 1206l148 244h80l-182 -244h-46z" />
<glyph unicode="&#xb5;" horiz-adv-x="1028" d="M94 -432l209 1493h47l-94 -672q-4 -47 -5.5 -95t13 -94t38.5 -81.5t71.5 -57.5t111.5 -22q158 0 274 113.5t146 320.5l82 588h49l-141 -1061h-45l39 281q-32 -76 -80 -132.5t-103.5 -87.5t-111.5 -46t-113 -15q-45 0 -83.5 9t-76 30t-63 61t-33.5 97l-86 -629h-45z" />
<glyph unicode="&#xb6;" horiz-adv-x="1128" d="M215 1018q12 81 52.5 157t105 138.5t160.5 100.5t208 38h435l-236 -1683h-43l231 1646h-335l-232 -1646h-45l117 837q-112 0 -199 35t-137 93.5t-71.5 131.5t-10.5 152z" />
<glyph unicode="&#xb7;" horiz-adv-x="532" d="M276 651q4 32 32.5 56t60.5 24t52 -24t15 -56t-31.5 -56t-58.5 -24t-53 24t-17 56z" />
<glyph unicode="&#xb8;" horiz-adv-x="499" d="M55 -313l8 24q42 -18 109 -18q89 0 134 56q35 44 13 86q-26 48 -114 48l-76 -8l107 129h36l-75 -94q124 12 162 -53q29 -49 -7 -110q-40 -66 -124 -84q-29 -6 -60 -5q-65 3 -113 29z" />
<glyph unicode="&#xb9;" horiz-adv-x="577" d="M319 1249l205 201h56l-117 -836h-43l110 793l-184 -184z" />
<glyph unicode="&#xba;" horiz-adv-x="745" d="M223 973l37 262q10 70 58.5 121.5t114 75.5t136.5 24q112 0 187 -58.5t61 -162.5l-37 -262q-10 -70 -58.5 -121.5t-114 -75.5t-136.5 -24q-112 0 -187 58.5t-61 162.5zM266 979q-7 -50 8.5 -87.5t47.5 -59t71 -31.5t84 -10q97 0 173.5 46t90.5 142l35 250q12 96 -51 142 t-160 46q-61 0 -115 -17t-97.5 -61t-51.5 -110z" />
<glyph unicode="&#xbb;" horiz-adv-x="788" d="M180 260l287 344q-166 302 -186 344l36 23l199 -367l-301 -371q-18 12 -29 23q-4 4 -6 4zM430 260l287 344q-174 316 -187 344l37 23l199 -367l-301 -371z" />
<glyph unicode="&#xbc;" horiz-adv-x="1368" d="M164 -4l1106 1474l14 -8l16 -12l-1107 -1473zM293 1249l205 201h55l-117 -836h-43l111 793l-185 -184zM700 254l553 592h52l-84 -594h82l-7 -35h-82l-28 -217h-39l29 217h-457zM743 250l439 2l75 547z" />
<glyph unicode="&#xbd;" horiz-adv-x="1548" d="M209 -4l1106 1474l14 -8l17 -12l-1108 -1473zM311 1249l205 201h55l-116 -836h-43l110 793l-184 -184zM836 33l458 409q65 58 96.5 111.5t20.5 114.5q-21 68 -75.5 102.5t-125.5 34.5q-61 0 -121 -27t-100 -76l-31 13h3l-7 4q99 125 260 125q86 0 151.5 -40t86.5 -116 l-2 2q19 -76 -21 -148.5t-108 -123.5l-424 -379h479l-4 -39h-528l-2 4z" />
<glyph unicode="&#xbe;" horiz-adv-x="1492" d="M199 772l41 14q23 -52 76.5 -80.5t117.5 -31.5q92 -7 181 47t102 147q14 99 -40 146.5t-149 42.5h-67l4 35h67q97 0 148 43q50 40 58.5 106t-25.5 109q-54 69 -160 69q-60 0 -119.5 -24t-97.5 -68q-12 6 -27 21q58 64 142.5 92t165 11t128.5 -75q27 -31 33 -80t-12 -99.5 t-57 -84.5q-16 -14 -60 -35q68 -23 93.5 -81.5t15.5 -127.5q-11 -76 -64.5 -132t-124 -80.5t-145.5 -20.5q-76 5 -139 40t-86 97zM324 -2l1103 1472l13 -8l16 -12q-187 -247 -553.5 -735t-552.5 -735zM780 254l553 592h51l-84 -594h82l-6 -35h-82l-28 -217h-39l28 217h-456z M823 250l439 2l75 547z" />
<glyph unicode="&#xbf;" horiz-adv-x="948" d="M92 4q27 185 159 291.5t320 124.5q7 42 66 393h37l-47 -430q-117 -7 -221.5 -53t-178 -132t-86.5 -196q-14 -108 31.5 -185t125 -112t179.5 -35q76 0 165 34.5t157 86.5l26 -31q-75 -64 -171.5 -102.5t-188.5 -38.5q-82 0 -154.5 25t-127 71.5t-80 121.5t-11.5 167z M623 993q3 26 22.5 44t44.5 18q26 0 42 -18t13 -44q-5 -26 -26 -44.5t-47 -18.5q-25 0 -39 18.5t-10 44.5z" />
<glyph unicode="&#xc0;" horiz-adv-x="1267" d="M53 0l733 1464h97q57 -269 169 -764.5t156 -699.5h-55l-119 518h-669l-256 -518h-56zM391 569h635l-188 871h-13zM717 1763h80l92 -211h-51z" />
<glyph unicode="&#xc1;" horiz-adv-x="1267" d="M53 0l733 1464h97q57 -269 169 -764.5t156 -699.5h-55l-119 518h-669l-256 -518h-56zM391 569h635l-188 871h-13zM805 1546l145 244h80l-180 -244h-45z" />
<glyph unicode="&#xc2;" horiz-adv-x="1267" d="M53 0l733 1464h97q57 -269 169 -764.5t156 -699.5h-55l-119 518h-669l-256 -518h-56zM391 569h635l-188 871h-13zM621 1518l208 208h76l152 -208h-47l-148 182l-192 -182h-49z" />
<glyph unicode="&#xc3;" horiz-adv-x="1267" d="M53 0l733 1464h97q57 -269 169 -764.5t156 -699.5h-55l-119 518h-669l-256 -518h-56zM391 569h635l-188 871h-13zM655 1593q20 40 53 61t70 21q30 0 84 -27.5t84 -27.5q49 0 84 43l27 -10q-21 -32 -55.5 -57t-61.5 -25q-32 0 -88 30.5t-88 30.5q-48 0 -84 -51z" />
<glyph unicode="&#xc4;" horiz-adv-x="1267" d="M53 0l733 1464h97q57 -269 169 -764.5t156 -699.5h-55l-119 518h-669l-256 -518h-56zM391 569h635l-188 871h-13zM618 1595q3 20 19.5 35t36.5 15t33 -15t10 -35t-19 -34.5t-36 -14.5t-33.5 14.5t-10.5 34.5zM987 1595q3 20 19 35t36 15t33 -15t10 -35t-19 -34.5 t-36 -14.5t-33 14.5t-10 34.5z" />
<glyph unicode="&#xc5;" horiz-adv-x="1267" d="M53 0l733 1464h97q57 -269 169 -764.5t156 -699.5h-55l-119 518h-669l-256 -518h-56zM391 569h635l-188 871h-13zM702 1665q10 75 62.5 117.5t120.5 42.5q67 0 103 -48t28 -114q-9 -62 -61.5 -110t-114.5 -48q-67 0 -107.5 44.5t-30.5 115.5zM750 1663q-7 -47 20.5 -81 t73.5 -34q47 0 85 35.5t44 81.5q6 47 -22 82t-74 35q-48 0 -84 -32.5t-43 -86.5z" />
<glyph unicode="&#xc6;" horiz-adv-x="1531" d="M2 0l922 1450h743l-6 -49h-623l-94 -672h559l-8 -49h-559l-88 -635h622l-6 -45h-669l71 518h-473q-91 -143 -168 -261t-111.5 -171t-54.5 -86h-57zM422 565h450l119 842l-41 -2z" />
<glyph unicode="&#xc7;" horiz-adv-x="1179" d="M184 397l92 660q18 127 107.5 221.5t211 139t253.5 44.5q142 0 257.5 -54t164.5 -155l-51 -32q-41 91 -148 141.5t-237 50.5q-117 0 -223.5 -38t-186.5 -121t-96 -197l-92 -660q-13 -86 16.5 -155t89 -111.5t136.5 -65t163 -22.5q130 0 249.5 47t188.5 135q5 -4 41 -22 q-75 -101 -208 -156t-277 -55h-21l-39 -51q125 12 162 -54q28 -50 -10 -111q-41 -67 -127 -85q-27 -5 -57 -4q-67 3 -113 28l10 29q42 -18 109 -18q89 0 133 53q35 43 12 83q-26 46 -114 46l-76 -4l74 90q-88 7 -163.5 36.5t-132.5 78.5t-84 123.5t-14 164.5z" />
<glyph unicode="&#xc8;" horiz-adv-x="1171" d="M197 0l202 1450h863l-9 -51h-811l-90 -649h750l-8 -56h-750l-90 -643h811l-6 -51h-862zM713 1743h80l94 -211h-51z" />
<glyph unicode="&#xc9;" horiz-adv-x="1171" d="M197 0l202 1450h863l-9 -51h-811l-90 -649h750l-8 -56h-750l-90 -643h811l-6 -51h-862zM803 1540l147 244h80l-182 -244h-45z" />
<glyph unicode="&#xca;" horiz-adv-x="1171" d="M197 0l202 1450h863l-9 -51h-811l-90 -649h750l-8 -56h-750l-90 -643h811l-6 -51h-862zM641 1534l209 209h76l151 -209h-49l-145 180l-191 -180h-51z" />
<glyph unicode="&#xcb;" horiz-adv-x="1171" d="M197 0l202 1450h863l-9 -51h-811l-90 -649h750l-8 -56h-750l-90 -643h811l-6 -51h-862zM627 1597q3 20 19 35t36 15t33 -15t10 -35t-19 -34.5t-36 -14.5t-33 14.5t-10 34.5zM995 1597q3 20 19.5 35t36.5 15t33 -15t10 -35t-19.5 -34.5t-36.5 -14.5t-33 14.5t-10 34.5z " />
<glyph unicode="&#xcc;" horiz-adv-x="475" d="M199 0l202 1450h52l-203 -1450h-51zM309 1757h80l94 -211h-51z" />
<glyph unicode="&#xcd;" horiz-adv-x="475" d="M199 0l202 1450h52l-203 -1450h-51zM395 1544l148 244h80l-183 -244h-45z" />
<glyph unicode="&#xce;" horiz-adv-x="475" d="M199 0l202 1450h52l-203 -1450h-51zM219 1530l211 209h76l149 -209h-51l-141 178l-191 -178h-53z" />
<glyph unicode="&#xcf;" horiz-adv-x="475" d="M199 0l202 1450h52l-203 -1450h-51zM223 1649q1 20 18 34.5t38 14.5q20 0 32.5 -14.5t10.5 -34.5q-3 -20 -20.5 -35t-37.5 -15t-32 15t-9 35zM592 1649q1 20 18 34.5t37 14.5t32.5 -14.5t10.5 -34.5q-3 -20 -20 -35t-37 -15t-32 15t-9 35z" />
<glyph unicode="&#xd0;" horiz-adv-x="1255" d="M150 696l6 45h129l100 709h449q97 0 183 -26t151.5 -75.5t97.5 -129.5t18 -179l-90 -632q-13 -98 -67.5 -177.5t-133.5 -129t-172 -75.5t-190 -26h-449l97 696h-129zM240 51h397q118 0 224.5 38t186 121t95.5 198l90 632q10 70 -8 130t-56 101.5t-93 70.5t-118.5 43 t-132.5 14h-397l-92 -658h256l-6 -45h-256z" />
<glyph unicode="&#xd1;" horiz-adv-x="1411" d="M195 0l202 1450h80l666 -1401l196 1401h52l-203 -1450h-88l-656 1384l-196 -1384h-53zM688 1559q22 43 61.5 66.5t79.5 23.5q35 0 94.5 -32t94.5 -32q55 0 96 49l31 -10q-22 -36 -61 -64t-70 -28q-36 0 -101.5 33.5t-101.5 33.5q-51 0 -94 -55z" />
<glyph unicode="&#xd2;" horiz-adv-x="1396" d="M213 401l92 650q13 98 70 178t141 129t183 75.5t202 26.5t194.5 -26.5t161.5 -75.5t105 -129t22 -178l-92 -650q-14 -98 -71.5 -178t-141.5 -130t-183 -76.5t-202 -26.5t-194.5 26.5t-161.5 76.5t-104.5 130t-20.5 178zM264 401q-13 -88 18.5 -158t94.5 -113t146 -66 t177 -23t183 23t165 66t128 113t65 158l92 650q13 92 -19.5 163t-97.5 113t-147.5 63t-177.5 21q-95 -1 -182.5 -22.5t-163 -64t-126 -113t-63.5 -160.5zM801 1749h80l92 -211h-51z" />
<glyph unicode="&#xd3;" horiz-adv-x="1396" d="M213 401l92 650q13 98 70 178t141 129t183 75.5t202 26.5t194.5 -26.5t161.5 -75.5t105 -129t22 -178l-92 -650q-14 -98 -71.5 -178t-141.5 -130t-183 -76.5t-202 -26.5t-194.5 26.5t-161.5 76.5t-104.5 130t-20.5 178zM264 401q-13 -88 18.5 -158t94.5 -113t146 -66 t177 -23t183 23t165 66t128 113t65 158l92 650q13 92 -19.5 163t-97.5 113t-147.5 63t-177.5 21q-95 -1 -182.5 -22.5t-163 -64t-126 -113t-63.5 -160.5zM877 1546l145 244h80l-180 -244h-45z" />
<glyph unicode="&#xd4;" horiz-adv-x="1396" d="M213 401l92 650q13 98 70 178t141 129t183 75.5t202 26.5t194.5 -26.5t161.5 -75.5t105 -129t22 -178l-92 -650q-14 -98 -71.5 -178t-141.5 -130t-183 -76.5t-202 -26.5t-194.5 26.5t-161.5 76.5t-104.5 130t-20.5 178zM264 401q-13 -88 18.5 -158t94.5 -113t146 -66 t177 -23t183 23t165 66t128 113t65 158l92 650q13 92 -19.5 163t-97.5 113t-147.5 63t-177.5 21q-95 -1 -182.5 -22.5t-163 -64t-126 -113t-63.5 -160.5zM692 1534l209 180h76l158 -180h-48l-151 158l-193 -158h-51z" />
<glyph unicode="&#xd5;" horiz-adv-x="1396" d="M213 401l92 650q13 98 70 178t141 129t183 75.5t202 26.5t194.5 -26.5t161.5 -75.5t105 -129t22 -178l-92 -650q-14 -98 -71.5 -178t-141.5 -130t-183 -76.5t-202 -26.5t-194.5 26.5t-161.5 76.5t-104.5 130t-20.5 178zM264 401q-13 -88 18.5 -158t94.5 -113t146 -66 t177 -23t183 23t165 66t128 113t65 158l92 650q13 92 -19.5 163t-97.5 113t-147.5 63t-177.5 21q-95 -1 -182.5 -22.5t-163 -64t-126 -113t-63.5 -160.5zM715 1577q18 37 54 57.5t73 20.5q33 0 88 -28t88 -28q51 0 86 43l31 -10q-21 -31 -56.5 -54.5t-64.5 -23.5 q-34 0 -94 29t-93 29q-48 0 -86 -47z" />
<glyph unicode="&#xd6;" horiz-adv-x="1396" d="M213 401l92 650q13 98 70 178t141 129t183 75.5t202 26.5t194.5 -26.5t161.5 -75.5t105 -129t22 -178l-92 -650q-14 -98 -71.5 -178t-141.5 -130t-183 -76.5t-202 -26.5t-194.5 26.5t-161.5 76.5t-104.5 130t-20.5 178zM264 401q-13 -88 18.5 -158t94.5 -113t146 -66 t177 -23t183 23t165 66t128 113t65 158l92 650q13 92 -19.5 163t-97.5 113t-147.5 63t-177.5 21q-95 -1 -182.5 -22.5t-163 -64t-126 -113t-63.5 -160.5zM688 1589q1 20 18 34.5t37 14.5t32.5 -14.5t10.5 -34.5q-3 -20 -20 -34.5t-37 -14.5t-32 14.5t-9 34.5zM1057 1589 q1 20 18 34.5t37 14.5t32.5 -14.5t10.5 -34.5q-3 -20 -20 -34.5t-37 -14.5t-32 14.5t-9 34.5z" />
<glyph unicode="&#xd7;" horiz-adv-x="1120" d="M242 362l374 328l-286 336l39 33l286 -334l373 326l29 -33l-373 -326l277 -321l-37 -35l-277 321l-377 -329z" />
<glyph unicode="&#xd8;" horiz-adv-x="1396" d="M213 408l90 636q14 98 71 178t140.5 129.5t182.5 76t202 26.5q139 0 246 -43q15 25 41.5 75t38.5 70q23 -7 37 -14l-80 -145q106 -59 161 -149t39 -204l-90 -636q-13 -98 -70.5 -178.5t-141.5 -130.5t-183.5 -76.5t-202.5 -26.5q-99 0 -239 43q-13 -26 -43 -81t-39 -71 l-29 9q-6 0 -10 2l82 155q-109 59 -164 148t-39 207zM262 408q-25 -186 180 -312l680 1274q-43 17 -88.5 25.5t-68 9t-74.5 0.5q-95 -1 -183 -23t-164 -64t-127.5 -113t-64.5 -161zM479 84q136 -39 223 -39q93 0 182.5 23t166 67t129 115t65.5 158l90 636q27 184 -178 310z " />
<glyph unicode="&#xd9;" horiz-adv-x="1400" d="M246 408l147 1042h51l-147 -1042q-12 -89 17 -161t87.5 -116.5t135.5 -68t165 -23.5q87 0 171 23.5t156 68t121.5 116.5t61.5 161l148 1042h51l-147 -1042q-14 -100 -69 -181t-134.5 -132t-173.5 -78t-191 -27t-183 27t-151.5 78t-97.5 132t-18 181zM807 1751h80l92 -211 h-51z" />
<glyph unicode="&#xda;" horiz-adv-x="1400" d="M246 408l147 1042h51l-147 -1042q-12 -89 17 -161t87.5 -116.5t135.5 -68t165 -23.5q87 0 171 23.5t156 68t121.5 116.5t61.5 161l148 1042h51l-147 -1042q-14 -100 -69 -181t-134.5 -132t-173.5 -78t-191 -27t-183 27t-151.5 78t-97.5 132t-18 181zM848 1542l147 244h80 l-182 -244h-45z" />
<glyph unicode="&#xdb;" horiz-adv-x="1400" d="M246 408l147 1042h51l-147 -1042q-12 -89 17 -161t87.5 -116.5t135.5 -68t165 -23.5q87 0 171 23.5t156 68t121.5 116.5t61.5 161l148 1042h51l-147 -1042q-14 -100 -69 -181t-134.5 -132t-173.5 -78t-191 -27t-183 27t-151.5 78t-97.5 132t-18 181zM696 1542l211 209h76 l150 -209h-48l-145 182l-195 -182h-49z" />
<glyph unicode="&#xdc;" horiz-adv-x="1400" d="M246 408l147 1042h51l-147 -1042q-12 -89 17 -161t87.5 -116.5t135.5 -68t165 -23.5q87 0 171 23.5t156 68t121.5 116.5t61.5 161l148 1042h51l-147 -1042q-14 -100 -69 -181t-134.5 -132t-173.5 -78t-191 -27t-183 27t-151.5 78t-97.5 132t-18 181zM684 1587 q3 20 20 34.5t37 14.5t32 -14.5t9 -34.5q-1 -20 -18 -34.5t-37 -14.5t-32.5 14.5t-10.5 34.5zM1053 1587q3 20 20 34.5t37 14.5t32 -14.5t9 -34.5q-1 -20 -18 -34.5t-37 -14.5t-32.5 14.5t-10.5 34.5z" />
<glyph unicode="&#xdd;" horiz-adv-x="1167" d="M258 1450h61l347 -817l589 817h64l-637 -875l-80 -575h-51l80 575zM750 1522l147 243h80l-182 -243h-45z" />
<glyph unicode="&#xde;" horiz-adv-x="1073" d="M172 0l203 1450h51l-43 -309q153 20 229 20q259 0 383.5 -107.5t96.5 -305.5q-16 -112 -75.5 -194t-148.5 -127t-187 -66t-208 -21h-84q4 15 8 26t5 15.5t1 9.5h70q77 0 146 8.5t143 33t129.5 63t96 103t52.5 149.5q12 86 -10.5 152t-65.5 104.5t-107.5 62.5t-126.5 32.5 t-132 8.5q-123 0 -223 -18l-152 -1090h-51z" />
<glyph unicode="&#xdf;" horiz-adv-x="1157" d="M160 0l155 1120q16 110 90 193.5t174.5 124.5t208.5 41q81 0 152.5 -22.5t126 -64t81.5 -109t15 -150.5q-7 -49 -22.5 -94t-44 -91t-77 -83t-112.5 -60q268 -86 226 -381q-16 -99 -72 -181t-134.5 -135t-171.5 -81.5t-186 -26.5q-46 1 -104 15.5t-100 33.5q0 4 10 53 q110 -46 198 -49q85 -2 169 23.5t155 72t120 119t62 158.5q25 176 -73 264t-277 86h-237l6 45h237q143 0 249.5 81.5t127.5 230.5q11 78 -13 137.5t-73.5 93.5t-111 51t-132.5 17q-70 0 -137.5 -19t-126.5 -55.5t-100.5 -98t-52.5 -139.5l-156 -1120h-49z" />
<glyph unicode="&#xe0;" d="M162 291l67 473q12 86 54 149.5t104.5 99t133 52t149.5 16.5q177 0 329 -69l-139 -1012h-43l14 127q-141 -141 -362 -141q-67 0 -125 18t-103.5 53.5t-67 95.5t-11.5 138zM205 291q-10 -69 7.5 -121t56.5 -82.5t90.5 -45.5t113.5 -15q98 0 197.5 39t163.5 106l6 8 l112 799q-122 61 -278 61q-72 0 -137 -15t-122 -45.5t-95 -85.5t-48 -128zM584 1407h80l94 -211h-51z" />
<glyph unicode="&#xe1;" d="M162 291l67 473q12 86 54 149.5t104.5 99t133 52t149.5 16.5q177 0 329 -69l-139 -1012h-43l14 127q-141 -141 -362 -141q-67 0 -125 18t-103.5 53.5t-67 95.5t-11.5 138zM205 291q-10 -69 7.5 -121t56.5 -82.5t90.5 -45.5t113.5 -15q98 0 197.5 39t163.5 106l6 8 l112 799q-122 61 -278 61q-72 0 -137 -15t-122 -45.5t-95 -85.5t-48 -128zM649 1188l148 244h80l-183 -244h-45z" />
<glyph unicode="&#xe2;" d="M162 291l67 473q12 86 54 149.5t104.5 99t133 52t149.5 16.5q177 0 329 -69l-139 -1012h-43l14 127q-141 -141 -362 -141q-67 0 -125 18t-103.5 53.5t-67 95.5t-11.5 138zM205 291q-10 -69 7.5 -121t56.5 -82.5t90.5 -45.5t113.5 -15q98 0 197.5 39t163.5 106l6 8 l112 799q-122 61 -278 61q-72 0 -137 -15t-122 -45.5t-95 -85.5t-48 -128zM467 1184l209 209h76l151 -209h-47l-147 182l-193 -182h-49z" />
<glyph unicode="&#xe3;" d="M162 291l67 473q12 86 54 149.5t104.5 99t133 52t149.5 16.5q177 0 329 -69l-139 -1012h-43l14 127q-141 -141 -362 -141q-67 0 -125 18t-103.5 53.5t-67 95.5t-11.5 138zM205 291q-10 -69 7.5 -121t56.5 -82.5t90.5 -45.5t113.5 -15q98 0 197.5 39t163.5 106l6 8 l112 799q-122 61 -278 61q-72 0 -137 -15t-122 -45.5t-95 -85.5t-48 -128zM485 1264q21 38 59 58.5t79 20.5q34 0 92 -27.5t92 -27.5q55 0 92 43l29 -10q-21 -32 -58 -56t-67 -24q-35 0 -98.5 29.5t-98.5 29.5q-49 0 -92 -49z" />
<glyph unicode="&#xe4;" d="M162 291l67 473q12 86 54 149.5t104.5 99t133 52t149.5 16.5q177 0 329 -69l-139 -1012h-43l14 127q-141 -141 -362 -141q-67 0 -125 18t-103.5 53.5t-67 95.5t-11.5 138zM205 291q-10 -69 7.5 -121t56.5 -82.5t90.5 -45.5t113.5 -15q98 0 197.5 39t163.5 106l6 8 l112 799q-122 61 -278 61q-72 0 -137 -15t-122 -45.5t-95 -85.5t-48 -128zM475 1286q3 20 19 34.5t36 14.5t33 -14.5t10 -34.5t-20 -34.5t-37 -14.5t-32 14.5t-9 34.5zM844 1286q3 20 19 34.5t36 14.5t33 -14.5t10 -34.5t-20 -34.5t-37 -14.5t-32 14.5t-9 34.5z" />
<glyph unicode="&#xe5;" d="M162 291l67 473q12 86 54 149.5t104.5 99t133 52t149.5 16.5q177 0 329 -69l-139 -1012h-43l14 127q-141 -141 -362 -141q-67 0 -125 18t-103.5 53.5t-67 95.5t-11.5 138zM205 291q-10 -69 7.5 -121t56.5 -82.5t90.5 -45.5t113.5 -15q98 0 197.5 39t163.5 106l6 8 l112 799q-122 61 -278 61q-72 0 -137 -15t-122 -45.5t-95 -85.5t-48 -128zM545 1311q10 72 62.5 111.5t123.5 39.5q70 0 107 -45.5t28 -107.5q-8 -60 -61 -106t-117 -46q-70 0 -111 42t-32 112zM590 1309q-6 -46 23.5 -79.5t76.5 -33.5q50 0 88.5 34.5t44.5 80.5 q8 45 -22 78.5t-80 33.5q-51 0 -87.5 -30.5t-43.5 -83.5z" />
<glyph unicode="&#xe6;" horiz-adv-x="1675" d="M162 291l67 473q12 86 54 149.5t104.5 99t133 52t149.5 16.5q100 0 202.5 -29t167.5 -87q118 106 295 106q70 0 130.5 -19.5t107.5 -57t69 -100t11 -142.5q-15 -105 -78.5 -180.5t-149.5 -109.5t-184 -34q-173 0 -313 70l-31 -217q-6 -64 17 -113.5t66 -78t96 -42.5 t112 -14q89 0 170.5 32.5t132.5 96.5l33 -21q-60 -72 -152 -111.5t-190 -39.5q-104 0 -188.5 39t-119.5 112l-16 -141h-39l15 127q-141 -141 -365 -141q-67 0 -125 18t-103.5 53.5t-67 95.5t-11.5 138zM205 291q-10 -69 7.5 -121t56.5 -82.5t90.5 -45.5t113.5 -15 q98 0 198.5 39t164.5 106l6 8l80 563q15 113 86 191q-50 52 -152.5 79t-189.5 27q-72 0 -136 -14.5t-119.5 -45.5t-92 -86t-46.5 -128zM934 541q87 -40 153.5 -56t159.5 -16q66 0 125 16.5t109.5 49.5t85 88.5t45.5 128.5q19 133 -65.5 206.5t-217.5 73.5q-84 0 -159 -29 t-132 -92.5t-73 -150.5z" />
<glyph unicode="&#xe7;" horiz-adv-x="888" d="M158 295l65 465q21 146 141.5 227.5t268.5 81.5q98 0 176.5 -34.5t116.5 -102.5l-37 -23q-66 115 -262 115q-85 0 -159.5 -27t-131 -87.5t-68.5 -145.5l-65 -469q-13 -87 26 -148.5t106 -88.5t152 -27q96 0 183.5 39t134.5 112q9 -4 20.5 -10t20.5 -10q-57 -82 -154 -128 t-203 -48l-49 -60q124 12 163 -53q28 -49 -8 -110q-39 -66 -123 -84q-29 -6 -60 -5q-65 3 -113 29l8 25q45 -19 111 -19q89 0 133 55q36 45 14 87q-25 49 -114 49l-78 -9l80 97q-66 4 -123 25t-100 58t-62.5 95t-9.5 129z" />
<glyph unicode="&#xe8;" horiz-adv-x="1005" d="M178 297l64 446q11 80 51.5 144t98 103.5t125 60t138.5 20.5q70 0 130.5 -19.5t107.5 -57t69 -100t11 -142.5q-15 -105 -78.5 -180.5t-149.5 -109.5t-184 -34q-173 0 -313 70l-29 -203q-10 -68 11.5 -119.5t65 -81.5t97.5 -44.5t115 -14.5q89 0 170.5 31.5t132.5 95.5 l33 -21q-60 -72 -152 -111.5t-190 -39.5q-71 0 -132.5 19.5t-109 56t-70 96.5t-12.5 135zM254 541q87 -40 153.5 -56t159.5 -16q66 0 125 16.5t109.5 49.5t85 88.5t45.5 128.5q19 133 -65.5 206.5t-217.5 73.5q-86 0 -162.5 -30.5t-133.5 -97.5t-70 -159zM571 1397h80 l94 -211h-51z" />
<glyph unicode="&#xe9;" horiz-adv-x="1005" d="M178 297l64 446q11 80 51.5 144t98 103.5t125 60t138.5 20.5q70 0 130.5 -19.5t107.5 -57t69 -100t11 -142.5q-15 -105 -78.5 -180.5t-149.5 -109.5t-184 -34q-173 0 -313 70l-29 -203q-10 -68 11.5 -119.5t65 -81.5t97.5 -44.5t115 -14.5q89 0 170.5 31.5t132.5 95.5 l33 -21q-60 -72 -152 -111.5t-190 -39.5q-71 0 -132.5 19.5t-109 56t-70 96.5t-12.5 135zM254 541q87 -40 153.5 -56t159.5 -16q66 0 125 16.5t109.5 49.5t85 88.5t45.5 128.5q19 133 -65.5 206.5t-217.5 73.5q-86 0 -162.5 -30.5t-133.5 -97.5t-70 -159zM623 1165l147 244 h80l-182 -244h-45z" />
<glyph unicode="&#xea;" horiz-adv-x="1005" d="M178 297l64 446q11 80 51.5 144t98 103.5t125 60t138.5 20.5q70 0 130.5 -19.5t107.5 -57t69 -100t11 -142.5q-15 -105 -78.5 -180.5t-149.5 -109.5t-184 -34q-173 0 -313 70l-29 -203q-10 -68 11.5 -119.5t65 -81.5t97.5 -44.5t115 -14.5q89 0 170.5 31.5t132.5 95.5 l33 -21q-60 -72 -152 -111.5t-190 -39.5q-71 0 -132.5 19.5t-109 56t-70 96.5t-12.5 135zM254 541q87 -40 153.5 -56t159.5 -16q66 0 125 16.5t109.5 49.5t85 88.5t45.5 128.5q19 133 -65.5 206.5t-217.5 73.5q-86 0 -162.5 -30.5t-133.5 -97.5t-70 -159zM449 1163l210 209 h76l150 -209h-47l-146 183l-194 -183h-49z" />
<glyph unicode="&#xeb;" horiz-adv-x="1005" d="M178 297l64 446q11 80 51.5 144t98 103.5t125 60t138.5 20.5q70 0 130.5 -19.5t107.5 -57t69 -100t11 -142.5q-15 -105 -78.5 -180.5t-149.5 -109.5t-184 -34q-173 0 -313 70l-29 -203q-10 -68 11.5 -119.5t65 -81.5t97.5 -44.5t115 -14.5q89 0 170.5 31.5t132.5 95.5 l33 -21q-60 -72 -152 -111.5t-190 -39.5q-71 0 -132.5 19.5t-109 56t-70 96.5t-12.5 135zM254 541q87 -40 153.5 -56t159.5 -16q66 0 125 16.5t109.5 49.5t85 88.5t45.5 128.5q19 133 -65.5 206.5t-217.5 73.5q-86 0 -162.5 -30.5t-133.5 -97.5t-70 -159zM451 1290 q3 20 19 34.5t36 14.5t33 -14.5t10 -34.5t-19 -34.5t-36 -14.5t-33 14.5t-10 34.5zM819 1290q3 20 19 34.5t36 14.5t33.5 -14.5t10.5 -34.5t-19.5 -34.5t-36.5 -14.5t-33 14.5t-10 34.5z" />
<glyph unicode="&#xec;" horiz-adv-x="452" d="M197 0l147 1061h51l-147 -1061h-51zM260 1434h80l92 -211h-51z" />
<glyph unicode="&#xed;" horiz-adv-x="452" d="M197 0l147 1061h53l-147 -1061h-53zM365 1194l147 244h80l-182 -244h-45z" />
<glyph unicode="&#xee;" horiz-adv-x="491" d="M215 0l147 1061h52l-148 -1061h-51zM236 1219l186 196h67l127 -196h-41l-129 167q-29 -28 -89 -89.5t-76 -77.5h-45z" />
<glyph unicode="&#xef;" horiz-adv-x="489" d="M219 0l148 1059h47l-148 -1059h-47zM250 1321q3 21 19.5 36t39.5 15q19 0 31.5 -15.5t9.5 -35.5q-3 -21 -19.5 -36t-35.5 -15q-23 0 -35.5 14.5t-9.5 36.5zM516 1321q3 21 19.5 36t37.5 15t33.5 -15t9.5 -36q-3 -22 -19 -36.5t-38 -14.5t-34 14.5t-9 36.5z" />
<glyph unicode="&#xf0;" horiz-adv-x="1064" d="M201 285l49 354q14 96 78 169.5t151 109t180 34.5q158 0 310 -78l37 265q13 93 -41 157t-152 97q-11 -29 -39 -89t-35 -77q-31 9 -32 10l73 162q-209 31 -338 -90l-28 30q76 68 181 94.5t206 8.5q8 17 18.5 38t23 47t19.5 40l33 -11l-61 -120q109 -34 169 -111t46 -186 l-156 -1104q-219 -64 -379 -64q-92 1 -167 36.5t-117.5 108.5t-28.5 169zM248 285q-18 -126 63.5 -195.5t210.5 -69.5q86 0 178 16t156 42l105 747q-161 76 -314 76q-60 -1 -117 -17t-106 -47t-83 -81.5t-44 -114.5z" />
<glyph unicode="&#xf1;" horiz-adv-x="1089" d="M178 0l141 1014q186 63 381 63q69 -2 129 -20.5t107 -54.5t69 -96.5t11 -137.5l-107 -768h-45l107 768q10 65 -10 116.5t-61.5 82.5t-94 47t-111.5 16q-88 0 -180.5 -15t-155.5 -40l-135 -975h-45zM508 1202q19 38 54.5 59t72.5 21q33 0 89 -27.5t89 -27.5q51 0 86 43 l29 -10q-21 -32 -56.5 -56t-64.5 -24q-34 0 -92.5 29.5t-91.5 29.5q-51 0 -88 -49z" />
<glyph unicode="&#xf2;" horiz-adv-x="1030" d="M188 297l66 469q14 99 79 171t151 105.5t182 34.5q149 -2 246 -83.5t77 -227.5l-65 -469q-14 -99 -78.5 -171t-150.5 -105.5t-181 -34.5q-150 2 -248 83.5t-78 227.5zM233 297q-10 -67 11 -119.5t64 -83.5t97 -47t115 -16q82 0 156 26.5t132 89t71 150.5l65 469 q10 67 -11 119.5t-64 83t-96.5 46t-113.5 15.5q-61 0 -119 -15.5t-109 -46t-86.5 -83t-45.5 -119.5zM565 1376h80l92 -211h-51z" />
<glyph unicode="&#xf3;" horiz-adv-x="1030" d="M188 297l66 469q14 99 79 171t151 105.5t182 34.5q149 -2 246 -83.5t77 -227.5l-65 -469q-14 -99 -78.5 -171t-150.5 -105.5t-181 -34.5q-150 2 -248 83.5t-78 227.5zM233 297q-10 -67 11 -119.5t64 -83.5t97 -47t115 -16q82 0 156 26.5t132 89t71 150.5l65 469 q10 67 -11 119.5t-64 83t-96.5 46t-113.5 15.5q-61 0 -119 -15.5t-109 -46t-86.5 -83t-45.5 -119.5zM645 1153l146 244h79l-180 -244h-45z" />
<glyph unicode="&#xf4;" horiz-adv-x="1030" d="M188 297l66 469q14 99 79 171t151 105.5t182 34.5q149 -2 246 -83.5t77 -227.5l-65 -469q-14 -99 -78.5 -171t-150.5 -105.5t-181 -34.5q-150 2 -248 83.5t-78 227.5zM233 297q-10 -67 11 -119.5t64 -83.5t97 -47t115 -16q82 0 156 26.5t132 89t71 150.5l65 469 q10 67 -11 119.5t-64 83t-96.5 46t-113.5 15.5q-61 0 -119 -15.5t-109 -46t-86.5 -83t-45.5 -119.5zM461 1149l205 190h75l154 -190h-47l-148 166l-190 -166h-49z" />
<glyph unicode="&#xf5;" horiz-adv-x="1030" d="M188 297l66 469q14 99 79 171t151 105.5t182 34.5q149 -2 246 -83.5t77 -227.5l-65 -469q-14 -99 -78.5 -171t-150.5 -105.5t-181 -34.5q-150 2 -248 83.5t-78 227.5zM233 297q-10 -67 11 -119.5t64 -83.5t97 -47t115 -16q82 0 156 26.5t132 89t71 150.5l65 469 q10 67 -11 119.5t-64 83t-96.5 46t-113.5 15.5q-61 0 -119 -15.5t-109 -46t-86.5 -83t-45.5 -119.5zM483 1225q18 39 52.5 60.5t70.5 21.5q30 0 83 -28t83 -28q49 0 84 43l27 -10q-19 -31 -53.5 -54.5t-61.5 -23.5q-32 0 -88 29t-88 29q-45 0 -82 -52z" />
<glyph unicode="&#xf6;" horiz-adv-x="1030" d="M188 297l66 469q14 99 79 171t151 105.5t182 34.5q149 -2 246 -83.5t77 -227.5l-65 -469q-14 -99 -78.5 -171t-150.5 -105.5t-181 -34.5q-150 2 -248 83.5t-78 227.5zM233 297q-10 -67 11 -119.5t64 -83.5t97 -47t115 -16q82 0 156 26.5t132 89t71 150.5l65 469 q10 67 -11 119.5t-64 83t-96.5 46t-113.5 15.5q-61 0 -119 -15.5t-109 -46t-86.5 -83t-45.5 -119.5zM457 1237q3 20 20 34.5t37 14.5t32 -14.5t9 -34.5q-1 -20 -18 -34.5t-37 -14.5t-32.5 14.5t-10.5 34.5zM825 1237q3 20 20.5 34.5t37.5 14.5t32 -14.5t9 -34.5 q-1 -20 -18 -34.5t-38 -14.5q-20 0 -32.5 14.5t-10.5 34.5z" />
<glyph unicode="&#xf7;" horiz-adv-x="1081" d="M203 655l8 50h858l-8 -50h-858zM537 356q3 27 22.5 43.5t46.5 18.5q26 0 41 -18t12 -44t-23 -43.5t-46 -17.5t-41 17.5t-12 43.5zM625 981q3 27 22.5 43t46.5 18q26 0 41.5 -17.5t12.5 -43.5q-5 -26 -24.5 -43.5t-45.5 -17.5t-41.5 17.5t-11.5 43.5z" />
<glyph unicode="&#xf8;" horiz-adv-x="1019" d="M188 297l66 467q14 99 79 171t151 105.5t182 34.5q81 -3 168 -35q10 20 37 73.5t42 80.5q9 -5 24.5 -7t18.5 -3l-86 -156q142 -98 119 -264l-65 -467q-14 -99 -78.5 -171t-150.5 -105.5t-181 -34.5q-97 4 -174 32q-11 -20 -40.5 -69.5t-39.5 -67.5l-35 13l82 141 q-142 101 -119 262zM233 297q-17 -120 95 -223l481 927q-96 27 -150 27q-61 0 -119 -15.5t-109 -46t-86.5 -83t-45.5 -119.5zM365 59q89 -28 155 -28q82 0 156 26.5t132 89t71 150.5l65 467q17 123 -98 223z" />
<glyph unicode="&#xf9;" horiz-adv-x="1058" d="M207 295l106 768h45l-106 -768q-9 -63 12 -114.5t62.5 -83.5t93.5 -49t108 -17q84 0 178 16.5t158 42.5l135 973h45l-141 -1012q-192 -65 -381 -65q-69 2 -129.5 22t-106.5 57.5t-67.5 97t-11.5 132.5zM573 1366h80l90 -211h-47z" />
<glyph unicode="&#xfa;" horiz-adv-x="1058" d="M207 295l106 768h45l-106 -768q-9 -63 12 -114.5t62.5 -83.5t93.5 -49t108 -17q84 0 178 16.5t158 42.5l135 973h45l-141 -1012q-192 -65 -381 -65q-69 2 -129.5 22t-106.5 57.5t-67.5 97t-11.5 132.5zM637 1147l147 244h80l-182 -244h-45z" />
<glyph unicode="&#xfb;" horiz-adv-x="1058" d="M207 295l106 768h45l-106 -768q-9 -63 12 -114.5t62.5 -83.5t93.5 -49t108 -17q84 0 178 16.5t158 42.5l135 973h45l-141 -1012q-192 -65 -381 -65q-69 2 -129.5 22t-106.5 57.5t-67.5 97t-11.5 132.5zM473 1153l209 209h76l151 -209h-47l-147 182l-193 -182h-49z" />
<glyph unicode="&#xfc;" horiz-adv-x="1058" d="M207 295l106 768h45l-106 -768q-9 -63 12 -114.5t62.5 -83.5t93.5 -49t108 -17q84 0 178 16.5t158 42.5l135 973h45l-141 -1012q-192 -65 -381 -65q-69 2 -129.5 22t-106.5 57.5t-67.5 97t-11.5 132.5zM475 1262q3 20 19 34.5t36 14.5t33 -14.5t10 -34.5t-19 -35t-36 -15 t-33 15t-10 35zM844 1262q3 20 19 34.5t36 14.5t33 -14.5t10 -34.5t-19 -35t-36 -15t-33 15t-10 35z" />
<glyph unicode="&#xfd;" horiz-adv-x="1062" d="M195 -248l38 35q60 -49 117 -68.5t142 -19.5q77 0 149.5 26t129.5 85.5t69 140.5l16 121q-179 -82 -328 -82q-95 -1 -172.5 33t-122 106t-30.5 168l106 764h47l-106 -764q-19 -122 65 -191.5t215 -72.5q54 1 108.5 12.5t92.5 24.5t111 41l22 14l131 936h45l-155 -1108 q-10 -75 -49 -133.5t-95.5 -94t-122 -53.5t-135.5 -18q-187 0 -288 98zM631 1147l147 244h80l-182 -244h-45z" />
<glyph unicode="&#xfe;" horiz-adv-x="1056" d="M121 -367l256 1815h47l-59 -414q187 45 337 45q92 -1 168 -36t120 -108t30 -171l-66 -469q-14 -97 -78.5 -171t-152.5 -109.5t-182 -34.5q-182 4 -314 69l-59 -416h-47zM233 98q87 -40 158.5 -55.5t159.5 -15.5q83 1 157.5 29t130 89.5t66.5 145.5l68 473q13 86 -24 148 t-103.5 90t-151.5 28q-195 0 -336 -47z" />
<glyph unicode="&#xff;" horiz-adv-x="1062" d="M195 -248l38 35q60 -49 117 -68.5t142 -19.5q77 0 149.5 26t129.5 85.5t69 140.5l16 121q-179 -82 -328 -82q-95 -1 -172.5 33t-122 106t-30.5 168l106 764h47l-106 -764q-19 -122 65 -191.5t215 -72.5q54 1 108.5 12.5t92.5 24.5t111 41l22 14l131 936h45l-155 -1108 q-10 -75 -49 -133.5t-95.5 -94t-122 -53.5t-135.5 -18q-187 0 -288 98zM475 1274q3 20 19 34.5t36 14.5t33 -14.5t10 -34.5t-19 -34.5t-36 -14.5t-33 14.5t-10 34.5zM844 1274q3 20 19 34.5t36 14.5t33 -14.5t10 -34.5t-19 -34.5t-36 -14.5t-33 14.5t-10 34.5z" />
<glyph unicode="&#x152;" horiz-adv-x="1886" d="M197 420l88 618q13 98 70 178t140 130t181.5 77.5t200.5 28.5q68 0 153 -27t152 -77l14 102h797l-6 -47h-748l-92 -655h684l-8 -50h-684l-90 -649h747l-6 -49h-797l13 90q-218 -105 -344 -102q-100 2 -189.5 32.5t-156 84.5t-99.5 136.5t-20 178.5zM248 420 q-10 -71 8.5 -132.5t59 -106.5t97.5 -77.5t125 -48.5t142 -16q126 0 332 100l166 1174q-164 91 -306 88q-94 0 -182 -22t-163.5 -65t-126.5 -114.5t-64 -161.5z" />
<glyph unicode="&#x153;" horiz-adv-x="1697" d="M186 297l66 469q14 99 79 171t151 105.5t182 34.5q118 -2 208 -56t111 -153q55 98 157.5 150.5t217.5 52.5q70 0 130.5 -19.5t107 -57t68.5 -100t11 -142.5q-15 -105 -78 -180t-149 -109.5t-184 -34.5q-174 0 -314 70l-28 -203l-2 -14q-6 -64 16.5 -113t65.5 -77 t95.5 -42t112.5 -14q89 0 170.5 31.5t132.5 95.5l33 -21q-60 -72 -152 -111.5t-190 -39.5q-117 0 -206 50t-113 144q-52 -94 -155 -145t-218 -53q-150 2 -248 83.5t-78 227.5zM231 297q-10 -67 11 -119.5t64 -83.5t97 -47t115 -16q82 0 156 26.5t132 89t71 150.5l65 469 q10 67 -11 119.5t-64 83t-96.5 46t-113.5 15.5q-61 0 -119 -15.5t-109 -46t-86.5 -83t-45.5 -119.5zM956 541q87 -40 154 -56t160 -16q89 0 163.5 28t130 93.5t70.5 161.5q19 133 -65 206.5t-217 73.5q-86 0 -163 -30.5t-134 -97.5t-70 -159z" />
<glyph unicode="&#x178;" horiz-adv-x="1167" d="M258 1450h61l347 -817l589 817h64l-637 -875l-80 -575h-51l80 575zM567 1589q1 20 18 34.5t38 14.5q20 0 32.5 -14.5t10.5 -34.5q-3 -20 -20.5 -34.5t-37.5 -14.5t-32 14.5t-9 34.5zM936 1589q1 20 18 34.5t37 14.5t32.5 -14.5t10.5 -34.5q-3 -20 -20 -34.5t-37 -14.5 t-32 14.5t-9 34.5z" />
<glyph unicode="&#x2c6;" horiz-adv-x="573" d="M236 1241l208 209h76l152 -209h-47l-148 182l-192 -182h-49z" />
<glyph unicode="&#x2dc;" horiz-adv-x="555" d="M246 1370q19 38 57 59t78 21q34 0 92 -27.5t92 -27.5q55 0 92 43l29 -11q-19 -31 -56.5 -55t-68.5 -24q-35 0 -98 29.5t-98 29.5q-51 0 -91 -49z" />
<glyph unicode="&#x2000;" horiz-adv-x="912" />
<glyph unicode="&#x2001;" horiz-adv-x="1825" />
<glyph unicode="&#x2002;" horiz-adv-x="912" />
<glyph unicode="&#x2003;" horiz-adv-x="1825" />
<glyph unicode="&#x2004;" horiz-adv-x="608" />
<glyph unicode="&#x2005;" horiz-adv-x="456" />
<glyph unicode="&#x2006;" horiz-adv-x="304" />
<glyph unicode="&#x2007;" horiz-adv-x="304" />
<glyph unicode="&#x2008;" horiz-adv-x="228" />
<glyph unicode="&#x2009;" horiz-adv-x="365" />
<glyph unicode="&#x200a;" horiz-adv-x="101" />
<glyph unicode="&#x2010;" horiz-adv-x="735" d="M174 590l6 49h551l-6 -49h-551z" />
<glyph unicode="&#x2011;" horiz-adv-x="735" d="M174 590l6 49h551l-6 -49h-551z" />
<glyph unicode="&#x2012;" horiz-adv-x="735" d="M174 590l6 49h551l-6 -49h-551z" />
<glyph unicode="&#x2013;" horiz-adv-x="1024" d="M156 590l6 47h880l-6 -47h-880z" />
<glyph unicode="&#x2014;" horiz-adv-x="1884" d="M109 561l14 105h1823l-15 -105h-1822zM125 575h1794l10 76h-1794zM141 590h1766l6 47h-1766z" />
<glyph unicode="&#x2018;" horiz-adv-x="425" d="M293 1090l164 360h51l-143 -360h-72z" />
<glyph unicode="&#x2019;" horiz-adv-x="466" d="M303 1087l150 363h75l-180 -363h-45z" />
<glyph unicode="&#x201a;" horiz-adv-x="485" d="M72 -248l151 316h78l-182 -316h-47z" />
<glyph unicode="&#x201c;" horiz-adv-x="663" d="M299 1090q26 54 84.5 174.5t89.5 187.5h47l-147 -362h-74zM526 1090q26 54 84.5 174.5t89.5 187.5h48l-148 -362h-74z" />
<glyph unicode="&#x201d;" horiz-adv-x="727" d="M322 1075l133 375h71q-7 -17 -67.5 -160t-93.5 -215h-43zM551 1075l133 375h72q-154 -357 -162 -375h-43z" />
<glyph unicode="&#x201e;" horiz-adv-x="749" d="M82 -248l151 318h76l-180 -318h-47zM340 -248l152 318h83l-188 -318h-47z" />
<glyph unicode="&#x2022;" horiz-adv-x="739" d="M262 725q10 76 73 131t140 55q76 0 123.5 -54.5t36.5 -131.5q-10 -76 -73 -131t-140 -55q-76 0 -123.5 54.5t-36.5 131.5z" />
<glyph unicode="&#x2026;" horiz-adv-x="1374" d="M217 59q3 26 24.5 45t47.5 19t42 -19t13 -45q-4 -26 -26 -44.5t-48 -18.5t-41.5 18.5t-11.5 44.5zM614 61q3 26 24.5 45t47.5 19t42 -19t13 -45q-5 -26 -26 -44.5t-47 -18.5t-42 18.5t-12 44.5zM1022 66q3 26 24.5 44.5t47.5 18.5t42 -18.5t13 -44.5t-24.5 -45t-47.5 -19 t-42 19t-13 45z" />
<glyph unicode="&#x202f;" horiz-adv-x="365" />
<glyph unicode="&#x2039;" horiz-adv-x="538" d="M199 604l301 371q1 -1 18 -10t21 -13q3 -3 -283 -348q28 -53 93 -172t93 -172l-45 -22z" />
<glyph unicode="&#x203a;" horiz-adv-x="557" d="M186 256q-3 3 283 348q-166 302 -186 344l43 23l198 -367l-301 -371l-17 9q-16 10 -20 14z" />
<glyph unicode="&#x205f;" horiz-adv-x="456" />
<glyph unicode="&#x20ac;" horiz-adv-x="1179" d="M147 580l15 43h117l24 168h-117l17 45h106l31 217q13 98 64.5 177.5t125.5 129.5t160.5 77t175.5 27q128 0 233.5 -55.5t153.5 -157.5l-45 -24q-41 91 -138.5 140.5t-209.5 49.5q-81 0 -158 -22.5t-143 -66t-111.5 -114.5t-58.5 -161l-31 -217h555l-16 -45h-545l-24 -168 h561l-17 -43h-550l-25 -185q-13 -87 12.5 -157.5t78 -114t122.5 -67t149 -23.5q118 0 227 48.5t185 141.5l35 -24q-76 -101 -198.5 -157t-254.5 -56q-88 0 -165.5 26.5t-137 75.5t-88 129t-14.5 178l24 185h-125z" />
<glyph unicode="&#x2122;" horiz-adv-x="1683" d="M258 1419l4 31h569l-4 -31h-266l-98 -698h-37l98 698h-266zM897 721l102 729h66l199 -612q122 205 205.5 342.5t117.5 192.5t47 77h66l-103 -729h-36l100 706h-6l-371 -612h-49l-197 606h-8q-11 -83 -47 -337.5t-51 -362.5h-35z" />
<glyph unicode="&#x25fc;" horiz-adv-x="1064" d="M0 0v1065h1065v-1065h-1065z" />
</font>
</defs>
</svg>
