<?xml version="1.0" standalone="no"?>
<!DOCTYPE svg PUBLIC "-//W3C//DTD SVG 1.1//EN" "http://www.w3.org/Graphics/SVG/1.1/DTD/svg11.dtd" >
<svg xmlns="http://www.w3.org/2000/svg">
<metadata></metadata>
<defs>
<font id="uni_sans_light_italicitalic" horiz-adv-x="1034" >
<font-face units-per-em="2048" ascent="1548" descent="-500" />
<missing-glyph horiz-adv-x="614" />
<glyph unicode="&#xfb01;" horiz-adv-x="946" d="M37 -307q79 64 98 196l176 1248q21 148 120 230.5t239 90.5l-11 -69q-112 -3 -187.5 -69.5t-90.5 -182.5l-37 -254h229l-10 -70h-229l-129 -924q-10 -77 -46.5 -140t-88.5 -103zM688 -2l150 1065h73l-149 -1065h-74zM844 1380q5 29 29 50.5t53 21.5t47 -21.5t14 -50.5 q-3 -29 -27.5 -50t-54.5 -21q-29 0 -46.5 20.5t-14.5 50.5z" />
<glyph unicode="&#xfb02;" horiz-adv-x="1011" d="M37 -307q79 64 98 196l176 1248q21 148 120 230.5t239 90.5l-11 -69q-112 -3 -187.5 -69.5t-90.5 -182.5l-37 -254h229l-10 -70h-229l-129 -924q-10 -77 -46.5 -140t-88.5 -103zM729 309l160 1141h74l-160 -1141q-36 -241 174 -241l-10 -74q-137 5 -198.5 84t-39.5 231z " />
<glyph horiz-adv-x="0" />
<glyph horiz-adv-x="682" />
<glyph unicode=" "  horiz-adv-x="614" />
<glyph unicode="&#x09;" horiz-adv-x="614" />
<glyph unicode="&#xa0;" horiz-adv-x="614" />
<glyph unicode="!" horiz-adv-x="552" d="M180 70q4 32 31 54.5t59 22.5t51.5 -22.5t14.5 -54.5t-30.5 -55t-57.5 -23t-52 23t-16 55zM246 268l166 1184h80l-166 -1184h-80z" />
<glyph unicode="&#x22;" horiz-adv-x="544" d="M293 1061l55 389h82q-16 -77 -45.5 -197.5t-44.5 -191.5h-47zM481 1061l56 389h79l-88 -389h-47z" />
<glyph unicode="#" horiz-adv-x="1464" d="M133 475l25 70h331l160 370h-373l27 72h379l201 463h80l-203 -463h379l200 463h82l-204 -463h331l-30 -72h-336l-158 -370h377q-6 -17 -15.5 -38t-13.5 -32h-383q-26 -63 -98 -229t-105 -246h-77l204 475h-381q-25 -59 -96.5 -226.5t-105.5 -248.5h-78l205 475h-324z M567 545h379l160 370h-379z" />
<glyph unicode="$" horiz-adv-x="1165" d="M113 248l77 31q33 -88 131 -142t228 -65l92 651q-82 18 -133 32.5t-114 44.5t-95 67.5t-48.5 98t-2.5 138.5q19 105 95 185t179.5 122t222.5 51l29 205h60l-29 -205q332 -6 409 -227q-18 -7 -40 -15.5t-35 -13.5q-35 87 -116.5 128.5t-205.5 49.5h-22l-86 -598 q50 -9 88 -17.5t84.5 -22t78 -30t67.5 -40.5t53 -53t35.5 -68.5t14.5 -86t-10 -106.5q-25 -106 -105 -188.5t-188 -127t-229 -52.5l-29 -207h-59l29 207q-158 11 -273 75t-153 179zM319.5 1043.5q-0.5 -26.5 5.5 -48.5t15 -41t25 -35t32.5 -29.5t40.5 -25t46.5 -20.5 t52 -17.5t55.5 -15.5t59 -14l84 587q-153 -13 -267.5 -87t-141.5 -197q-6 -30 -6.5 -56.5zM608 72q102 7 191.5 42.5t155.5 100t85 147.5q9 41 10.5 76.5t-3.5 63.5t-19 51.5t-29.5 41t-41.5 33t-48.5 26t-57.5 21t-61.5 17t-66.5 15.5l-25 4z" />
<glyph unicode="%" horiz-adv-x="1488" d="M162 -76l1251 1620l62 -43l-1250 -1618zM236 1079q24 174 115 270.5t218 96.5q133 0 194 -97.5t36 -273.5q-23 -169 -116 -268.5t-218 -99.5q-136 0 -195.5 95.5t-33.5 276.5zM315 1079q-23 -155 16 -225t144 -70q207 0 246 291q42 295 -164 295q-201 0 -242 -291z M856 373q25 179 115 272.5t219 93.5q131 0 192.5 -98.5t36.5 -271.5q-24 -169 -116 -268t-216 -99q-137 0 -197 95t-34 276zM936 373q-22 -156 17.5 -225.5t146.5 -69.5q101 0 161 71t82 220q21 150 -22.5 223.5t-142.5 73.5q-102 0 -161 -71.5t-81 -221.5z" />
<glyph unicode="&#x26;" horiz-adv-x="1251" d="M162 399q8 60 35 113.5t60 93t86.5 80t97 67t108.5 62.5q-35 50 -54.5 80.5t-43 76.5t-31.5 89t-2 86q20 138 131 222.5t250 84.5q122 0 200.5 -81.5t61.5 -203.5q-10 -67 -42 -122t-88 -99t-104.5 -72t-124.5 -65l-34 -18l338 -402l147 201l57 -31l-161 -215l200 -272 h-96l-154 202q-115 -131 -228.5 -197.5t-250.5 -66.5q-176 0 -279 106t-79 281zM242 403q-20 -147 61 -233t244 -86q205 0 407 244l-8 12l-352 424q-59 -32 -94 -52.5t-86 -57t-81.5 -70t-56.5 -81.5t-34 -100zM498 1151q-5 -40 4 -81t35 -86t41.5 -68t48.5 -68 q4 2 52.5 25.5t59.5 29.5t53 29t57 35.5t45 38t43 46t26.5 49.5t17.5 60q13 96 -43 157.5t-156 61.5q-103 0 -186 -65t-98 -164z" />
<glyph unicode="'" horiz-adv-x="380" d="M291 1059l55 391h80q-56 -288 -76 -391h-59z" />
<glyph unicode="(" horiz-adv-x="532" d="M225 389.5q-19 314.5 87.5 625.5t318.5 566l55 -45q-196 -237 -296.5 -535.5t-84 -601.5t155.5 -542q-21 -13 -70 -39q-147 257 -166 571.5z" />
<glyph unicode=")" horiz-adv-x="520" d="M14 -203q207 256 305 562.5t78.5 603.5t-145.5 553q26 16 67 38q106 -190 144 -423.5t8 -471t-132 -474.5t-265 -431z" />
<glyph unicode="*" horiz-adv-x="847" d="M236 1182q12 35 26 57l295 -100l39 313h63l-47 -313q40 13 149.5 45.5t164.5 50.5l10 -59l-318 -95l162 -260q-15 -10 -53 -39l-160 265q-39 -48 -128 -151t-97 -112q-9 7 -23 20t-18 17l234 264z" />
<glyph unicode="+" horiz-adv-x="1214" d="M203 659l10 78h473l66 461h75l-65 -461h455l-11 -78h-454l-66 -464h-76l66 464h-473z" />
<glyph unicode="," horiz-adv-x="499" d="M72 -262l174 377h98q-36 -77 -100.5 -191.5t-98.5 -185.5h-73z" />
<glyph unicode="-" horiz-adv-x="735" d="M158 575l10 78h580l-11 -78h-579z" />
<glyph unicode="." horiz-adv-x="448" d="M150 72q4 32 31 55t59 23t51 -23t14 -55t-30.5 -55t-57.5 -23t-52 23t-15 55z" />
<glyph unicode="/" horiz-adv-x="757" d="M41 -27l821 1526l66 -22q-138 -257 -409.5 -763t-409.5 -763q-15 6 -37 12.5t-31 9.5z" />
<glyph unicode="0" horiz-adv-x="1230" d="M166 375l96 688q11 80 50.5 147.5t95.5 113.5t126 78t143 47t146 15q72 0 140.5 -15t129 -47t103.5 -78t63 -113.5t9 -147.5l-97 -688q-11 -79 -50 -146.5t-95 -113.5t-125.5 -79t-142 -48t-144.5 -15q-73 0 -142 15t-130 48t-104 79t-63 113.5t-9 146.5zM246 375 q-10 -69 8 -124.5t54.5 -92t89.5 -60.5t109.5 -34.5t117.5 -10.5q77 0 150.5 17.5t142 53.5t115.5 101t59 150l96 688q10 69 -7.5 125t-53.5 92t-88.5 60t-108.5 34t-117 10q-78 0 -152 -17t-142.5 -52.5t-116 -100.5t-60.5 -151z" />
<glyph unicode="1" horiz-adv-x="641" d="M207 1126l352 326h94l-202 -1452h-78l190 1362l-307 -283q-13 10 -27.5 25.5t-21.5 21.5z" />
<glyph unicode="2" horiz-adv-x="1116" d="M78 66l803 700q175 150 198 301q18 129 -74 217t-262 94q-131 5 -238 -50t-173 -161q-18 7 -38.5 18.5t-27.5 14.5q82 138 200.5 196t289.5 60q202 -2 314 -109t87 -282q-12 -85 -71.5 -176t-157.5 -176l-723 -633h819l-10 -80h-916q-2 8 -9.5 30t-10.5 36z" />
<glyph unicode="3" horiz-adv-x="1155" d="M96 219l78 35q38 -95 143 -145t240 -50q111 0 209.5 35.5t171.5 112.5t88 184q26 179 -62 272t-268 91h-100l10 69h101q144 0 239.5 68.5t114.5 208.5q10 72 -13.5 129.5t-71.5 92t-109.5 52t-131.5 17.5q-111 0 -211.5 -42.5t-161.5 -121.5l-59 37q68 98 188.5 149 t258.5 51q85 0 159 -22t130.5 -65t83.5 -114.5t14 -162.5q-14 -99 -67.5 -181t-158.5 -126q241 -92 195 -404q-16 -99 -70.5 -179t-133 -129t-171 -75t-188.5 -26q-159 0 -277.5 59.5t-169.5 179.5z" />
<glyph unicode="4" horiz-adv-x="1101" d="M90 469l936 981h104l-137 -981h121l-10 -70h-121l-55 -399h-80l55 399h-780zM180 469h735l127 899z" />
<glyph unicode="5" horiz-adv-x="1185" d="M129 221l78 35q38 -89 138 -137.5t226 -48.5q109 0 211.5 40.5t178.5 124t92 193.5l10 78q12 83 -12.5 151t-76.5 111.5t-123 67.5t-153 24q-115 0 -210 -20.5t-201 -69.5q-5 0 -19.5 -2t-19.5 -2l94 664h856l-12 -80h-776l-68 -482q200 77 367 74q92 -1 175 -29.5 t146.5 -81.5t94.5 -137t18 -186l-10 -80q-13 -82 -51.5 -153.5t-95 -123t-126.5 -89t-146 -56t-153 -18.5q-332 0 -432 233z" />
<glyph unicode="6" horiz-adv-x="1265" d="M182 391l94 668q14 97 69.5 175.5t136 127t176 74t194.5 24.5q154 0 271 -57.5t161 -167.5l-76 -37q-40 88 -141 136t-227 48q-116 0 -218 -34.5t-176.5 -110t-89.5 -180.5l-51 -361q66 79 151 125.5t157 60t159 13.5q99 -1 185 -27t151.5 -74t97 -126t17.5 -174 l-15 -103q-13 -96 -66.5 -174t-132.5 -126.5t-172 -74.5t-192 -26q-79 -1 -151 14.5t-133.5 48.5t-104.5 80t-63.5 113.5t-10.5 144.5zM262 393q-11 -79 17 -142.5t84.5 -102.5t131.5 -59.5t160 -20.5q113 0 213 35t173 110.5t87 179.5l15 99q11 79 -15.5 142t-81.5 102.5 t-127.5 60t-156.5 20.5q-116 0 -218.5 -34.5t-177.5 -110t-90 -180.5z" />
<glyph unicode="7" horiz-adv-x="1005" d="M129 0l954 1374h-817l10 76h881l23 -68l-961 -1382h-90z" />
<glyph unicode="8" horiz-adv-x="1185" d="M123 391q20 144 106.5 246t227.5 143q-100 35 -140.5 123t-25.5 197q18 117 93.5 202.5t177 125.5t214.5 40h39q113 0 204.5 -40t143.5 -125.5t35 -202.5q-14 -100 -75 -187.5t-169 -124.5q125 -46 179.5 -150.5t33.5 -246.5q-16 -99 -70.5 -181t-133 -134t-171 -80.5 t-188.5 -28.5h-39q-96 0 -180.5 28.5t-147.5 80.5t-94.5 134t-19.5 181zM201 393q-12 -86 16.5 -155t85 -110.5t126.5 -63t146 -21.5h39q76 0 152 21.5t144.5 63t116.5 110.5t60 155q12 81 -2 143.5t-47 101.5t-85 63.5t-110 34t-128 9.5h-39q-423 0 -475 -352zM367 1100 q-10 -66 4 -117t43 -81.5t74.5 -49.5t93 -26t104.5 -7h39q357 0 397 281q10 73 -11.5 130.5t-68 92.5t-107 53.5t-130.5 18.5h-39q-148 0 -263 -76.5t-136 -218.5z" />
<glyph unicode="9" horiz-adv-x="1247" d="M164 205l78 37q40 -88 139.5 -136.5t224.5 -48.5q85 0 166 20.5t149 60t114 103t57 142.5l49 356q-51 -57 -109.5 -95.5t-120.5 -57t-115 -25t-118 -6.5q-99 1 -185 27t-151.5 74t-97.5 126t-19 174l17 111q13 96 66.5 174t132.5 126.5t172 74.5t192 26q79 1 151 -14.5 t133.5 -48.5t104.5 -80t63.5 -113.5t10.5 -144.5l-97 -686q-14 -97 -69.5 -175.5t-135.5 -127t-175.5 -74t-194.5 -24.5q-154 0 -271 57.5t-161 167.5zM305 958q-11 -79 16 -142t82 -102.5t128 -60t157 -20.5q116 0 217.5 34.5t176 110t89.5 180.5l17 107q11 79 -17 142.5 t-84.5 103t-131.5 60t-160 20.5q-84 0 -162.5 -21t-144.5 -60.5t-110.5 -102.5t-55.5 -142z" />
<glyph unicode=":" horiz-adv-x="491" d="M180 117q3 32 29 55t59 23q32 0 51.5 -22.5t16.5 -55.5q-4 -32 -31 -55t-59 -23t-51.5 23t-14.5 55zM289 891q5 32 30.5 55t57.5 23t52 -23t15 -55q-4 -32 -31 -55t-59 -23t-51 23t-14 55z" />
<glyph unicode=";" horiz-adv-x="507" d="M84 -217l149 340h117l-186 -340h-80zM295 860q3 32 29 55t59 23q32 0 51.5 -22.5t16.5 -55.5q-4 -32 -31.5 -55t-59.5 -23t-51 23t-14 55z" />
<glyph unicode="&#x3c;" horiz-adv-x="952" d="M203 584l10 73l735 406l-12 -88l-660 -354q66 -42 264.5 -164.5t297.5 -186.5l-13 -86z" />
<glyph unicode="=" horiz-adv-x="1146" d="M242 444l10 72h792l-10 -72h-792zM281 727l10 70h792l-10 -70h-792z" />
<glyph unicode="&#x3e;" horiz-adv-x="983" d="M199 184l12 82l659 355l-561 354l13 88l624 -406l-10 -73z" />
<glyph unicode="?" horiz-adv-x="962" d="M246 1298q156 156 379 156q68 0 129.5 -16t113.5 -49t87.5 -79.5t50.5 -112t4 -142.5q-14 -93 -59.5 -169t-113 -128t-145 -85t-164.5 -48q-48 -274 -71 -394h-60l54 459q115 4 218.5 47.5t177.5 127.5t87 192q19 152 -78 236.5t-246 84.5q-78 0 -169.5 -37t-157.5 -92z M330 66q4 32 30 54.5t58 22.5q31 0 49 -22.5t14 -54.5t-28.5 -54t-55.5 -22q-32 0 -51.5 22t-15.5 54z" />
<glyph unicode="@" horiz-adv-x="1562" d="M184 440q-11 84 4 176q28 200 148 366.5t299.5 262.5t378.5 96q140 0 257 -44.5t194 -122t113 -185t19 -229.5q-16 -116 -76 -226.5t-137 -186.5t-162.5 -120.5t-154.5 -40.5q-54 3 -71.5 40.5t-6.5 119.5q-69 -76 -153 -118t-158 -42q-119 0 -173 78t-38 197 q15 102 61 202t113.5 181.5t162 131.5t195.5 50q33 0 65.5 -11.5t63 -35t49.5 -67t19 -101.5q9 16 41.5 82.5t46.5 91.5h70l-264 -555q-35 -76 -39 -102q-4 -29 9 -51.5t52 -22.5q72 0 164 76.5t164.5 196t89.5 233.5q16 113 -19.5 211.5t-108.5 165.5t-175.5 105t-218.5 38 q-143 0 -275 -54.5t-230 -145.5t-163.5 -212t-83.5 -252q-10 -90 -0.5 -174.5t45.5 -159t86 -136t121 -105.5t150.5 -68t174.5 -23t193 30q16 -46 21 -56q-94 -30 -186.5 -37t-173 8t-155 48t-132.5 83.5t-105.5 114t-73.5 139.5t-37 160zM537 465q-12 -94 31.5 -153.5 t129.5 -59.5q72 0 149 49t135.5 121.5t100.5 156t52 152.5q14 109 -23.5 169.5t-130.5 60.5q-71 1 -138 -30.5t-117.5 -84t-91 -118.5t-64.5 -133.5t-33 -129.5z" />
<glyph unicode="A" horiz-adv-x="1267" d="M41 0l737 1479h117l326 -1479h-86l-113 504h-649q-9 -18 -105.5 -214.5t-140.5 -289.5h-86zM414 584h594l-181 835z" />
<glyph unicode="B" horiz-adv-x="1290" d="M174 -2l205 1454h545q109 0 191.5 -40.5t124.5 -123.5q30 -60 31 -136q0 -29 -5 -60q-11 -92 -60 -174t-131 -125l-63 -25l65 -14q168 -70 168 -267q0 -44 -8 -94q-16 -106 -63 -184t-117.5 -123t-154.5 -66.5t-185 -21.5h-543zM266 78h465h14q171 0 278 70 q111 73 136 247q5 38 5 72q0 123 -68 185q-85 79 -264 79h-9h-465zM369 803h465q144 0 240.5 72t115.5 215q4 27 4 52q0 102 -64 162q-78 74 -217 74h-464z" />
<glyph unicode="C" horiz-adv-x="1179" d="M170 403l90 644q14 100 71 181.5t139.5 132t180 78t197.5 27.5q154 0 273 -58t163 -171q-14 -6 -37 -18.5t-39 -18.5q-41 89 -145 137.5t-232 48.5q-84 0 -165 -21.5t-150 -62.5t-116.5 -107t-59.5 -148l-90 -644q-3 -23 -3 -44q0 -41 11 -78q17 -56 54.5 -96t90 -67.5 t114 -41t128.5 -13.5q127 0 245.5 49t186.5 138q12 -6 31 -17t33 -18q-75 -112 -214 -171.5t-294 -59.5q-99 0 -187 27t-156 77q-66 50 -100 132q-24 57 -24 125q0 28 4 58z" />
<glyph unicode="D" horiz-adv-x="1269" d="M182 0l203 1450h504q80 0 148.5 -14.5t125.5 -45.5t94 -77.5t53 -114.5q9 -38 8 -81q0 -33 -5 -70l-90 -646q-14 -103 -63 -181.5t-122.5 -125.5t-162 -70.5t-189.5 -23.5h-504zM272 80h424q85 0 158.5 18.5t135 56t101.5 100.5t52 146l90 646q4 31 4 59q-1 120 -81 184 q-100 80 -277 80h-424z" />
<glyph unicode="E" horiz-adv-x="1171" d="M182 2l203 1448h877l-11 -80h-796l-86 -604h735l-12 -82h-736l-84 -602h797l-10 -80h-877z" />
<glyph unicode="F" horiz-adv-x="1118" d="M182 2l203 1448h864l-10 -80h-784l-90 -633h706l-10 -80h-707l-92 -655h-80z" />
<glyph unicode="G" horiz-adv-x="1337" d="M168 412l88 632q14 100 70.5 181.5t138 132.5t178 78.5t195.5 27.5t184.5 -24t152.5 -77.5t97 -129.5q-16 -7 -39.5 -19t-36.5 -18q-38 94 -140 141t-233 47q-114 0 -216.5 -36.5t-178.5 -116t-92 -187.5l-88 -632q-4 -25 -4 -49q0 -55 20 -102q28 -67 85.5 -108t132 -63 t159.5 -22t166.5 22t151 63t117 108.5t59.5 150.5l30 215h-444l10 80h524l-41 -295q-15 -103 -71 -186t-138 -134.5t-178 -78.5t-196 -27t-188.5 27t-156 78.5t-100.5 134.5q-23 57 -23 124q0 30 5 62z" />
<glyph unicode="H" horiz-adv-x="1409" d="M180 0l203 1450h80l-96 -686h886l97 686h80l-203 -1450h-80l94 684h-887l-94 -684h-80z" />
<glyph unicode="I" horiz-adv-x="475" d="M184 0l203 1448h80l-203 -1448h-80z" />
<glyph unicode="J" horiz-adv-x="1185" d="M66 299q18 2 41.5 8t35.5 8q14 -124 120.5 -193t250.5 -69q107 0 205 37t171 117.5t89 189.5l137 973h-483l10 80h563l-147 -1053q-14 -100 -68.5 -181t-133.5 -131.5t-171 -77.5t-188 -27q-111 0 -202.5 34t-155 107.5t-74.5 177.5z" />
<glyph unicode="K" horiz-adv-x="1245" d="M182 2l203 1448h80l-119 -846q152 131 479 423t480 423h98l-776 -698q79 -102 271.5 -359t299.5 -391h-100l-537 692l-231 -202l-68 -490h-80z" />
<glyph unicode="L" horiz-adv-x="1036" d="M184 2l203 1450h80l-193 -1370h725l-10 -80h-805z" />
<glyph unicode="M" horiz-adv-x="1632" d="M176 0l203 1450h139l342 -1139l664 1139h135l-203 -1450h-80l195 1389l-680 -1170h-86l-354 1172l-195 -1391h-80z" />
<glyph unicode="N" horiz-adv-x="1411" d="M182 0l203 1450h100l650 -1350l190 1350h80l-203 -1450h-117l-636 1327l-187 -1327h-80z" />
<glyph unicode="O" horiz-adv-x="1396" d="M199 403l90 644q15 102 73.5 184.5t144.5 133.5t187 78t207 27t200 -27t166.5 -78t108.5 -133q25 -58 26 -127q0 -28 -5 -58l-90 -644q-14 -102 -73 -185t-146 -134.5t-188.5 -79t-207.5 -27.5t-199.5 27.5t-165 79t-107.5 134.5q-25 60 -25 129q0 27 4 56zM279 403 q-3 -24 -3 -46q0 -57 22 -105q30 -67 91 -109t141.5 -64t171.5 -22t178 22t160.5 64t123.5 109t63 151l90 644q4 25 4 48q-1 43 -13 81q-18 58 -58 98t-97.5 67t-124 39.5t-139.5 12.5q-91 -1 -176 -22t-158.5 -61.5t-123 -108t-62.5 -154.5z" />
<glyph unicode="P" horiz-adv-x="1261" d="M184 2l203 1448h526q220 -3 327 -147q74 -99 74 -231q0 -27 -3 -55q-18 -167 -133 -291q-142 -153 -365 -162l-22 -1h-449l-78 -561h-80zM354 643h447q200 1 324 135q99 106 109 250q1 16 2 31q0 123 -76 209q-91 101 -257 102h-446z" />
<glyph unicode="Q" horiz-adv-x="1398" d="M203 416l86 618q15 102 74 185t145.5 134t187.5 78t207 27q84 0 161 -16.5t143 -51.5t112 -84t67 -120q13 -44 13 -94q0 -28 -4 -58l-86 -618q-10 -72 -49 -142.5t-89 -117.5l-14 -13q14 -22 46.5 -69t37.5 -54q-4 -2 -72 -40l-77 116q-186 -106 -396 -106 q-106 0 -199.5 27.5t-165 79t-107.5 134.5q-25 60 -25 129q0 27 4 56zM283 416q-4 -25 -4 -49q0 -55 21 -102q31 -67 93 -109t142.5 -64t171.5 -22q190 0 346 90l-99 162l68 43l96 -156q97 104 111 207l86 618q4 25 4 49q0 43 -12 81q-18 58 -58 97.5t-97.5 66.5 t-123.5 39.5t-139 12.5q-91 -1 -176 -22t-158.5 -61.5t-123 -108t-62.5 -154.5z" />
<glyph unicode="R" horiz-adv-x="1277" d="M182 0l203 1450h526q100 0 179 -24t135.5 -72t81.5 -128q16 -52 16 -115q0 -33 -4 -69q-16 -114 -60.5 -194.5t-114.5 -126t-154 -66t-191 -20.5h-47q64 -99 200.5 -319t198.5 -316h-94l-400 635h-307l-88 -635h-80zM360 705h449q196 0 300 77.5t130 257.5q5 37 5 70 q0 122 -72 184q-88 77 -256 76h-13h-448z" />
<glyph unicode="S" horiz-adv-x="1218" d="M150 233l75 33q26 -65 88.5 -113.5t142.5 -72t167 -23.5q103 0 192.5 29t163 98t100.5 170q7 34 7 65q0 35 -9 65q-17 56 -48 90t-95 62.5t-111.5 41.5t-128.5 31q-74 16 -131.5 34.5t-118 51.5t-97.5 75t-55 106q-10 36 -9 75q0 32 6 67q21 114 103.5 196t192.5 119 t234 37q158 0 283.5 -62.5t169.5 -180.5q-15 -6 -38.5 -15.5t-37.5 -15.5q-37 95 -147 149t-240 54q-106 0 -194 -26t-158 -91.5t-90 -165.5q-7 -32 -7 -60q0 -38 12 -72q22 -58 76.5 -97.5t121.5 -65t157 -43.5q84 -17 143.5 -34.5t126.5 -51t104.5 -76t55.5 -110.5 q10 -36 9 -77q0 -36 -7 -77q-22 -117 -108.5 -203t-201.5 -126.5t-241 -40.5q-155 0 -284.5 65.5t-173.5 185.5z" />
<glyph unicode="T" horiz-adv-x="1128" d="M233 1372l11 80h1046l-10 -80h-483l-193 -1370h-80l193 1370h-484z" />
<glyph unicode="U" horiz-adv-x="1400" d="M233 418l146 1032h80l-146 -1032q-4 -25 -4 -49q1 -57 21 -105q28 -68 85 -110t132 -64t160 -22q115 0 218.5 37t181 118.5t93.5 194.5l146 1032h79l-145 -1032q-15 -104 -71.5 -188t-138 -136t-178 -80t-196.5 -28t-189 28t-156 80t-100 136q-23 58 -23 125q0 31 5 63z " />
<glyph unicode="V" horiz-adv-x="1243" d="M227 1450h88l308 -1415q99 201 340 686t360 727h86l-729 -1473h-129z" />
<glyph unicode="W" horiz-adv-x="1892" d="M238 1450h81l197 -1419h8l551 1208h84l213 -1208h8l596 1419h82l-633 -1468h-118l-203 1159q-68 -149 -257 -558t-276 -601h-118z" />
<glyph unicode="X" horiz-adv-x="1206" d="M66 0l583 723l-377 725h90l345 -655q90 110 270.5 337.5t253.5 317.5h94l-582 -725q47 -88 178.5 -341.5t202.5 -381.5h-96l-340 666l-526 -666h-96z" />
<glyph unicode="Y" horiz-adv-x="1171" d="M260 1448h92l324 -803l547 803h94l-612 -875l-80 -573h-80l80 573z" />
<glyph unicode="Z" horiz-adv-x="1153" d="M63 47l1106 1329h-876l10 74h946l37 -45l-1108 -1331h893l-10 -74h-969z" />
<glyph unicode="[" horiz-adv-x="481" d="M123 -252l254 1798h266l-10 -65h-189l-233 -1667h188l-10 -66h-266z" />
<glyph unicode="\" horiz-adv-x="741" d="M209 1528l74 22l415 -1603l-75 -25z" />
<glyph unicode="]" horiz-adv-x="430" d="M-2 -268l8 75h184l236 1668h-184l10 71h266l-256 -1814h-264z" />
<glyph unicode="^" horiz-adv-x="1169" d="M266 911l457 539h74q54 -90 158.5 -269.5t158.5 -269.5h-92l-270 480q-49 -60 -186 -227t-208 -253h-92z" />
<glyph unicode="_" horiz-adv-x="1024" d="M2 -129l10 74h983l-10 -74h-983z" />
<glyph unicode="`" horiz-adv-x="430" d="M254 1448h117l108 -225h-78z" />
<glyph unicode="a" d="M152 305l63 447q13 89 56 155t108 102t137.5 53t155.5 17q204 0 344 -67l-142 -1012h-69l14 121q-139 -133 -340 -133q-70 0 -131 18.5t-110.5 55t-73.5 99.5q-16 43 -16 94q0 24 4 50zM223 305q-3 -21 -3 -40q0 -41 13 -75q19 -50 58.5 -78.5t90.5 -42.5t110 -14 q92 0 182 39t155 105l107 759q-105 54 -264 54q-70 0 -132 -13.5t-116.5 -42.5t-91 -80.5t-45.5 -121.5z" />
<glyph unicode="b" horiz-adv-x="1026" d="M145 41l199 1409h74l-64 -446q171 71 320 71h6q68 -1 132 -21q66 -22 115 -61t73 -102q16 -43 15 -92q0 -23 -3 -47l-62 -435q-14 -103 -80.5 -180.5t-156 -115t-187.5 -39.5q-201 0 -381 59zM227 98q126 -45 310 -45q122 0 222.5 71t114.5 189l62 439q3 21 3 41 q0 37 -12 69q-19 49 -58.5 78t-91 44.5t-111.5 16.5q-136 0 -310 -73l-12 -8z" />
<glyph unicode="c" horiz-adv-x="905" d="M162 309l61 441q15 104 82.5 179t156.5 109.5t187 34.5q105 0 190 -39.5t122 -115.5l-64 -39q-33 59 -102 89.5t-156 30.5q-80 0 -151.5 -25.5t-125 -82.5t-65.5 -137l-61 -445q-3 -20 -2 -38q0 -59 28 -103q38 -58 101.5 -83.5t144.5 -25.5q95 0 181.5 41t129.5 115 l64 -33q-57 -92 -163 -144t-222 -52q-72 0 -136.5 20.5t-113.5 59t-73 102.5q-16 44 -16 93q0 23 3 48z" />
<glyph unicode="d" horiz-adv-x="1046" d="M180 307l62 443q14 101 80.5 176.5t157.5 111.5q89 35 185 35h5q161 0 301 -67l61 444h74l-197 -1403q-208 -63 -399 -63q-57 1 -109 14t-96.5 39.5t-75.5 63.5t-45 90q-8 32 -8 67q0 24 4 49zM256 307q-4 -23 -4 -45q0 -88 64 -141q79 -66 204 -66q172 0 324 49l114 828 q-140 67 -301 67q-82 -1 -152.5 -26.5t-123.5 -83t-64 -137.5z" />
<glyph unicode="e" horiz-adv-x="1005" d="M166 307l61 436q11 81 52.5 146t101.5 105t130 60.5t144 20.5q57 0 109.5 -12.5t97.5 -38.5t76 -64q30 -36 44 -90q8 -32 9 -68q0 -24 -4 -50q-16 -110 -83 -188t-157.5 -113t-193.5 -35q-159 0 -293 67l-27 -178q-3 -20 -3 -38q0 -42 14 -76q20 -50 62 -79t94 -44 t110 -15q91 0 172 34.5t129 100.5l55 -30q-58 -82 -157.5 -127t-206.5 -45q-73 0 -137 20t-113.5 58.5t-73.5 101.5q-16 43 -16 93q0 23 4 48zM268 547q155 -66 303 -66q63 0 119 15t104 46t80.5 85t43.5 125q3 21 3 41q1 59 -27 105q-36 60 -101 87t-146 27q-82 0 -155 -28 t-128 -90t-67 -149z" />
<glyph unicode="f" horiz-adv-x="536" d="M35 -307q79 64 98 196l176 1248q21 148 120 230.5t239 90.5l-11 -69q-112 -3 -187.5 -69.5t-90.5 -182.5l-37 -254h229l-10 -70h-229l-129 -924q-10 -77 -46.5 -140t-88.5 -103z" />
<glyph unicode="g" horiz-adv-x="1026" d="M152 -248l53 45q48 -43 121 -67q66 -21 136 -21q7 0 14 1q78 2 148 25.5t120 80t61 135.5l16 110q-166 -75 -315 -75h-7q-69 0 -131 20q-65 21 -113 60t-71 102q-16 43 -16 91q0 23 4 48l64 457q21 149 142.5 233t272.5 86q98 0 179.5 -18.5t195.5 -58.5l-149 -1053 q-11 -78 -51.5 -140t-99 -98.5t-126.5 -55.5t-141 -19q-94 0 -175.5 29t-131.5 83zM246 307q-4 -22 -4 -42q0 -36 12 -67q18 -48 57 -78t89.5 -45.5t109.5 -17.5q80 1 146 17.5t161 52.5l14 10l115 813q-56 26 -139.5 44t-165.5 18q-124 0 -221 -64.5t-111 -181.5z" />
<glyph unicode="h" horiz-adv-x="1081" d="M162 0l203 1450h73l-67 -485q170 75 317 75h10q92 0 168 -34q80 -36 126 -110q35 -58 36 -131q0 -22 -4 -46l-100 -719h-74l100 719q3 20 3 38q1 91 -67 144q-80 64 -206 66q-155 0 -320 -64l-124 -903h-74z" />
<glyph unicode="i" horiz-adv-x="440" d="M182 -2l150 1065h74l-150 -1065h-74zM336 1364q5 29 29 50.5t53 21.5t47 -22q15 -18 14 -40v-10q-5 -29 -29 -50.5t-53 -21.5t-47 22q-15 18 -15 40q0 5 1 10z" />
<glyph unicode="j" horiz-adv-x="448" d="M-94 -373l10 74q230 6 264 254l156 1108h74l-156 -1108q-21 -153 -114 -237.5t-234 -90.5zM346 1374q3 29 28 50.5t54 21.5t46 -21q15 -18 15 -42v-9q-5 -29 -28.5 -50t-52.5 -21t-48 21q-15 17 -15 40q0 5 1 10z" />
<glyph unicode="k" horiz-adv-x="966" d="M160 0l202 1448h74l-139 -995l674 606h90l-524 -475l376 -584h-88l-348 530l-194 -170l-50 -360h-73z" />
<glyph unicode="l" horiz-adv-x="475" d="M195 309l159 1141h74l-160 -1141q-5 -35 -5 -65q0 -176 179 -176l-10 -74q-136 5 -198 84q-45 58 -45 156q0 35 6 75z" />
<glyph unicode="m" horiz-adv-x="1683" d="M166 0l139 999q131 86 344 86q107 0 186.5 -32t133.5 -115q76 80 150.5 107.5t172.5 31.5h20q148 0 238 -83q79 -72 78 -193q0 -28 -4 -58l-104 -743h-76l102 739q6 30 6 56q0 99 -81 158q-75 53 -181 53q-17 0 -35 -1q-131 -11 -209 -89q-52 -52 -63 -123l-111 -793h-71 l110 793q1 12 1 23q0 66 -48 112q-58 54 -144 70q-48 9 -100 9q-40 1 -82 -5q-96 -12 -163 -52l-133 -950h-76z" />
<glyph unicode="n" horiz-adv-x="1089" d="M164 0l141 1006q227 77 397 77q71 -2 134 -23t110.5 -59.5t70.5 -100.5q16 -44 16 -95q0 -22 -3 -45l-106 -760h-74l106 760q3 20 3 38q0 92 -67 146q-80 64 -200 64q-82 0 -170 -18t-153 -44l-131 -946h-74z" />
<glyph unicode="o" horiz-adv-x="1030" d="M176 309l62 441q11 78 53 141.5t102 102.5t130 59.5t143 21.5q73 -1 137 -21.5t113 -59.5q48 -38 72 -102q16 -43 17 -94q0 -23 -4 -48l-61 -441q-15 -104 -82 -179.5t-156.5 -110t-189.5 -35.5q-72 1 -136 21.5t-113.5 59.5t-73.5 103q-16 44 -16 93q0 23 3 48zM250 309 q-3 -20 -2 -38q0 -40 12 -75q20 -50 60.5 -79.5t92 -44.5t109.5 -15q78 0 149 25t127 84.5t68 142.5l62 441q3 20 3 38q0 40 -14 74q-20 50 -61 79t-92.5 43.5t-108.5 14.5q-80 0 -150.5 -24.5t-126 -82.5t-67.5 -142z" />
<glyph unicode="p" d="M90 -371l195 1387q109 34 197 47.5t200 13.5q73 -1 136 -20t112.5 -56.5t72.5 -100.5q15 -42 15 -92q0 -26 -4 -54l-62 -441q-15 -102 -82 -178.5t-158 -112.5q-88 -36 -183 -36h-5q-182 4 -301 63l-59 -420h-74zM233 127q148 -66 304 -66q80 1 151.5 27.5t124.5 84 t64 136.5l61 445q3 22 3 42q0 57 -27 100q-36 57 -99 81t-143 24q-193 0 -322 -43z" />
<glyph unicode="q" d="M170 315l61 441q11 78 52 140.5t100.5 101.5t129 59.5t142.5 21.5q121 0 193 -13t186 -52l-194 -1385h-74l59 428q-158 -70 -319 -73h-5q-96 0 -175 36q-80 38 -125 116q-34 59 -34 132q0 23 3 47zM246 315q-3 -21 -3 -41q0 -55 27 -98q36 -59 100.5 -85.5t145.5 -27.5 q163 0 322 80l116 820q-112 41 -311 41q-79 0 -150 -27t-122.5 -83.5t-61.5 -133.5z" />
<glyph unicode="r" horiz-adv-x="628" d="M147 0l105 745q18 126 108 210t215 108q27 5 68 5q32 0 72 -3l-10 -72q-32 3 -59 3q-43 0 -75 -7q-95 -22 -163.5 -84.5t-81.5 -159.5l-105 -745h-74z" />
<glyph unicode="s" horiz-adv-x="864" d="M96 180l66 39q99 -164 286 -164h13q99 2 189 62t104 166q3 17 3 32q0 25 -8 49q-12 36 -33.5 59.5t-57 41t-66.5 26.5t-72 17q-55 10 -97 21.5t-88.5 34t-74.5 52t-42 75.5q-9 30 -10 64q0 19 3 40q11 77 54.5 137t104 93t133.5 47q48 9 93 9q24 -1 48 -3 q68 -8 128.5 -36t95.5 -73l-53 -54q-35 46 -96.5 72t-130 26t-132.5 -20.5t-112 -72.5t-61 -125q-3 -27 1 -51t10.5 -41.5t23.5 -33.5t28.5 -26t37.5 -20.5t38 -15t42.5 -11.5t39.5 -8.5t39 -7.5q283 -53 283 -256q0 -20 -3 -41q-13 -90 -70.5 -158t-135.5 -101.5 t-164 -35.5h-13q-110 0 -198 46q-94 50 -146 146z" />
<glyph unicode="t" horiz-adv-x="563" d="M201 319l161 1131h74l-55 -389h229l-10 -74h-229l-97 -668q-3 -22 -3 -42q1 -91 63 -145q76 -64 192 -64l-10 -70q-72 1 -133.5 22t-106.5 60q-44 38 -65 100q-14 40 -14 88q0 25 4 51z" />
<glyph unicode="u" horiz-adv-x="1058" d="M193 305l106 756h74l-107 -756q-3 -20 -2 -38q0 -91 66 -145q80 -64 200 -65q83 0 172.5 18.5t151.5 43.5l131 942h74l-139 -1002q-231 -77 -400 -77q-150 3 -248 88q-82 71 -82 186q0 24 3 49z" />
<glyph unicode="v" horiz-adv-x="956" d="M195 1061h79l211 -1018l498 1018h78l-529 -1075h-108q-10 45 -98 456.5t-131 618.5z" />
<glyph unicode="w" horiz-adv-x="1458" d="M195 1061h75l160 -1028l389 1028h113l106 -1024q75 172 234.5 538.5t210.5 485.5h76l-467 -1067h-125l-97 1018l-387 -1018h-118z" />
<glyph unicode="x" horiz-adv-x="923" d="M63 0l420 530l-272 531h92l236 -479l370 479h90l-417 -531l270 -530h-90l-238 479l-370 -479h-91z" />
<glyph unicode="y" horiz-adv-x="1062" d="M174 -248l53 45q48 -43 121 -67q66 -21 136 -21q7 0 14 1q78 2 148 25.5t120 80t61 135.5l17 110q-166 -75 -316 -75h-5q-96 0 -175 34q-80 36 -125 111q-34 56 -34 127q0 24 4 49l104 752h74l-105 -752q-4 -21 -4 -41q0 -37 12 -68q19 -48 58 -77.5t90 -45.5t110 -18 q80 1 146.5 17.5t161.5 52.5l14 10l129 922h72l-156 -1106q-11 -78 -51.5 -140t-99 -98.5t-126.5 -55.5t-141 -19q-94 0 -175.5 29t-131.5 83z" />
<glyph unicode="z" horiz-adv-x="894" d="M55 57l809 934h-637l9 70h708l25 -49l-811 -940h667l-8 -72h-729z" />
<glyph unicode="{" horiz-adv-x="587" d="M207 608l8 62q41 6 75 36.5t56.5 78t37.5 101.5t24 118l43 296q7 58 19.5 98.5t35.5 75.5t62 52.5t94 17.5h61l-8 -69h-56q-72 0 -96.5 -39.5t-36.5 -137.5l-43 -299q-21 -157 -74 -246t-104 -108q12 -10 18 -16.5t22 -26.5t23.5 -45.5t15.5 -63t7 -91.5t-10 -119 l-43 -301q-12 -84 7 -122t91 -38h45l-10 -72h-49q-193 0 -160 227l41 299q44 309 -96 332z" />
<glyph unicode="|" horiz-adv-x="471" d="M150 -344l264 1888h73l-264 -1888h-73z" />
<glyph unicode="}" horiz-adv-x="571" d="M33 -250l10 72h45q72 0 102 38t41 122l43 301q11 77 31 140t38 98.5t43.5 64.5t37.5 38.5t29 20.5q-46 19 -75 108t-5 246l43 299q7 58 7.5 97t-20.5 59.5t-71 20.5h-56l9 69h61q73 0 109.5 -32t40.5 -86t-4 -126l-43 -296q-19 -134 2.5 -227.5t95.5 -106.5l-8 -62 q-54 -9 -94.5 -59.5t-62.5 -118t-34 -154.5l-41 -299q-33 -227 -225 -227h-49z" />
<glyph unicode="~" horiz-adv-x="1103" d="M246 569q112 156 250 156q35 0 72 -14.5t56 -26.5t56 -39q43 -30 74.5 -45.5t64.5 -15.5q57 0 104.5 34.5t98.5 96.5l33 -35q-45 -69 -109.5 -114.5t-136.5 -45.5q-87 0 -174 68q-5 3 -21 14.5t-22 15t-20 12.5t-22.5 12.5t-21 8.5t-24 6.5t-23.5 1.5q-58 0 -104 -33 t-98 -96q-9 8 -18.5 21t-14.5 18z" />
<glyph unicode="&#xa1;" horiz-adv-x="569" d="M176 -434l162 1153h82l-162 -1153h-82zM338 983q5 32 30.5 55t57.5 23t52 -23t16 -55q-5 -32 -30.5 -55t-57.5 -23t-52 23t-16 55z" />
<glyph unicode="&#xa2;" horiz-adv-x="942" d="M166 315l61 433q13 94 72.5 165.5t140.5 109t176 46.5l27 188h64l-27 -186q97 -6 172 -46.5t111 -109.5l-64 -38q-29 51 -89 81.5t-140 38.5l-131 -931q211 17 286 155l60 -33q-49 -87 -145 -137t-212 -59l-26 -187h-64l27 187q-144 16 -231 99.5t-68 223.5zM240 315 q-16 -106 51.5 -168.5t183.5 -78.5l131 927q-122 -16 -207 -78t-98 -165z" />
<glyph unicode="&#xa3;" horiz-adv-x="937" d="M61 0l9 68h213l92 659h-213l10 70h213l39 276q8 56 27 109t54.5 106t84 92t121 63.5t159.5 24.5q72 0 127 -21.5t109 -70.5l-59 -51q-71 74 -193 74q-79 0 -144.5 -28.5t-107.5 -75.5t-67 -102t-33 -114l-41 -282h338l-11 -70h-337l-93 -659h502l-8 -68h-791z" />
<glyph unicode="&#xa4;" horiz-adv-x="1148" d="M145 289l123 110q-101 130 -75 326q24 180 172 322q-10 11 -44 52.5t-53 61.5l49 45l95 -112q163 116 340 116t309 -116q15 13 59.5 55t61.5 57l37 -45l-127 -114q104 -133 79 -322q-25 -184 -172 -322q35 -38 103 -114l-53 -45l-95 112q-160 -114 -340 -114 q-188 0 -313 110q-18 -14 -63 -56t-56 -52zM262 723q-16 -114 27 -210.5t130.5 -152t198.5 -55.5q171 0 312 122t166 296q16 117 -27 214t-131.5 152.5t-200.5 55.5q-170 0 -310 -122.5t-165 -299.5z" />
<glyph unicode="&#xa5;" horiz-adv-x="1003" d="M152 344l18 70h332l18 127h-336q12 47 23 71h289l-338 840h92l321 -823q518 765 557 823h97l-580 -840h305q-8 -23 -24 -71h-332l-19 -127h347q-5 -13 -13.5 -39.5t-9.5 -30.5h-334l-47 -344h-74l48 344h-340z" />
<glyph unicode="&#xa6;" horiz-adv-x="436" d="M141 -274l101 716h77l-100 -716h-78zM285 750l94 675h78l-95 -675h-77z" />
<glyph unicode="&#xa7;" horiz-adv-x="1015" d="M113 -59l80 34q11 -59 56 -100.5t105.5 -58.5t130 -12.5t130 29t104.5 75.5t53 119q6 40 -6.5 75t-32 59.5t-59.5 52t-69 42.5t-81 41q-41 20 -64.5 32t-60.5 34.5t-58.5 40.5t-47 45t-38 54.5t-18.5 63t-1 74.5q13 90 85.5 158.5t182.5 113.5q-82 55 -119 113.5 t-27 138.5q14 94 78 164.5t149 103.5t177 33t172 -39.5t106 -121.5q-16 -7 -37 -20t-34 -19q-25 63 -85 95t-139 32q-68 0 -134 -26t-115.5 -79.5t-59.5 -122.5q-6 -46 10 -84t54.5 -69t75.5 -52t95 -50q3 -1 4 -1.5l3 -1.5l4 -2q38 -19 62 -31.5t59 -34t56.5 -39.5t46 -45 t36.5 -53.5t18 -61t1 -71.5q-12 -82 -77.5 -159t-154.5 -123q70 -44 103 -111.5t24 -134.5q-10 -70 -44 -128t-82.5 -96t-109.5 -62t-124 -30t-125 4.5t-114 36t-90.5 71t-53.5 104.5zM319 645q-12 -82 21 -127t106 -84l216 -108q78 39 144.5 102t76.5 131q9 75 -36 135 t-108 97l-151 77q-251 -83 -269 -223z" />
<glyph unicode="&#xa8;" horiz-adv-x="614" d="M238 1391q3 26 24 44.5t47 18.5t42.5 -18.5t13.5 -44.5t-24.5 -45t-47.5 -19t-42 19t-13 45zM606 1391q3 26 24.5 44.5t47.5 18.5t42 -18.5t13 -44.5t-24 -45t-47 -19t-42.5 19t-13.5 45z" />
<glyph unicode="&#xa9;" horiz-adv-x="1626" d="M182 725q21 150 99.5 287.5t191.5 236.5t259 158t296 59t279 -59t214.5 -158t125 -236.5t18.5 -287.5t-99.5 -287.5t-191.5 -236.5t-259 -158t-296 -59t-279 59t-214.5 158t-125 236.5t-18.5 287.5zM252 725q-19 -138 16.5 -262t112.5 -214t194 -143t254 -53 q184 0 351 89.5t278.5 244.5t136.5 338q20 137 -15.5 261.5t-112.5 214.5t-194.5 143t-254.5 53t-269 -53t-234.5 -143t-172.5 -214.5t-90 -261.5zM522 571l43 310q15 104 82.5 179t156.5 109.5t187 34.5q105 0 190 -39.5t122 -115.5l-64 -39q-33 59 -102 89.5t-156 30.5 q-80 0 -151.5 -25.5t-125 -82.5t-65.5 -137l-43 -314q-9 -62 10 -111t59 -78.5t92 -44.5t111 -15q95 0 182.5 41t129.5 114l63 -33q-57 -92 -163 -144t-222 -52q-72 0 -136.5 20.5t-113.5 59t-73 102t-13 141.5z" />
<glyph unicode="&#xaa;" horiz-adv-x="677" d="M201 981q18 109 101.5 162t195.5 53q89 0 170 -37l12 90q10 68 -38.5 102.5t-125.5 34.5q-47 0 -97.5 -17.5t-88.5 -49.5l-43 45q105 92 241 92q103 0 170.5 -55.5t53.5 -155.5l-66 -459q-129 -39 -283 -36q-101 2 -159 65t-43 166zM272 981q-10 -76 31 -122t113 -48 q98 0 207 20l36 265q-91 32 -176 32q-189 0 -211 -147z" />
<glyph unicode="&#xab;" horiz-adv-x="784" d="M180 604l318 389q13 -8 31.5 -22.5t25.5 -18.5l-285 -348q25 -49 56.5 -108.5t70.5 -131t58 -108.5q-16 -8 -35.5 -20t-32.5 -19zM434 604l318 389q13 -8 31.5 -22.5t25.5 -18.5l-289 -348q32 -62 99 -183t90 -165q-16 -8 -35.5 -20t-32.5 -19z" />
<glyph unicode="&#xac;" horiz-adv-x="1132" d="M180 725l10 72h936l-59 -428h-72l49 356h-864z" />
<glyph unicode="&#xad;" horiz-adv-x="681" d="M180 514l10 76h465l-10 -76h-465z" />
<glyph unicode="&#xae;" horiz-adv-x="1607" d="M168 725q21 150 99.5 287.5t191.5 236.5t259 158t296 59t279 -59t214.5 -158t125 -236.5t18.5 -287.5t-99.5 -287.5t-191.5 -236.5t-259 -158t-296 -59t-279 59t-214.5 158t-125 236.5t-18.5 287.5zM240 725q-25 -183 42.5 -337t209 -243.5t323.5 -89.5q137 0 268.5 53 t234 142.5t172.5 213.5t89 261q20 137 -15.5 261t-112.5 213.5t-193.5 142.5t-253.5 53q-182 0 -349 -89.5t-278 -243.5t-137 -337zM592 309l117 842h292q133 0 198.5 -68t51.5 -172q-14 -106 -88 -170.5t-178 -83.5q85 -152 203 -348h-82l-207 348h-188l-49 -348h-70z M719 723h162q44 0 79.5 3.5t75 15.5t67.5 32t49 55t28 82q12 88 -46 131t-147 43h-217z" />
<glyph unicode="&#xaf;" horiz-adv-x="524" d="M186 1364l11 78h499l-10 -78h-500z" />
<glyph unicode="&#xb0;" horiz-adv-x="714" d="M268 1206q15 104 100.5 178t190.5 74q104 0 168 -74t49 -178q-13 -105 -98.5 -180.5t-190.5 -75.5q-104 0 -168.5 75t-50.5 181zM334 1204q-11 -80 36.5 -136t125.5 -56t141.5 56.5t73.5 135.5q11 80 -36.5 136.5t-125.5 56.5t-141.5 -57t-73.5 -136z" />
<glyph unicode="&#xb1;" horiz-adv-x="1161" d="M190 215l11 70h839l-10 -70h-840zM264 801l10 71h385l54 367h71l-53 -367h399l-10 -71h-399l-51 -373h-72l51 373h-385z" />
<glyph unicode="&#xb2;" horiz-adv-x="692" d="M145 651q88 72 250 212.5t213 183.5q51 44 85 104t26 113q-19 59 -71.5 88t-115.5 28t-126 -24q-72 -29 -107 -76q-11 4 -29.5 14t-25.5 13q28 38 70 69.5t85 46.5h-2q58 19 119 22t116.5 -10t98 -51t57.5 -96q15 -74 -24 -153t-109 -134l-399 -335h457l-8 -64h-547 q-3 9 -6.5 24t-6.5 25z" />
<glyph unicode="&#xb3;" horiz-adv-x="706" d="M176 760l55 26q19 -52 76.5 -81.5t122.5 -32.5q47 -3 101 11.5t96 45.5q59 42 71 121q13 91 -38 135t-140 39h-41l6 51h41q32 0 72.5 14.5t67.5 36.5q45 38 51.5 97.5t-23.5 99.5q-48 63 -149 63q-64 0 -121 -24t-92 -72l-45 27q40 62 112.5 92.5t143.5 34.5 q59 3 114 -17.5t86 -60.5q51 -59 37 -149.5t-90 -143.5l-33 -16q72 -24 97.5 -98t-1.5 -154.5t-94 -126.5q-50 -37 -114.5 -55t-128.5 -15h2q-83 5 -151.5 44t-90.5 108z" />
<glyph unicode="&#xb4;" horiz-adv-x="450" d="M297 1204l164 246h112l-204 -246h-72z" />
<glyph unicode="&#xb5;" horiz-adv-x="1028" d="M78 -446l211 1509h78l-95 -674q-5 -39 -5.5 -74.5t5 -73.5t20.5 -68.5t39 -55t63.5 -38t90.5 -13.5q100 0 183.5 43.5t143.5 137t79 226.5l82 590h78l-142 -1063h-73l24 211q-58 -100 -165.5 -157.5t-219.5 -57.5q-90 0 -148.5 31.5t-90.5 109.5l-82 -583h-76z" />
<glyph unicode="&#xb6;" horiz-adv-x="1128" d="M201 1012q12 84 53 161t107 139.5t165 100t215 37.5h445l-238 -1688h-67l229 1633h-307l-230 -1633h-69l117 824q-112 0 -200 36.5t-138.5 97t-72 136t-9.5 156.5z" />
<glyph unicode="&#xb7;" horiz-adv-x="532" d="M279 651q4 32 31 55t59 23t51 -23t14 -55t-30.5 -55t-57.5 -23t-52 23t-15 55z" />
<glyph unicode="&#xb8;" horiz-adv-x="499" d="M37 -334l16 47q51 -22 119 -22q49 0 94.5 24.5t52.5 73.5q7 47 -27.5 69.5t-86.5 22.5q-45 0 -70 -10l-6 6q9 12 113 141h57l-74 -92q82 17 128 -30t34 -107q-11 -57 -53.5 -96.5t-95 -52.5t-108 -7t-93.5 33z" />
<glyph unicode="&#xb9;" horiz-adv-x="577" d="M297 1237l221 215h74l-117 -827h-69l104 735l-164 -164z" />
<glyph unicode="&#xba;" horiz-adv-x="745" d="M209 973l35 237q10 75 61.5 130.5t120 80.5t143.5 25q74 0 135.5 -25t98 -80.5t26.5 -130.5l-34 -237q-16 -111 -112.5 -173.5t-213.5 -62.5t-196.5 62.5t-63.5 173.5zM281 979q-12 -89 47.5 -131.5t150.5 -42.5q57 0 107.5 15.5t91.5 56.5t49 102l31 225 q12 89 -48 131.5t-151 42.5q-57 0 -107.5 -15.5t-91.5 -56.5t-49 -102z" />
<glyph unicode="&#xbb;" horiz-adv-x="788" d="M160 256l289 348q-32 62 -99 183t-90 165q16 8 35.5 20t32.5 19l207 -387l-318 -389q-13 8 -31.5 22.5t-25.5 18.5zM410 256l288 348q-32 63 -99 185t-89 163q16 8 35.5 20t32.5 19l206 -387l-317 -389q-13 8 -31.5 22.5t-25.5 18.5z" />
<glyph unicode="&#xbc;" horiz-adv-x="1394" d="M172 -6l1124 1497q13 -8 29 -20.5t23 -16.5l-1125 -1495zM242 1237l221 215h69l-116 -827h-66l105 735l-166 -162zM725 270l524 566h94l-79 -572h67l-8 -57h-68l-28 -207h-66l29 207h-432zM797 264h401l78 514z" />
<glyph unicode="&#xbd;" horiz-adv-x="1556" d="M199 -6l1124 1497q13 -8 28.5 -20t22.5 -17l-1124 -1495zM262 1237l221 215h70l-117 -827h-65l104 735l-166 -162zM889 49q80 66 236 207.5t229 202.5q70 59 92 108.5t12 110.5q-22 76 -95.5 102t-155.5 -0.5t-134 -89.5q-10 3 -61 29q26 38 68.5 70t86.5 47h-2 q55 20 112.5 23t109.5 -11t92 -52t55 -96q14 -74 -24.5 -152.5t-108.5 -133.5l-393 -346h448l-8 -68h-547q-3 9 -6 24.5t-6 24.5z" />
<glyph unicode="&#xbe;" horiz-adv-x="1556" d="M219 760l55 26q19 -52 76.5 -81.5t122.5 -32.5q47 -3 101 11.5t96 45.5q59 42 71 121q13 91 -38 135t-140 39h-41l6 51h41q32 0 72.5 14.5t67.5 36.5q45 38 51.5 97.5t-23.5 99.5q-48 63 -149 63q-64 0 -121 -24t-92 -72l-45 27q40 62 112.5 92.5t143.5 34.5 q59 3 114 -17.5t86 -60.5q51 -59 37 -149.5t-90 -143.5l-33 -16q72 -24 97.5 -98t-1.5 -154.5t-94 -126.5q-50 -37 -114.5 -55t-128.5 -15h2q-83 5 -151.5 44t-90.5 108zM367 -6l1124 1497q13 -8 27.5 -20t21.5 -17l-1124 -1495zM862 270l524 566h95l-80 -572h67l-8 -57h-67 l-29 -207h-66l29 207h-432zM934 264h401l78 514z" />
<glyph unicode="&#xbf;" horiz-adv-x="978" d="M80 4q11 75 43 139.5t78 111.5t105 84t122 60t131 35q7 42 34.5 188.5t37.5 204.5h59l-51 -458q-116 -4 -219.5 -47.5t-177 -127.5t-86.5 -192q-19 -152 77.5 -236.5t245.5 -84.5q78 0 170 37t156 92l39 -50q-155 -155 -381 -155q-85 0 -159.5 26t-130 74t-81.5 125.5 t-12 173.5zM608 993q4 32 28.5 54t55.5 22q33 0 52.5 -22t15.5 -54t-31 -55t-59 -23q-31 0 -49 23t-13 55z" />
<glyph unicode="&#xc0;" horiz-adv-x="1267" d="M41 0l737 1479h117l326 -1479h-86l-113 504h-649q-9 -18 -105.5 -214.5t-140.5 -289.5h-86zM414 584h594l-181 835zM678 1780h117l108 -226h-78z" />
<glyph unicode="&#xc1;" horiz-adv-x="1267" d="M41 0l737 1479h117l326 -1479h-86l-113 504h-649q-9 -18 -105.5 -214.5t-140.5 -289.5h-86zM414 584h594l-181 835zM786 1546l162 246h113l-203 -246h-72z" />
<glyph unicode="&#xc2;" horiz-adv-x="1267" d="M41 0l737 1479h117l326 -1479h-86l-113 504h-649q-9 -18 -105.5 -214.5t-140.5 -289.5h-86zM414 584h594l-181 835zM594 1524l231 223h90l170 -223h-75l-148 176l-190 -176h-78z" />
<glyph unicode="&#xc3;" horiz-adv-x="1267" d="M41 0l737 1479h117l326 -1479h-86l-113 504h-649q-9 -18 -105.5 -214.5t-140.5 -289.5h-86zM414 584h594l-181 835zM645 1585q21 50 57.5 75.5t79.5 25.5q27 0 78.5 -28t81.5 -28q49 0 80 47l39 -16q-17 -45 -54 -73.5t-73 -28.5q-32 0 -87.5 27.5t-84.5 27.5 q-45 0 -76 -53z" />
<glyph unicode="&#xc4;" horiz-adv-x="1267" d="M41 0l737 1479h117l326 -1479h-86l-113 504h-649q-9 -18 -105.5 -214.5t-140.5 -289.5h-86zM414 584h594l-181 835zM643 1608q3 26 22.5 43.5t43.5 17.5q22 0 36 -17.5t11 -43.5q-3 -25 -22.5 -43.5t-41.5 -18.5q-23 0 -37.5 18.5t-11.5 43.5zM967 1608q3 26 21.5 43.5 t41.5 17.5t36.5 -17.5t10.5 -43.5q-3 -25 -21.5 -43.5t-41.5 -18.5t-36.5 18.5t-10.5 43.5z" />
<glyph unicode="&#xc5;" horiz-adv-x="1267" d="M41 0l737 1479h117l326 -1479h-86l-113 504h-649q-9 -18 -105.5 -214.5t-140.5 -289.5h-86zM414 584h594l-181 835zM698 1692q9 70 67.5 122t129.5 52q69 0 110.5 -53t30.5 -123q-9 -68 -65.5 -120t-124.5 -52q-70 0 -114.5 51.5t-33.5 122.5zM758 1690q-6 -46 22 -78.5 t72 -32.5q45 0 82 34t43 79t-21.5 78.5t-72.5 33.5t-81 -34.5t-44 -79.5z" />
<glyph unicode="&#xc6;" horiz-adv-x="1562" d="M8 -2l934 1452h764l-10 -76h-623l-88 -631h559l-12 -77h-559l-82 -592h622l-10 -74h-698l69 504h-450q-51 -79 -164 -253t-164 -253h-88zM471 580h414l112 802l-16 2z" />
<glyph unicode="&#xc7;" horiz-adv-x="1179" d="M170 403l90 644q14 100 71 181.5t139.5 132t180 78t197.5 27.5q154 0 273 -58t163 -171q-14 -6 -37 -18.5t-39 -18.5q-41 89 -145 137.5t-232 48.5q-84 0 -165 -21.5t-150 -62.5t-116.5 -107t-59.5 -148l-90 -644q-9 -66 8 -122t54.5 -96t90 -67.5t114 -41t128.5 -13.5 q127 0 245.5 49t186.5 138l64 -35q-75 -112 -214 -171.5t-294 -59.5h-4l-41 -56q80 17 126 -30t34 -107q-11 -57 -53.5 -96.5t-95.5 -52.5t-108.5 -7t-93.5 33l17 47q51 -22 118 -22q49 0 95 24.5t53 73.5q7 47 -28 69.5t-87 22.5q-44 0 -69 -10l-7 6q51 68 86 107 q-90 7 -168 37t-136.5 81t-86 128.5t-14.5 170.5z" />
<glyph unicode="&#xc8;" horiz-adv-x="1171" d="M182 2l203 1448h877l-11 -80h-796l-86 -604h735l-12 -82h-736l-84 -602h797l-10 -80h-877zM678 1757h117l110 -225h-78z" />
<glyph unicode="&#xc9;" horiz-adv-x="1171" d="M182 2l203 1448h877l-11 -80h-796l-86 -604h735l-12 -82h-736l-84 -602h797l-10 -80h-877zM797 1538l164 246h112l-205 -246h-71z" />
<glyph unicode="&#xca;" horiz-adv-x="1171" d="M182 2l203 1448h877l-11 -80h-796l-86 -604h735l-12 -82h-736l-84 -602h797l-10 -80h-877zM600 1524l231 223h91l170 -223h-82l-142 174l-186 -174h-82z" />
<glyph unicode="&#xcb;" horiz-adv-x="1171" d="M182 2l203 1448h877l-11 -80h-796l-86 -604h735l-12 -82h-736l-84 -602h797l-10 -80h-877zM608 1616q4 26 26 44.5t48 18.5t41.5 -18.5t11.5 -44.5q-3 -26 -24 -45t-47 -19t-42.5 19t-13.5 45zM977 1616q4 26 26 44.5t48 18.5t41.5 -18.5t11.5 -44.5q-3 -26 -24.5 -45 t-47.5 -19t-42 19t-13 45z" />
<glyph unicode="&#xcc;" horiz-adv-x="475" d="M184 0l203 1448h80l-203 -1448h-80zM270 1759h117l107 -213h-78z" />
<glyph unicode="&#xcd;" horiz-adv-x="475" d="M184 0l203 1448h80l-203 -1448h-80zM387 1534l164 246h113l-205 -246h-72z" />
<glyph unicode="&#xce;" horiz-adv-x="475" d="M184 0l203 1448h80l-203 -1448h-80zM201 1526l233 223h90l168 -223h-86l-137 166l-184 -166h-84z" />
<glyph unicode="&#xcf;" horiz-adv-x="475" d="M184 0l203 1448h80l-203 -1448h-80zM209 1624q3 26 24.5 45t47.5 19t42 -19t13 -45t-24.5 -44.5t-47.5 -18.5t-42 18.5t-13 44.5zM578 1624q3 26 24 45t47 19t42.5 -19t13.5 -45t-24.5 -44.5t-47.5 -18.5t-42 18.5t-13 44.5z" />
<glyph unicode="&#xd0;" horiz-adv-x="1255" d="M133 682l10 74h129l99 694h463q80 0 152.5 -16.5t134.5 -51t105 -84t62 -119.5t8 -153l-86 -604q-14 -102 -69.5 -184.5t-136.5 -133t-177 -77.5t-196 -27h-463l94 682h-129zM258 80h383q85 0 166 21.5t149.5 63t115.5 108t58 149.5l87 604q12 83 -16.5 150.5 t-85.5 108.5t-132 63t-160 22h-383l-88 -614h256l-10 -74h-256z" />
<glyph unicode="&#xd1;" horiz-adv-x="1411" d="M182 0l203 1450h100l650 -1350l190 1350h80l-203 -1450h-117l-636 1327l-187 -1327h-80zM682 1577q22 51 64 76.5t92 25.5q31 0 90 -28.5t94 -28.5q56 0 90 51l45 -18q-18 -46 -59.5 -76.5t-83.5 -30.5q-36 0 -100 30t-97 30q-52 0 -90 -58z" />
<glyph unicode="&#xd2;" horiz-adv-x="1396" d="M199 403l90 644q15 102 73.5 184.5t144.5 133.5t187 78t207 27t200 -27t166.5 -78t108.5 -133.5t21 -184.5l-90 -644q-14 -102 -73 -185t-146 -134.5t-188.5 -79t-207.5 -27.5t-199.5 27.5t-165 79t-107 134.5t-21.5 185zM279 403q-12 -84 18.5 -151t91.5 -109t141.5 -64 t171.5 -22t178 22t160.5 64t123.5 109t63 151l90 644q10 71 -8.5 129.5t-58.5 98t-97.5 66.5t-124 39.5t-139.5 12.5q-91 -1 -176 -22t-158.5 -61.5t-123 -108t-62.5 -154.5zM725 1772h117l110 -226h-78z" />
<glyph unicode="&#xd3;" horiz-adv-x="1396" d="M199 403l90 644q15 102 73.5 184.5t144.5 133.5t187 78t207 27t200 -27t166.5 -78t108.5 -133.5t21 -184.5l-90 -644q-14 -102 -73 -185t-146 -134.5t-188.5 -79t-207.5 -27.5t-199.5 27.5t-165 79t-107 134.5t-21.5 185zM279 403q-12 -84 18.5 -151t91.5 -109t141.5 -64 t171.5 -22t178 22t160.5 64t123.5 109t63 151l90 644q10 71 -8.5 129.5t-58.5 98t-97.5 66.5t-124 39.5t-139.5 12.5q-91 -1 -176 -22t-158.5 -61.5t-123 -108t-62.5 -154.5zM883 1544l164 246h112l-205 -246h-71z" />
<glyph unicode="&#xd4;" horiz-adv-x="1396" d="M199 403l90 644q15 102 73.5 184.5t144.5 133.5t187 78t207 27t200 -27t166.5 -78t108.5 -133.5t21 -184.5l-90 -644q-14 -102 -73 -185t-146 -134.5t-188.5 -79t-207.5 -27.5t-199.5 27.5t-165 79t-107 134.5t-21.5 185zM279 403q-12 -84 18.5 -151t91.5 -109t141.5 -64 t171.5 -22t178 22t160.5 64t123.5 109t63 151l90 644q10 71 -8.5 129.5t-58.5 98t-97.5 66.5t-124 39.5t-139.5 12.5q-91 -1 -176 -22t-158.5 -61.5t-123 -108t-62.5 -154.5zM674 1530l233 223h90l168 -223h-80l-143 172l-184 -172h-84z" />
<glyph unicode="&#xd5;" horiz-adv-x="1396" d="M199 403l90 644q15 102 73.5 184.5t144.5 133.5t187 78t207 27t200 -27t166.5 -78t108.5 -133.5t21 -184.5l-90 -644q-14 -102 -73 -185t-146 -134.5t-188.5 -79t-207.5 -27.5t-199.5 27.5t-165 79t-107 134.5t-21.5 185zM279 403q-12 -84 18.5 -151t91.5 -109t141.5 -64 t171.5 -22t178 22t160.5 64t123.5 109t63 151l90 644q10 71 -8.5 129.5t-58.5 98t-97.5 66.5t-124 39.5t-139.5 12.5q-91 -1 -176 -22t-158.5 -61.5t-123 -108t-62.5 -154.5zM731 1573q19 47 55.5 70.5t79.5 23.5q27 0 79 -25.5t81 -25.5q51 0 78 45l41 -16 q-17 -42 -53 -70.5t-72 -28.5q-31 0 -87 28t-85 28q-48 0 -76 -54z" />
<glyph unicode="&#xd6;" horiz-adv-x="1396" d="M199 403l90 644q15 102 73.5 184.5t144.5 133.5t187 78t207 27t200 -27t166.5 -78t108.5 -133.5t21 -184.5l-90 -644q-14 -102 -73 -185t-146 -134.5t-188.5 -79t-207.5 -27.5t-199.5 27.5t-165 79t-107 134.5t-21.5 185zM279 403q-12 -84 18.5 -151t91.5 -109t141.5 -64 t171.5 -22t178 22t160.5 64t123.5 109t63 151l90 644q10 71 -8.5 129.5t-58.5 98t-97.5 66.5t-124 39.5t-139.5 12.5q-91 -1 -176 -22t-158.5 -61.5t-123 -108t-62.5 -154.5zM688 1604q3 26 24.5 44.5t47.5 18.5t42 -18.5t13 -44.5q-5 -26 -26.5 -45t-47.5 -19t-42 19 t-11 45zM1057 1604q3 26 24 44.5t47 18.5t42.5 -18.5t13.5 -44.5q-5 -26 -26.5 -45t-47.5 -19t-42 19t-11 45z" />
<glyph unicode="&#xd7;" horiz-adv-x="1148" d="M250 362l375 328l-287 336l63 53l287 -334l371 326l47 -53l-373 -326l277 -321l-62 -56l-276 322l-375 -330z" />
<glyph unicode="&#xd8;" horiz-adv-x="1396" d="M199 408l90 636q12 82 53 152.5t101 119.5t135.5 84t157 51.5t165.5 16.5q119 0 240 -38l82 145q13 -5 32.5 -12t28.5 -11l-82 -149q105 -58 159 -149t36 -210l-90 -636q-14 -102 -73 -185t-146 -134.5t-188.5 -79t-207.5 -27.5q-109 0 -231 38l-80 -151 q-16 5 -35.5 10.5t-30.5 9.5l84 158q-107 59 -161.5 150t-38.5 211zM279 408q-22 -181 159 -291l662 1243q-112 31 -211 31q-91 -1 -176.5 -22t-158.5 -61.5t-122.5 -108.5t-62.5 -155zM502 92q105 -31 203 -31q90 0 176.5 22.5t160 64t123.5 109t62 151.5l90 636 q25 183 -154 289z" />
<glyph unicode="&#xd9;" horiz-adv-x="1400" d="M233 418l146 1032h80l-146 -1032q-12 -85 16.5 -153.5t85.5 -110.5t132 -64t160 -22q115 0 218.5 37t181 118.5t93.5 194.5l146 1032h79l-145 -1032q-15 -104 -71.5 -188t-138 -136t-178 -80t-196.5 -28t-189 28t-156 80t-100 136t-18 188zM745 1749h117l109 -225h-78z " />
<glyph unicode="&#xda;" horiz-adv-x="1400" d="M233 418l146 1032h80l-146 -1032q-12 -85 16.5 -153.5t85.5 -110.5t132 -64t160 -22q115 0 218.5 37t181 118.5t93.5 194.5l146 1032h79l-145 -1032q-15 -104 -71.5 -188t-138 -136t-178 -80t-196.5 -28t-189 28t-156 80t-100 136t-18 188zM842 1526l164 246h112 l-205 -246h-71z" />
<glyph unicode="&#xdb;" horiz-adv-x="1400" d="M233 418l146 1032h80l-146 -1032q-12 -85 16.5 -153.5t85.5 -110.5t132 -64t160 -22q115 0 218.5 37t181 118.5t93.5 194.5l146 1032h79l-145 -1032q-15 -104 -71.5 -188t-138 -136t-178 -80t-196.5 -28t-189 28t-156 80t-100 136t-18 188zM670 1532l231 223h90l170 -223 h-76l-147 176l-190 -176h-78z" />
<glyph unicode="&#xdc;" horiz-adv-x="1400" d="M233 418l146 1032h80l-146 -1032q-12 -85 16.5 -153.5t85.5 -110.5t132 -64t160 -22q115 0 218.5 37t181 118.5t93.5 194.5l146 1032h79l-145 -1032q-15 -104 -71.5 -188t-138 -136t-178 -80t-196.5 -28t-189 28t-156 80t-100 136t-18 188zM684 1612q3 26 24.5 44.5 t47.5 18.5t42 -18.5t13 -44.5t-24.5 -45t-47.5 -19t-42 19t-13 45zM1053 1612q3 26 24 44.5t47 18.5t42.5 -18.5t13.5 -44.5t-24.5 -45t-47.5 -19t-42 19t-13 45z" />
<glyph unicode="&#xdd;" horiz-adv-x="1171" d="M260 1448h92l324 -803l547 803h94l-612 -875l-80 -573h-80l80 573zM756 1526l164 246h112l-205 -246h-71z" />
<glyph unicode="&#xde;" horiz-adv-x="1097" d="M180 0l203 1454h82l-41 -299q128 16 215 16q267 0 392.5 -108.5t96.5 -314.5q-13 -93 -56 -167t-104 -120.5t-140.5 -77t-161 -43t-170.5 -12.5h-101q3 18 10.5 41.5t10.5 36.5h84q75 0 142 8.5t138 31.5t124 60t92.5 99t50.5 143q11 83 -10.5 146t-63.5 99.5t-104 59.5 t-122 31t-129 8q-107 0 -206 -17l-150 -1075h-82z" />
<glyph unicode="&#xdf;" horiz-adv-x="1173" d="M143 -2l158 1122q17 115 94 201.5t180.5 128t215.5 41.5q83 0 157 -22.5t130.5 -65.5t84.5 -113t15 -157q-13 -99 -74 -187t-170 -145q252 -93 213 -377q-17 -102 -74.5 -187t-138 -139.5t-176 -84t-191.5 -27.5q-49 1 -110.5 17.5t-108.5 37.5q10 55 14 84 q130 -54 213 -57q112 -2 216.5 39t181 125t92.5 194q16 114 -25 191.5t-121 111.5t-192 33h-213l10 74h213q137 0 239.5 78t121.5 219q8 60 -5.5 109t-43.5 81t-73.5 53.5t-92.5 31t-103 9.5q-67 0 -132 -18t-122 -52.5t-96.5 -93t-50.5 -133.5l-158 -1122h-78z" />
<glyph unicode="&#xe0;" d="M150 305l63 447q13 89 56 155t108 102t137.5 53t155.5 17q204 0 344 -67l-140 -1012h-71l14 121q-139 -133 -340 -133q-70 0 -131 18.5t-110.5 55t-73 99.5t-12.5 144zM221 305q-17 -126 62 -188t206 -62q92 0 182.5 39t155.5 105l107 759q-105 54 -264 54 q-70 0 -132 -13.5t-116.5 -42.5t-91 -80.5t-45.5 -121.5zM530 1411h117l111 -225h-78z" />
<glyph unicode="&#xe1;" d="M150 305l63 447q13 89 56 155t108 102t137.5 53t155.5 17q204 0 344 -67l-140 -1012h-71l14 121q-139 -133 -340 -133q-70 0 -131 18.5t-110.5 55t-73 99.5t-12.5 144zM221 305q-17 -126 62 -188t206 -62q92 0 182.5 39t155.5 105l107 759q-105 54 -264 54 q-70 0 -132 -13.5t-116.5 -42.5t-91 -80.5t-45.5 -121.5zM635 1165l164 246h112l-204 -246h-72z" />
<glyph unicode="&#xe2;" d="M152 305l63 447q13 89 56 155t108 102t137.5 53t155.5 17q204 0 344 -67l-142 -1012h-69l14 121q-139 -133 -340 -133q-70 0 -131 18.5t-110.5 55t-73 99.5t-12.5 144zM223 305q-9 -65 10 -114.5t58.5 -78.5t90.5 -43t110 -14q92 0 182 39t155 105l107 759 q-105 54 -264 54q-70 0 -132 -13.5t-116.5 -42.5t-91 -80.5t-45.5 -121.5zM442 1227l232 223h90l170 -223h-76l-147 176l-191 -176h-78z" />
<glyph unicode="&#xe3;" d="M150 305l63 447q13 89 56 155t108 102t137.5 53t155.5 17q204 0 344 -67l-140 -1012h-71l14 121q-139 -133 -340 -133q-70 0 -131 18.5t-110.5 55t-73 99.5t-12.5 144zM221 305q-17 -126 62 -188t206 -62q92 0 182.5 39t155.5 105l107 759q-105 54 -264 54 q-70 0 -132 -13.5t-116.5 -42.5t-91 -80.5t-45.5 -121.5zM487 1210q19 47 58.5 71t85.5 24q30 0 86 -27t88 -27q50 0 86 47l41 -16q-17 -42 -55.5 -70t-77.5 -28q-35 0 -93.5 27.5t-89.5 27.5q-52 0 -86 -53z" />
<glyph unicode="&#xe4;" d="M150 305l63 447q13 89 56 155t108 102t137.5 53t155.5 17q204 0 344 -67l-140 -1012h-71l14 121q-139 -133 -340 -133q-70 0 -131 18.5t-110.5 55t-73 99.5t-12.5 144zM221 305q-17 -126 62 -188t206 -62q92 0 182.5 39t155.5 105l107 759q-105 54 -264 54 q-70 0 -132 -13.5t-116.5 -42.5t-91 -80.5t-45.5 -121.5zM471 1257q3 26 24.5 45t47.5 19t42 -19t13 -45q-4 -26 -26 -44.5t-48 -18.5t-41.5 18.5t-11.5 44.5zM840 1257q3 26 24 45t47 19t42.5 -19t13.5 -45q-4 -26 -26 -44.5t-48 -18.5t-41.5 18.5t-11.5 44.5z" />
<glyph unicode="&#xe5;" d="M150 305l63 447q13 89 56 155t108 102t137.5 53t155.5 17q204 0 344 -67l-140 -1012h-71l14 121q-139 -133 -340 -133q-70 0 -131 18.5t-110.5 55t-73 99.5t-12.5 144zM221 305q-17 -126 62 -188t206 -62q92 0 182.5 39t155.5 105l107 759q-105 54 -264 54 q-70 0 -132 -13.5t-116.5 -42.5t-91 -80.5t-45.5 -121.5zM547 1311q9 65 66 112t126 47q70 0 112.5 -48t33.5 -113q-8 -62 -65 -110t-126 -48q-68 0 -111.5 47.5t-35.5 112.5zM608 1309q-5 -42 21.5 -71.5t70.5 -29.5q45 0 81.5 31.5t41.5 71.5q6 42 -20.5 73t-71.5 31 t-81 -32t-42 -74z" />
<glyph unicode="&#xe6;" horiz-adv-x="1683" d="M154 305l63 447q13 89 58.5 155.5t113 103t142 53.5t157.5 17q212 0 356 -102q125 96 295 96q57 0 109.5 -12.5t97.5 -38.5t76 -63.5t44.5 -91t4.5 -117.5q-16 -110 -83 -188t-157.5 -113t-193.5 -35q-161 0 -295 67l-27 -178q-9 -64 11.5 -114t62.5 -79t94 -44t111 -15 q91 0 171 34.5t128 100.5l57 -30q-58 -82 -157.5 -127t-206.5 -45q-94 0 -173 32t-122 93l-12 -111h-72l14 121q-139 -133 -340 -133q-70 0 -131 18.5t-110.5 55t-73 99.5t-12.5 144zM225 305q-9 -65 10 -114.5t58.5 -78.5t90.5 -43t110 -14q92 0 183.5 39t156.5 105l77 544 q12 104 78 183q-49 44 -135.5 67t-171.5 23q-69 0 -132.5 -14.5t-120 -44t-94 -82t-46.5 -121.5zM950 547q155 -66 305 -66q63 0 119 15t104 46t80.5 85t43.5 125q12 85 -24.5 146t-101 88.5t-145.5 27.5q-82 0 -156 -28.5t-129 -91t-67 -149.5z" />
<glyph unicode="&#xe7;" horiz-adv-x="901" d="M145 309l62 441q15 104 82.5 179t156.5 109.5t187 34.5q105 0 189.5 -39.5t121.5 -115.5l-63 -39q-33 59 -102 89.5t-156 30.5q-80 0 -151.5 -25.5t-125 -82.5t-65.5 -137l-62 -445q-9 -62 10 -111t59.5 -78.5t92.5 -45t111 -15.5q95 0 181.5 41t129.5 115l63 -33 q-53 -89 -154.5 -140t-213.5 -56l-37 -47q84 18 131.5 -23t36.5 -98q-15 -74 -81 -114t-142.5 -38t-129.5 37l17 45q54 -22 125 -22q49 0 91.5 22.5t49.5 69.5q5 45 -29 61.5t-90 16.5q-44 0 -71 -11l-7 6q66 86 74 97q-66 5 -122.5 28t-98.5 62t-61.5 98.5t-8.5 132.5z" />
<glyph unicode="&#xe8;" horiz-adv-x="1005" d="M166 307l61 436q11 81 52.5 146t101.5 105t130 60.5t144 20.5q57 0 109.5 -12.5t97.5 -38.5t76 -63.5t44.5 -91t4.5 -117.5q-16 -110 -83 -188t-157.5 -113t-193.5 -35q-159 0 -293 67l-27 -178q-9 -64 11.5 -114t62 -79t93.5 -44t110 -15q91 0 171 34.5t128 100.5 l57 -30q-58 -82 -157.5 -127t-206.5 -45q-73 0 -137 20t-113.5 58.5t-73 101.5t-12.5 141zM268 547q155 -66 303 -66q63 0 119 15t104 46t80.5 85t43.5 125q12 85 -24.5 146t-101 88.5t-145.5 27.5q-82 0 -155.5 -28.5t-128 -91t-66.5 -149.5zM520 1409h117l111 -225h-78z " />
<glyph unicode="&#xe9;" horiz-adv-x="1005" d="M166 307l61 436q11 81 52.5 146t101.5 105t130 60.5t144 20.5q57 0 109.5 -12.5t97.5 -38.5t76 -63.5t44.5 -91t4.5 -117.5q-16 -110 -83 -188t-157.5 -113t-193.5 -35q-159 0 -293 67l-27 -178q-9 -64 11.5 -114t62 -79t93.5 -44t110 -15q91 0 171 34.5t128 100.5 l57 -30q-58 -82 -157.5 -127t-206.5 -45q-73 0 -137 20t-113.5 58.5t-73 101.5t-12.5 141zM268 547q155 -66 303 -66q63 0 119 15t104 46t80.5 85t43.5 125q12 85 -24.5 146t-101 88.5t-145.5 27.5q-82 0 -155.5 -28.5t-128 -91t-66.5 -149.5zM600 1169l164 246h113 l-205 -246h-72z" />
<glyph unicode="&#xea;" horiz-adv-x="1005" d="M166 307l61 436q11 81 52.5 146t101.5 105t130 60.5t144 20.5q57 0 109.5 -12.5t97.5 -38.5t76 -63.5t44.5 -91t4.5 -117.5q-16 -110 -83 -188t-157.5 -113t-193.5 -35q-159 0 -293 67l-27 -178q-9 -64 11.5 -114t62 -79t93.5 -44t110 -15q91 0 171 34.5t128 100.5 l57 -30q-58 -82 -157.5 -127t-206.5 -45q-73 0 -137 20t-113.5 58.5t-73 101.5t-12.5 141zM268 547q155 -66 303 -66q63 0 119 15t104 46t80.5 85t43.5 125q12 85 -24.5 146t-101 88.5t-145.5 27.5q-82 0 -155.5 -28.5t-128 -91t-66.5 -149.5zM434 1167l232 224h90l170 -224 h-76l-148 176l-190 -176h-78z" />
<glyph unicode="&#xeb;" horiz-adv-x="1005" d="M166 307l61 436q11 81 52.5 146t101.5 105t130 60.5t144 20.5q57 0 109.5 -12.5t97.5 -38.5t76 -63.5t44.5 -91t4.5 -117.5q-16 -110 -83 -188t-157.5 -113t-193.5 -35q-159 0 -293 67l-27 -178q-9 -64 11.5 -114t62 -79t93.5 -44t110 -15q91 0 171 34.5t128 100.5 l57 -30q-58 -82 -157.5 -127t-206.5 -45q-73 0 -137 20t-113.5 58.5t-73 101.5t-12.5 141zM268 547q155 -66 303 -66q63 0 119 15t104 46t80.5 85t43.5 125q12 85 -24.5 146t-101 88.5t-145.5 27.5q-82 0 -155.5 -28.5t-128 -91t-66.5 -149.5zM449 1270q3 26 24 44.5 t47 18.5t42 -18.5t13 -44.5q-5 -26 -26 -45t-47 -19t-42 19t-11 45zM817 1270q3 26 24.5 44.5t47.5 18.5t42 -18.5t13 -44.5q-5 -26 -26.5 -45t-47.5 -19t-42 19t-11 45z" />
<glyph unicode="&#xec;" horiz-adv-x="452" d="M182 0l148 1063h78l-148 -1063h-78zM215 1360h117l108 -225h-78z" />
<glyph unicode="&#xed;" horiz-adv-x="452" d="M182 0l148 1061h78l-148 -1061h-78zM311 1128l164 246h113l-205 -246h-72z" />
<glyph unicode="&#xee;" horiz-adv-x="491" d="M180 1112l211 219h76l145 -219h-73l-125 160l-158 -160h-76zM205 0l147 1061h78l-147 -1061h-78z" />
<glyph unicode="&#xef;" horiz-adv-x="489" d="M205 2l147 1057h82l-147 -1057h-82zM227 1255q3 27 24 46.5t50 19.5q25 0 41.5 -20t13.5 -46q-4 -27 -26 -46t-47 -19q-29 0 -45 18.5t-11 46.5zM494 1255q3 27 23.5 46.5t47.5 19.5t44 -19.5t14 -46.5q-4 -28 -26 -46.5t-50 -18.5t-43 18.5t-10 46.5z" />
<glyph unicode="&#xf0;" horiz-adv-x="1077" d="M203 303l47 336q15 100 81 176t156 112.5t187 35.5q156 0 295 -72l35 248q11 87 -36.5 146t-133.5 89l-76 -166q-13 5 -30.5 12l-22.5 9l71 157q-107 12 -184.5 -10t-145.5 -84l-40 45q76 72 182.5 101t216.5 14l63 133q11 -4 30 -9.5t26 -8.5l-60 -127q109 -35 168 -111 t43 -190l-155 -1098l-103 -31q-102 -28 -291 -28q-95 1 -172 36t-121 109.5t-30 175.5zM274 303q-16 -119 63 -184.5t202 -65.5q87 0 174.5 14t144.5 37l100 713q-149 70 -301 70q-123 -2 -220 -65.5t-115 -180.5z" />
<glyph unicode="&#xf1;" horiz-adv-x="1089" d="M164 0l141 1006q227 77 397 77q71 -2 134 -23t110.5 -59.5t70.5 -101t13 -139.5l-106 -760h-74l106 760q16 119 -64 183.5t-200 64.5q-82 0 -170 -18t-153 -44l-131 -946h-74zM518 1178q41 94 137 94q27 0 78.5 -25.5t81.5 -25.5q51 0 78 45l41 -17q-17 -42 -54 -70 t-73 -28q-32 0 -87.5 27.5t-84.5 27.5q-45 0 -76 -53z" />
<glyph unicode="&#xf2;" horiz-adv-x="1030" d="M176 309l62 441q11 78 53 141.5t102 102.5t130 59.5t143 21.5q73 -1 137 -21.5t113 -59.5t72.5 -102.5t12.5 -141.5l-61 -441q-15 -104 -82 -179.5t-156.5 -110t-189.5 -35.5q-72 1 -136 21.5t-113.5 59.5t-73.5 102.5t-13 141.5zM250 309q-9 -63 10.5 -113t60 -79.5 t92 -44.5t109.5 -15q78 0 149 25t127 84.5t68 142.5l62 441q9 63 -11 112.5t-61 78.5t-92.5 43.5t-108.5 14.5q-80 0 -150.5 -24.5t-126 -82.5t-67.5 -142zM504 1348h117l110 -226h-78z" />
<glyph unicode="&#xf3;" horiz-adv-x="1030" d="M176 309l62 441q11 78 53 141.5t102 102.5t130 59.5t143 21.5q73 -1 137 -21.5t113 -59.5t72.5 -102.5t12.5 -141.5l-61 -441q-15 -104 -82 -179.5t-156.5 -110t-189.5 -35.5q-72 1 -136 21.5t-113.5 59.5t-73.5 102.5t-13 141.5zM250 309q-9 -63 10.5 -113t60 -79.5 t92 -44.5t109.5 -15q78 0 149 25t127 84.5t68 142.5l62 441q9 63 -11 112.5t-61 78.5t-92.5 43.5t-108.5 14.5q-80 0 -150.5 -24.5t-126 -82.5t-67.5 -142zM606 1120l164 246h113l-205 -246h-72z" />
<glyph unicode="&#xf4;" horiz-adv-x="1030" d="M176 309l62 441q11 78 53 141.5t102 102.5t130 59.5t143 21.5q73 -1 137 -21.5t113 -59.5t72.5 -102.5t12.5 -141.5l-61 -441q-15 -104 -82 -179.5t-156.5 -110t-189.5 -35.5q-72 1 -136 21.5t-113.5 59.5t-73.5 102.5t-13 141.5zM250 309q-9 -63 10.5 -113t60 -79.5 t92 -44.5t109.5 -15q78 0 149 25t127 84.5t68 142.5l62 441q9 63 -11 112.5t-61 78.5t-92.5 43.5t-108.5 14.5q-80 0 -150.5 -24.5t-126 -82.5t-67.5 -142zM426 1120l231 217h91l170 -217h-82l-142 166l-182 -166h-86z" />
<glyph unicode="&#xf5;" horiz-adv-x="1030" d="M176 309l62 441q11 78 53 141.5t102 102.5t130 59.5t143 21.5q73 -1 137 -21.5t113 -59.5t72.5 -102.5t12.5 -141.5l-61 -441q-15 -104 -82 -179.5t-156.5 -110t-189.5 -35.5q-72 1 -136 21.5t-113.5 59.5t-73.5 102.5t-13 141.5zM250 309q-9 -63 10.5 -113t60 -79.5 t92 -44.5t109.5 -15q78 0 149 25t127 84.5t68 142.5l62 441q9 63 -11 112.5t-61 78.5t-92.5 43.5t-108.5 14.5q-80 0 -150.5 -24.5t-126 -82.5t-67.5 -142zM473 1165q44 105 139 105q27 0 79.5 -29t82.5 -29q51 0 78 50l41 -17q-18 -48 -54.5 -78t-72.5 -30 q-32 0 -87.5 29.5t-84.5 29.5q-48 0 -80 -57z" />
<glyph unicode="&#xf6;" horiz-adv-x="1030" d="M176 309l62 441q11 78 53 141.5t102 102.5t130 59.5t143 21.5q73 -1 137 -21.5t113 -59.5t72.5 -102.5t12.5 -141.5l-61 -441q-15 -104 -82 -179.5t-156.5 -110t-189.5 -35.5q-72 1 -136 21.5t-113.5 59.5t-73.5 102.5t-13 141.5zM250 309q-9 -63 10.5 -113t60 -79.5 t92 -44.5t109.5 -15q78 0 149 25t127 84.5t68 142.5l62 441q9 63 -11 112.5t-61 78.5t-92.5 43.5t-108.5 14.5q-80 0 -150.5 -24.5t-126 -82.5t-67.5 -142zM434 1200q3 26 24.5 45t47.5 19t42 -19t13 -45q-5 -26 -25.5 -44.5t-46.5 -18.5q-27 0 -43 18.5t-12 44.5zM803 1200 q3 26 24 45t47 19t42.5 -19t13.5 -45q-5 -26 -25.5 -44.5t-46.5 -18.5q-27 0 -43 18.5t-12 44.5z" />
<glyph unicode="&#xf7;" horiz-adv-x="1081" d="M190 641l13 78h874l-12 -78h-875zM522 356q4 33 28.5 53.5t57.5 22.5q32 0 51 -22t15 -54t-29 -53.5t-57 -21.5t-51 21.5t-15 53.5zM610 981q4 33 28.5 53.5t57.5 22.5q32 0 51 -22t15 -54q-5 -32 -29.5 -54t-56.5 -22t-51 22t-15 54z" />
<glyph unicode="&#xf8;" horiz-adv-x="1019" d="M176 311l62 441q11 78 53 141.5t102 102.5t130 59.5t143 21.5q84 -3 163 -30l84 153q13 -5 32 -10.5t28 -9.5l-86 -158q137 -96 114 -270l-61 -441q-11 -78 -52.5 -141.5t-101.5 -102.5t-129.5 -59.5t-142.5 -21.5q-83 3 -168 32l-80 -141l-53 23l78 143 q-138 99 -115 268zM250 311q-17 -114 76 -200l465 868q-77 22 -136 22q-80 0 -150.5 -24.5t-126 -82.5t-67.5 -142zM379 84q80 -25 145 -25q78 0 148.5 25t126 84.5t67.5 142.5l62 441q16 112 -80 198z" />
<glyph unicode="&#xf9;" horiz-adv-x="1058" d="M193 305l106 756h74l-107 -756q-16 -119 64 -183.5t200 -64.5q83 0 172.5 18.5t151.5 43.5l131 942h74l-139 -1002q-231 -77 -400 -77q-150 3 -248.5 88t-78.5 235zM545 1346h117l108 -226h-78z" />
<glyph unicode="&#xfa;" horiz-adv-x="1058" d="M193 305l106 756h74l-107 -756q-16 -119 64 -183.5t200 -64.5q83 0 172.5 18.5t151.5 43.5l131 942h74l-139 -1002q-231 -77 -400 -77q-150 3 -248.5 88t-78.5 235zM616 1092l164 245h113l-205 -245h-72z" />
<glyph unicode="&#xfb;" horiz-adv-x="1058" d="M193 305l106 756h74l-107 -756q-16 -119 64 -183.5t200 -64.5q83 0 172.5 18.5t151.5 43.5l131 942h74l-139 -1002q-231 -77 -400 -77q-150 3 -248.5 88t-78.5 235zM449 1130l231 224h90l170 -224h-76l-147 177l-191 -177h-77z" />
<glyph unicode="&#xfc;" horiz-adv-x="1058" d="M193 305l106 756h74l-107 -756q-16 -119 64 -183.5t200 -64.5q83 0 172.5 18.5t151.5 43.5l131 942h74l-139 -1002q-231 -77 -400 -77q-150 3 -248.5 88t-78.5 235zM461 1239q3 26 24 45t47 19t42.5 -19t13.5 -45q-4 -26 -26 -44.5t-48 -18.5t-41.5 18.5t-11.5 44.5z M829 1239q3 26 24.5 45t47.5 19t42 -19t13 -45q-5 -26 -26 -44.5t-47 -18.5t-42 18.5t-12 44.5z" />
<glyph unicode="&#xfd;" horiz-adv-x="1062" d="M174 -248l53 45q48 -43 121 -66.5t150.5 -21t147.5 26t120 80t61 135.5l17 110q-166 -75 -316 -75q-99 -1 -179.5 34.5t-125.5 110.5t-30 176l104 752h74l-105 -752q-10 -61 8.5 -109t57.5 -77.5t90 -45.5t110 -18q80 1 146.5 17.5t161.5 52.5l14 10l129 922h72 l-156 -1106q-11 -78 -51.5 -140t-99 -98.5t-126.5 -55.5t-141 -19q-94 0 -175.5 29t-131.5 83zM625 1120l163 246h113l-205 -246h-71z" />
<glyph unicode="&#xfe;" horiz-adv-x="1056" d="M106 -381l259 1829h73l-59 -416q165 41 321 41q97 -1 176 -37t124.5 -112t31.5 -179l-61 -434q-15 -101 -82 -177t-158 -112.5t-188 -35.5q-182 4 -301 63l-62 -430h-74zM252 129q148 -68 305 -68q80 1 150.5 27t123.5 83t64 136l61 438q12 81 -23.5 139.5t-98.5 84.5 t-144 26q-190 0 -321 -43z" />
<glyph unicode="&#xff;" horiz-adv-x="1062" d="M174 -248l53 45q48 -43 121 -66.5t150.5 -21t147.5 26t120 80t61 135.5l17 110q-166 -75 -316 -75q-99 -1 -179.5 34.5t-125.5 110.5t-30 176l104 752h74l-105 -752q-10 -61 8.5 -109t57.5 -77.5t90 -45.5t110 -18q80 1 146.5 17.5t161.5 52.5l14 10l129 922h72 l-156 -1106q-11 -78 -51.5 -140t-99 -98.5t-126.5 -55.5t-141 -19q-94 0 -175.5 29t-131.5 83zM469 1257q3 26 24.5 45t47.5 19t42 -19t13 -45q-4 -26 -26 -44.5t-48 -18.5t-41.5 18.5t-11.5 44.5zM838 1257q3 26 24 45t47 19t42.5 -19t13.5 -45q-4 -26 -26 -44.5t-48 -18.5 t-41.5 18.5t-11.5 44.5z" />
<glyph unicode="&#x152;" horiz-adv-x="1914" d="M199 420l88 618q14 102 72.5 184t144 133t186 78.5t205.5 28.5q71 0 152.5 -22.5t140.5 -65.5l10 76h825l-10 -74h-745l-86 -614h682l-11 -76h-682l-86 -610h746l-10 -76h-826l9 68q-163 -79 -326 -76q-104 2 -195.5 30.5t-160.5 81t-103 134.5t-20 182zM279 420 q-12 -84 18.5 -151.5t91.5 -109.5t141 -64.5t170 -22.5q163 0 316 75l162 1158q-143 80 -293 77q-91 0 -176 -20.5t-158.5 -61t-122.5 -108t-61 -154.5z" />
<glyph unicode="&#x153;" horiz-adv-x="1705" d="M176 309l62 441q11 78 53 141.5t102 102.5t130 59.5t143 21.5q110 -2 197.5 -48t121.5 -130q59 86 160.5 132t212.5 46q57 0 109.5 -12.5t97.5 -38.5t76 -63.5t44.5 -91t4.5 -117.5q-16 -110 -83.5 -188t-158 -113t-193.5 -35q-159 0 -292 65q-27 -180 -29 -202 q-3 -76 38.5 -129t103 -75t136.5 -22q91 0 171 34.5t128 100.5l58 -30q-58 -82 -158 -127t-207 -45q-111 0 -199.5 45t-123.5 129q-58 -84 -158 -129t-211 -47q-72 1 -136 21.5t-113.5 59.5t-73.5 102.5t-13 141.5zM250 309q-9 -63 10.5 -113t60 -79.5t92 -44.5t109.5 -15 q78 0 149 25t127 84.5t68 142.5l62 441q9 63 -11 112.5t-61 78.5t-92.5 43.5t-108.5 14.5q-80 0 -150.5 -24.5t-126 -82.5t-67.5 -142zM973 545q146 -64 301 -64q86 0 156 25.5t123 88.5t67 157q9 64 -9.5 115.5t-58 82.5t-91 47.5t-111.5 16.5q-121 0 -219.5 -62.5 t-126.5 -177.5q0 -12 -3 -24z" />
<glyph unicode="&#x178;" horiz-adv-x="993" d="M137 1450h92l324 -805l547 805h94l-612 -877l-80 -573h-80l80 573zM406 1595q3 26 24 45t47 19t42 -19t13 -45t-24 -44.5t-47 -18.5t-42 18.5t-13 44.5zM838 1595q3 26 24 45t47 19t42.5 -19t13.5 -45t-24.5 -44.5t-47.5 -18.5t-42 18.5t-13 44.5z" />
<glyph unicode="&#x2c6;" horiz-adv-x="536" d="M188 1227l232 223h90l170 -223h-76l-147 176l-191 -176h-78z" />
<glyph unicode="&#x2dc;" horiz-adv-x="555" d="M227 1348q22 48 63.5 72t90.5 24q31 0 90 -26.5t94 -26.5q54 0 88 47l45 -17q-18 -43 -59 -71.5t-82 -28.5q-37 0 -100 27.5t-97 27.5q-51 0 -88 -53z" />
<glyph unicode="&#x2000;" horiz-adv-x="933" />
<glyph unicode="&#x2001;" horiz-adv-x="1866" />
<glyph unicode="&#x2002;" horiz-adv-x="933" />
<glyph unicode="&#x2003;" horiz-adv-x="1866" />
<glyph unicode="&#x2004;" horiz-adv-x="622" />
<glyph unicode="&#x2005;" horiz-adv-x="466" />
<glyph unicode="&#x2006;" horiz-adv-x="311" />
<glyph unicode="&#x2007;" horiz-adv-x="311" />
<glyph unicode="&#x2008;" horiz-adv-x="233" />
<glyph unicode="&#x2009;" horiz-adv-x="373" />
<glyph unicode="&#x200a;" horiz-adv-x="103" />
<glyph unicode="&#x2010;" horiz-adv-x="735" d="M158 575l10 78h580l-11 -78h-579z" />
<glyph unicode="&#x2011;" horiz-adv-x="735" d="M158 575l10 78h580l-11 -78h-579z" />
<glyph unicode="&#x2012;" horiz-adv-x="735" d="M158 575l10 78h580l-11 -78h-579z" />
<glyph unicode="&#x2013;" horiz-adv-x="1024" d="M139 575l11 76h909l-10 -76h-910z" />
<glyph unicode="&#x2014;" horiz-adv-x="1884" d="M125 575l10 76h1794l-10 -76h-1794z" />
<glyph unicode="&#x2018;" horiz-adv-x="448" d="M272 1061q36 74 100 194.5t99 194.5h74l-170 -389h-103z" />
<glyph unicode="&#x2019;" horiz-adv-x="466" d="M270 1059l172 391h107q-36 -78 -102.5 -199t-100.5 -192h-76z" />
<glyph unicode="&#x201a;" horiz-adv-x="499" d="M66 -262l163 344h105l-191 -344h-77z" />
<glyph unicode="&#x201c;" horiz-adv-x="704" d="M274 1059l189 391h78l-160 -391h-107zM535 1059l188 391h78l-160 -391h-106z" />
<glyph unicode="&#x201d;" horiz-adv-x="788" d="M322 1061l147 389h102l-176 -389h-73zM575 1061l148 389h102l-176 -389h-74z" />
<glyph unicode="&#x201e;" horiz-adv-x="835" d="M106 -262l166 364h107q-34 -66 -97 -180t-98 -184h-78zM365 -262l165 364h107q-34 -66 -97 -180t-98 -184h-77z" />
<glyph unicode="&#x2022;" horiz-adv-x="739" d="M223 725q13 92 89.5 158.5t168.5 66.5t149 -66.5t44 -158.5q-12 -92 -88 -158.5t-168 -66.5t-149.5 66.5t-45.5 158.5z" />
<glyph unicode="&#x2026;" horiz-adv-x="1437" d="M170 86q7 51 46.5 85t90.5 34t80 -34t21 -85q-6 -51 -45.5 -85t-90.5 -34t-79.5 34t-22.5 85zM190 86q6 41 39 69.5t74 28.5t65.5 -28.5t18.5 -69.5q-4 -41 -37 -69.5t-74 -28.5t-66 28.5t-20 69.5zM211 86q-4 -32 16 -55t52 -23t57.5 23t30.5 55t-14.5 55t-51.5 23 t-59 -23t-31 -55zM598 86q7 51 46.5 85t90.5 34t80 -34t21 -85q-6 -51 -45.5 -85t-90.5 -34t-79.5 34t-22.5 85zM618 86q6 41 39 69.5t74 28.5t65.5 -28.5t18.5 -69.5q-4 -41 -36.5 -69.5t-73.5 -28.5t-66.5 28.5t-20.5 69.5zM639 86q-4 -32 16 -55t52 -23t57.5 23t30.5 55 t-14.5 55t-51.5 23t-59 -23t-31 -55zM1024 86q7 51 46.5 85t90.5 34t80 -34t21 -85q-6 -51 -45.5 -85t-90.5 -34t-79.5 34t-22.5 85zM1044 86q6 41 39 69.5t74 28.5t65.5 -28.5t18.5 -69.5q-4 -41 -37 -69.5t-74 -28.5t-66 28.5t-20 69.5zM1065 86q-4 -32 16 -55t52 -23 t57.5 23t30.5 55t-14.5 55t-51.5 23t-59 -23t-31 -55z" />
<glyph unicode="&#x202f;" horiz-adv-x="373" />
<glyph unicode="&#x2039;" horiz-adv-x="530" d="M180 604l318 389q13 -8 31.5 -22.5t25.5 -18.5l-289 -348q32 -62 99 -183t90 -165q-16 -8 -35.5 -20t-32.5 -19z" />
<glyph unicode="&#x203a;" horiz-adv-x="557" d="M168 256l289 348q-32 62 -99 183t-90 165q16 8 35.5 20t32.5 19l207 -387l-318 -389q-13 8 -31.5 22.5t-25.5 18.5z" />
<glyph unicode="&#x205f;" horiz-adv-x="466" />
<glyph unicode="&#x20ac;" horiz-adv-x="1179" d="M135 598q4 14 21 66h118l17 120h-125l22 66h113l25 176q14 102 66.5 184.5t127.5 134.5t163.5 79.5t180.5 27.5q139 0 249.5 -59.5t154.5 -173.5l-78 -37q-38 96 -128.5 142t-207.5 46q-105 0 -200 -38t-165.5 -118t-85.5 -188l-24 -176h551q-16 -51 -23 -66h-538 l-17 -120h551q-6 -14 -10 -36.5t-6 -29.5h-543l-27 -176q-11 -83 13.5 -149.5t75 -108t117.5 -63t143 -21.5q120 0 225.5 46.5t169.5 141.5l67 -37q-75 -114 -204 -173.5t-271 -59.5q-91 0 -170.5 27t-139.5 78t-88.5 134t-14.5 185l26 176h-131z" />
<glyph unicode="&#x2122;" horiz-adv-x="1683" d="M240 1391l8 59h598l-8 -59h-267l-98 -699h-65l98 699h-266zM879 692l106 758h92l189 -594q57 97 356 594h92l-106 -758h-66l107 694l-359 -598h-65l-191 586q-15 -100 -46.5 -342.5t-45.5 -339.5h-63z" />
<glyph unicode="&#x25fc;" horiz-adv-x="1064" d="M0 0v1065h1065v-1065h-1065z" />
</font>
</defs>
</svg>
